<svg width="24" height="24" viewBox="0 0 24 24" fill="none" xmlns="http://www.w3.org/2000/svg">
<path d="M17.2964 12.7636C14.888 12.7636 12.9027 14.7489 12.9027 17.1573C12.9027 19.5656 14.888 21.5509 17.2964 21.5509C19.7047 21.5509 21.69 19.5656 21.69 17.1573C21.69 14.7489 19.7373 12.7636 17.2964 12.7636ZM17.2964 20.0864C15.6691 20.0864 14.3673 18.7846 14.3673 17.1573C14.3673 15.53 15.6691 14.2282 17.2964 14.2282C18.9236 14.2282 20.2255 15.53 20.2255 17.1573C20.258 18.7846 18.9236 20.0864 17.2964 20.0864Z" fill="#3758F9"/>
<path d="M17.8496 17.2223V16.2459C17.8496 15.8554 17.5242 15.5299 17.1336 15.5299C16.7431 15.5299 16.4176 15.8554 16.4176 16.2459V17.5477C16.4176 17.743 16.4827 17.9383 16.6455 18.0684L17.394 18.817C17.5242 18.9472 17.7195 19.0448 17.9147 19.0448C18.11 19.0448 18.3053 18.9797 18.4355 18.817C18.7284 18.5241 18.7284 18.0684 18.4355 17.7755L17.8496 17.2223Z" fill="#3758F9"/>
<path d="M10.4944 16.9945H4.24564C3.82255 16.9945 3.46455 16.6365 3.46455 16.2135V5.21309C3.46455 4.79 3.82255 4.46455 4.24564 4.46455H8.802L10.3967 6.12436C10.5269 6.25455 10.7222 6.35218 10.9175 6.35218H18.6307C19.0538 6.35218 19.4118 6.71018 19.4118 7.13327V10.7458C19.4118 11.1364 19.7373 11.4618 20.1278 11.4618C20.5184 11.4618 20.8438 11.1364 20.8438 10.7458V7.13327C20.8438 5.89655 19.8349 4.88764 18.5982 4.88764H11.2429L9.64818 3.22782C9.518 3.09764 9.32273 3 9.12745 3H4.24564C3.00891 3 2 4.00891 2 5.24564V16.246C2 17.4827 3.00891 18.4916 4.24564 18.4916H10.4944C10.8849 18.4916 11.2104 18.1662 11.2104 17.7756C11.2104 17.3851 10.9175 16.9945 10.4944 16.9945Z" fill="#3758F9"/>
</svg>
