<svg width="24" height="24" viewBox="0 0 24 24" fill="none" xmlns="http://www.w3.org/2000/svg">
  <path
    d="M11.5884 20.7103L12.103 21.5677H12.103L11.5884 20.7103ZM12.4116 20.7103L11.897 21.5677L12.4116 20.7103ZM11.8928 20.558L11.6782 19.5813H11.6782L11.8928 20.558ZM12.1072 20.558L12.3218 19.5813H12.3218L12.1072 20.558ZM16.4259 5.24972L17.3501 4.86774L15.4284 5.3206L16.4259 5.24972ZM17.25 6.07545L16.8664 6.99894L16.8672 6.99927L17.25 6.07545ZM18.5589 6.61783L18.1761 7.54166L18.5589 6.61783ZM19.384 8.61045L18.46 8.2279V8.2279L19.384 8.61045ZM18.8422 9.91893L19.7661 10.3015V10.3015L18.8422 9.91893ZM18.8427 11.0868L19.7668 10.7047L19.7659 10.7026L18.8427 11.0868ZM19.3835 12.3948L18.4594 12.7769L18.4597 12.7777L19.3835 12.3948ZM18.5582 14.3881L18.1757 13.4642L18.1754 13.4643L18.5582 14.3881ZM17.2503 14.9301L17.6325 15.8542L17.6331 15.8539L17.2503 14.9301ZM16.4249 15.7546L15.5013 15.3712L15.5009 15.372L16.4249 15.7546ZM15.8827 17.064L14.9588 16.6815V16.6815L15.8827 17.064ZM13.8909 17.8894L13.5081 18.8132L13.8909 17.8894ZM12.583 17.3474L12.9658 16.4236L12.965 16.4232L12.583 17.3474ZM11.4166 17.3483L11.7989 18.2723L11.7999 18.2718L11.4166 17.3483ZM10.1077 17.8899L10.4899 18.8139L10.49 18.8139L10.1077 17.8899ZM8.11711 17.065L7.19317 17.4476L7.19341 17.4481L8.11711 17.065ZM7.57479 15.7552L6.65062 16.1372L6.65085 16.1377L7.57479 15.7552ZM6.75064 14.9295L7.13427 14.006L7.13345 14.0056L6.75064 14.9295ZM5.44175 14.3871L5.82457 13.4633H5.82457L5.44175 14.3871ZM4.61633 12.3954L3.69239 12.0129L3.69214 12.0135L4.61633 12.3954ZM5.1581 11.0869L6.08203 11.4695L6.08237 11.4687L5.1581 11.0869ZM5.15722 9.92004L4.2329 10.3017L4.23353 10.3032L5.15722 9.92004ZM4.61623 8.60968L5.54055 8.22807L5.54004 8.22683L4.61623 8.60968ZM5.44152 6.61643L5.82404 7.54037L5.82434 7.54025L5.44152 6.61643ZM6.74947 6.07443L6.36723 5.15037L6.36666 5.15061L6.74947 6.07443ZM7.57448 5.25088L8.49782 5.63486L8.49841 5.63343L7.57448 5.25088ZM8.11664 3.94146L9.04057 4.32401L8.11664 3.94146ZM10.1084 3.11609L10.4913 2.19227V2.19227L10.1084 3.11609ZM11.4164 3.65808L11.0336 4.58191L11.0344 4.58224L11.4164 3.65808ZM12.5828 3.6572L12.2014 2.7328L12.1994 2.73362L12.5828 3.6572ZM13.8922 3.11693L14.2736 4.04134L14.2749 4.04081L13.8922 3.11693ZM15.8837 3.94217L16.8077 3.55962L16.8076 3.55948L15.8837 3.94217ZM16.426 5.25199L15.5021 5.63454L17.4235 5.18111L16.426 5.25199ZM15.5771 22.6103L15.0625 23.4677L15.5771 22.6103ZM16.434 22.9975L16.5662 23.9887L16.434 22.9975ZM16.7818 21.8188L15.789 21.9393L15.7904 21.9503L16.7818 21.8188ZM16.7965 22.7593L17.6538 23.2742L16.7965 22.7593ZM7.21852 21.8185L8.20988 21.9502L8.21123 21.9391L7.21852 21.8185ZM7.20361 22.7591L6.34629 23.2739L7.20361 22.7591ZM8.42315 22.6102L7.90851 21.7528V21.7528L8.42315 22.6102ZM7.56614 22.9974L7.69836 22.0062L7.56614 22.9974ZM7.86866 16.465L6.87595 16.3444L6.22581 21.698L7.21852 21.8185L8.21123 21.9391L8.86137 16.5855L7.86866 16.465ZM8.42315 22.6102L8.93779 23.4676L12.103 21.5677L11.5884 20.7103L11.0738 19.8529L7.90851 21.7528L8.42315 22.6102ZM12.4116 20.7103L11.897 21.5677L15.0625 23.4677L15.5771 22.6103L16.0917 21.7529L12.9262 19.8529L12.4116 20.7103ZM16.7818 21.8188L17.7745 21.6984L17.1246 16.3417L16.1319 16.4621L15.1392 16.5826L15.789 21.9392L16.7818 21.8188ZM11.5884 20.7103L12.103 21.5677C12.122 21.5563 12.1384 21.5465 12.1535 21.5375C12.1686 21.5285 12.1812 21.521 12.1922 21.5146C12.2031 21.5082 12.2113 21.5035 12.2176 21.5C12.2239 21.4965 12.2272 21.4948 12.2281 21.4943C12.2306 21.493 12.2191 21.4991 12.198 21.5074C12.187 21.5117 12.1736 21.5166 12.158 21.5214C12.1422 21.5263 12.1253 21.5308 12.1073 21.5347L11.8928 20.558L11.6782 19.5813C11.4005 19.6423 11.1631 19.7992 11.0738 19.8529L11.5884 20.7103ZM12.4116 20.7103L12.9262 19.8529C12.8369 19.7993 12.5995 19.6423 12.3218 19.5813L12.1072 20.558L11.8927 21.5347C11.8747 21.5308 11.8578 21.5263 11.842 21.5214C11.8264 21.5166 11.813 21.5117 11.802 21.5074C11.7809 21.4991 11.7694 21.493 11.7719 21.4943C11.7728 21.4948 11.7761 21.4965 11.7824 21.5C11.7887 21.5035 11.7969 21.5082 11.8078 21.5146C11.8188 21.521 11.8314 21.5285 11.8465 21.5375C11.8616 21.5465 11.878 21.5563 11.897 21.5677L12.4116 20.7103ZM11.8928 20.558L12.1073 21.5347C12.0366 21.5503 11.9634 21.5503 11.8927 21.5347L12.1072 20.558L12.3218 19.5813C12.1098 19.5347 11.8902 19.5347 11.6782 19.5813L11.8928 20.558ZM16.4259 5.24972L15.5017 5.63169C15.7574 6.25029 16.2482 6.74213 16.8664 6.99894L17.25 6.07545L17.6337 5.15196C17.5053 5.09864 17.4033 4.99646 17.3501 4.86774L16.4259 5.24972ZM17.25 6.07545L16.8672 6.99927L18.1761 7.54166L18.5589 6.61783L18.9417 5.69401L17.6329 5.15163L17.25 6.07545ZM18.5589 6.61783L18.1761 7.54166C18.3046 7.59488 18.4067 7.69703 18.46 7.82575L19.384 7.4432L20.3079 7.06065C20.0517 6.442 19.5604 5.95036 18.9417 5.69401L18.5589 6.61783ZM19.384 7.4432L18.46 7.82575C18.5133 7.95449 18.5133 8.09916 18.46 8.2279L19.384 8.61045L20.3079 8.993C20.564 8.37436 20.564 7.67929 20.3079 7.06065L19.384 7.4432ZM19.384 8.61045L18.46 8.2279L17.9183 9.53638L18.8422 9.91893L19.7661 10.3015L20.3079 8.993L19.384 8.61045ZM18.8422 9.91893L17.9183 9.53638C17.6622 10.1548 17.6614 10.851 17.9194 11.4709L18.8427 11.0868L19.7659 10.7026C19.7129 10.5752 19.7126 10.4308 19.7661 10.3015L18.8422 9.91893ZM18.8427 11.0868L17.9185 11.4688L18.4594 12.7769L19.3835 12.3948L20.3076 12.0128L19.7668 10.7047L18.8427 11.0868ZM19.3835 12.3948L18.4597 12.7777C18.4861 12.8414 18.4997 12.9098 18.4997 12.9788L19.4997 12.9787L20.4997 12.9785C20.4997 12.6468 20.4343 12.3184 20.3073 12.012L19.3835 12.3948ZM19.4997 12.9787L18.4997 12.9788C18.4997 13.0479 18.4862 13.1162 18.4598 13.18L19.3837 13.5625L20.3076 13.9451C20.4345 13.6386 20.4998 13.3102 20.4997 12.9785L19.4997 12.9787ZM19.3837 13.5625L18.4598 13.18C18.4334 13.2438 18.3947 13.3017 18.3459 13.3504L19.0531 14.0575L19.7602 14.7646C19.9947 14.53 20.1807 14.2516 20.3076 13.9451L19.3837 13.5625ZM19.0531 14.0575L18.3459 13.3504C18.2972 13.3992 18.2393 13.4378 18.1757 13.4642L18.5582 14.3881L18.9407 15.312C19.2472 15.1852 19.5257 14.9991 19.7602 14.7646L19.0531 14.0575ZM18.5582 14.3881L18.1754 13.4643L16.8674 14.0063L17.2503 14.9301L17.6331 15.8539L18.941 15.3119L18.5582 14.3881ZM17.2503 14.9301L16.868 14.006C16.2494 14.2619 15.7579 14.753 15.5013 15.3712L16.4249 15.7546L17.3485 16.1379C17.4019 16.0093 17.5041 15.9073 17.6325 15.8542L17.2503 14.9301ZM16.4249 15.7546L15.5009 15.372L14.9588 16.6815L15.8827 17.064L16.8066 17.4466L17.3488 16.1371L16.4249 15.7546ZM15.8827 17.064L14.9588 16.6815C14.9055 16.8102 14.8033 16.9123 14.6749 16.9656L15.0577 17.8894L15.4405 18.8132C16.0591 18.5569 16.5505 18.0652 16.8066 17.4466L15.8827 17.064ZM15.0577 17.8894L14.6749 16.9656C14.5464 17.0188 14.4022 17.0188 14.2737 16.9656L13.8909 17.8894L13.5081 18.8132C14.1267 19.0696 14.8219 19.0696 15.4405 18.8132L15.0577 17.8894ZM13.8909 17.8894L14.2737 16.9656L12.9658 16.4236L12.583 17.3474L12.2001 18.2712L13.5081 18.8132L13.8909 17.8894ZM12.583 17.3474L12.965 16.4232C12.3463 16.1675 11.6514 16.168 11.0332 16.4247L11.4166 17.3483L11.7999 18.2718C11.9283 18.2186 12.0725 18.2185 12.201 18.2715L12.583 17.3474ZM11.4166 17.3483L11.0342 16.4242L9.72532 16.9658L10.1077 17.8899L10.49 18.8139L11.7989 18.2723L11.4166 17.3483ZM10.1077 17.8899L9.72543 16.9658C9.59707 17.0189 9.45292 17.0189 9.32459 16.9657L8.94178 17.8895L8.55896 18.8133C9.1771 19.0695 9.87161 19.0697 10.4899 18.8139L10.1077 17.8899ZM8.94178 17.8895L9.32459 16.9657C9.19626 16.9125 9.09414 16.8105 9.04081 16.6819L8.11711 17.065L7.19341 17.4481C7.44974 18.0661 7.94083 18.5572 8.55896 18.8133L8.94178 17.8895ZM8.11711 17.065L9.04104 16.6825L8.49872 15.3726L7.57479 15.7552L6.65085 16.1377L7.19317 17.4476L8.11711 17.065ZM7.57479 15.7552L8.49896 15.3732C8.24328 14.7546 7.75246 14.2628 7.13427 14.006L6.75064 14.9295L6.367 15.853C6.49536 15.9063 6.59742 16.0085 6.65062 16.1372L7.57479 15.7552ZM6.75064 14.9295L7.13345 14.0056L5.82457 13.4633L5.44175 14.3871L5.05893 15.3109L6.36782 15.8533L6.75064 14.9295ZM5.44175 14.3871L5.82457 13.4633C5.69618 13.4101 5.59404 13.308 5.54072 13.1793L4.61691 13.5622L3.6931 13.945C3.94935 14.5633 4.44057 15.0547 5.05893 15.3109L5.44175 14.3871ZM4.61691 13.5622L5.54072 13.1793C5.4874 13.0507 5.48732 12.9061 5.54052 12.7773L4.61633 12.3954L3.69214 12.0135C3.43652 12.632 3.43687 13.3268 3.6931 13.945L4.61691 13.5622ZM4.61633 12.3954L5.54026 12.778L6.08203 11.4695L5.1581 11.0869L4.23416 10.7044L3.69239 12.0129L4.61633 12.3954ZM5.1581 11.0869L6.08237 11.4687C6.33788 10.85 6.33736 10.1552 6.08092 9.53692L5.15722 9.92004L4.23353 10.3032C4.28689 10.4318 4.287 10.5764 4.23383 10.7052L5.1581 11.0869ZM5.15722 9.92004L6.08154 9.53843L5.54055 8.22807L4.61623 8.60968L3.69191 8.99129L4.2329 10.3017L5.15722 9.92004ZM4.61623 8.60968L5.54004 8.22683C5.51362 8.16308 5.50001 8.09473 5.5 8.02569L4.5 8.02585L3.5 8.02601C3.50005 8.35768 3.56543 8.68611 3.69242 8.99253L4.61623 8.60968ZM4.5 8.02585L5.5 8.02569C5.49999 7.95665 5.51358 7.88829 5.53998 7.82453L4.61604 7.44198L3.69211 7.05943C3.56522 7.36588 3.49995 7.69433 3.5 8.02601L4.5 8.02585ZM4.61604 7.44198L5.53998 7.82453C5.56638 7.76077 5.60507 7.70286 5.65381 7.65411L4.94668 6.94704L4.23954 6.23996C4.00501 6.47451 3.81899 6.75298 3.69211 7.05943L4.61604 7.44198ZM4.94668 6.94704L5.65381 7.65411C5.70256 7.60536 5.76041 7.56672 5.82404 7.54037L5.44152 6.61643L5.059 5.69248C4.75253 5.81936 4.47407 6.00541 4.23954 6.23996L4.94668 6.94704ZM5.44152 6.61643L5.82434 7.54025L7.13229 6.99826L6.74947 6.07443L6.36666 5.15061L5.05871 5.6926L5.44152 6.61643ZM6.74947 6.07443L7.13171 6.9985C7.74975 6.74284 8.24102 6.25237 8.49782 5.63486L7.57448 5.25088L6.65114 4.8669C6.5977 4.99539 6.49555 5.09729 6.36723 5.15037L6.74947 6.07443ZM7.57448 5.25088L8.49841 5.63343L9.04057 4.32401L8.11664 3.94146L7.1927 3.55891L6.65054 4.86833L7.57448 5.25088ZM8.11664 3.94146L9.04057 4.32401C9.09387 4.19528 9.19604 4.09314 9.32448 4.03991L8.94167 3.11609L8.55885 2.19227C7.94022 2.44861 7.44885 2.94026 7.1927 3.55891L8.11664 3.94146ZM8.94167 3.11609L9.32448 4.03991C9.45291 3.9867 9.59719 3.9867 9.72562 4.03991L10.1084 3.11609L10.4913 2.19227C9.87261 1.93591 9.17749 1.93591 8.55885 2.19227L8.94167 3.11609ZM10.1084 3.11609L9.72562 4.03991L11.0336 4.58191L11.4164 3.65808L11.7992 2.73426L10.4913 2.19227L10.1084 3.11609ZM11.4164 3.65808L11.0344 4.58224C11.653 4.83797 12.3479 4.83744 12.9662 4.58079L12.5828 3.6572L12.1994 2.73362C12.071 2.7869 11.9268 2.78701 11.7984 2.73392L11.4164 3.65808ZM12.5828 3.6572L12.9642 4.58161L14.2736 4.04134L13.8922 3.11693L13.5108 2.19252L12.2014 2.7328L12.5828 3.6572ZM13.8922 3.11693L14.2749 4.04081C14.4033 3.98762 14.5476 3.98763 14.676 4.04084L15.0588 3.11702L15.4416 2.19319C14.8231 1.93689 14.1281 1.93684 13.5096 2.19305L13.8922 3.11693ZM15.0588 3.11702L14.676 4.04084C14.8044 4.09406 14.9065 4.19617 14.9599 4.32486L15.8837 3.94217L16.8076 3.55948C16.5514 2.941 16.0601 2.44949 15.4416 2.19319L15.0588 3.11702ZM15.8837 3.94217L14.9598 4.32472L15.5021 5.63454L16.426 5.25199L17.35 4.86944L16.8077 3.55962L15.8837 3.94217ZM16.426 5.25199L17.4235 5.18111L17.4234 5.17884L16.4259 5.24972L15.4284 5.3206L15.4286 5.32286L16.426 5.25199ZM15.5771 22.6103L15.0625 23.4677C15.2732 23.5942 15.4902 23.7256 15.6765 23.8156C15.8464 23.8977 16.1732 24.0411 16.5662 23.9887L16.434 22.9975L16.3018 22.0063C16.4188 21.9907 16.5064 22.0079 16.5444 22.0178C16.5779 22.0266 16.5834 22.0326 16.5464 22.0147C16.5112 21.9977 16.4591 21.9698 16.3791 21.9236C16.2997 21.8777 16.2078 21.8226 16.0917 21.7529L15.5771 22.6103ZM16.7818 21.8188L15.7904 21.9503C15.8082 22.0845 15.8223 22.1908 15.8328 22.2819C15.8435 22.3738 15.8484 22.4327 15.85 22.4717C15.8517 22.5128 15.8484 22.5055 15.8536 22.4714C15.8596 22.4326 15.8786 22.3455 15.9393 22.2444L16.7965 22.7593L17.6538 23.2742C17.8578 22.9345 17.8561 22.5777 17.8483 22.3892C17.8397 22.1824 17.8054 21.9311 17.7731 21.6873L16.7818 21.8188ZM16.434 22.9975L16.5662 23.9887C17.0186 23.9284 17.4189 23.6653 17.6538 23.2742L16.7965 22.7593L15.9393 22.2444C16.0175 22.1141 16.1509 22.0264 16.3018 22.0063L16.434 22.9975ZM7.21852 21.8185L6.22722 21.6869C6.19485 21.9307 6.16047 22.1821 6.15191 22.3889C6.14409 22.5774 6.14229 22.9342 6.34629 23.2739L7.20361 22.7591L8.06092 22.2444C8.12162 22.3454 8.14058 22.4326 8.14653 22.4714C8.15178 22.5055 8.14849 22.5128 8.15019 22.4717C8.15181 22.4326 8.15673 22.3737 8.16736 22.2818C8.17792 22.1907 8.192 22.0844 8.20982 21.9502L7.21852 21.8185ZM8.42315 22.6102L7.90851 21.7528C7.79244 21.8224 7.70055 21.8776 7.62113 21.9234C7.54106 21.9697 7.48898 21.9976 7.45382 22.0146C7.41679 22.0325 7.42221 22.0265 7.45572 22.0177C7.49376 22.0078 7.58138 21.9906 7.69836 22.0062L7.56614 22.9974L7.43392 23.9886C7.82689 24.041 8.15379 23.8975 8.32366 23.8155C8.51001 23.7255 8.72701 23.5941 8.93779 23.4676L8.42315 22.6102ZM7.20361 22.7591L6.34629 23.2739C6.5812 23.6651 6.98145 23.9283 7.43392 23.9886L7.56614 22.9974L7.69836 22.0062C7.84927 22.0263 7.98267 22.114 8.06092 22.2444L7.20361 22.7591ZM16 10.5028H15C15 12.1608 13.6565 13.5043 12 13.5043V14.5043V15.5043C14.7618 15.5043 17 13.2647 17 10.5028H16ZM12 14.5043V13.5043C10.3435 13.5043 9 12.1608 9 10.5028H8H7C7 13.2647 9.23822 15.5043 12 15.5043V14.5043ZM8 10.5028H9C9 8.84477 10.3435 7.50131 12 7.50131V6.50131V5.50131C9.23822 5.50131 7 7.7409 7 10.5028H8ZM12 6.50131V7.50131C13.6565 7.50131 15 8.84477 15 10.5028H16H17C17 7.7409 14.7618 5.50131 12 5.50131V6.50131Z" />
</svg>