<svg width="32" height="31" viewBox="0 0 32 31" fill="none" xmlns="http://www.w3.org/2000/svg">
<path d="M27.9531 6.10547H22.375V3.36621C22.375 1.92187 21.1797 0.726562 19.7353 0.726562H12.2148C10.7705 0.726562 9.57519 1.92187 9.57519 3.36621V6.10547H4.04688C2.35352 6.10547 0.90918 7.5 0.90918 9.24316V27.0732C0.90918 28.7666 2.30371 30.2109 4.04688 30.2109H27.9531C29.6465 30.2109 31.0908 28.8164 31.0908 27.0732V9.24316C31.041 7.5 29.6465 6.10547 27.9531 6.10547ZM11.8662 3.36621C11.8662 3.16699 12.0156 3.01758 12.2148 3.01758H19.7353C19.9346 3.01758 20.1338 3.16699 20.1338 3.41602V6.15527H11.8662V3.36621ZM4.04688 8.34668H27.9531C28.4512 8.34668 28.8496 8.74512 28.8496 9.24316V13.1279L17.1455 16.3154V15.2695C17.1455 14.6719 16.6475 14.124 16 14.124C15.3525 14.124 14.8545 14.6221 14.8545 15.2695V16.3154L3.2002 13.0781V9.19336C3.2002 8.74512 3.54883 8.34668 4.04688 8.34668ZM27.9531 27.9199H4.04688C3.54883 27.9199 3.15039 27.5215 3.15039 27.0234V15.4189L14.8545 18.6064V19.7021C14.8545 20.2998 15.3525 20.8477 16 20.8477C16.6475 20.8477 17.1455 20.3496 17.1455 19.7021V18.6064L28.8496 15.4189V27.0732C28.7998 27.5215 28.4512 27.9199 27.9531 27.9199Z" fill="white"/>
</svg>
