<svg width="244" height="232" viewBox="0 0 244 232" fill="none" xmlns="http://www.w3.org/2000/svg">
<ellipse cx="122" cy="116" rx="122" ry="116" fill="#3857F8"/>
<path d="M22.0682 151V81.1818H36.8295V138.83H66.7614V151H22.0682ZM93.2033 152.023C87.9078 152.023 83.3283 150.898 79.4647 148.648C75.6237 146.375 72.6578 143.216 70.5669 139.17C68.476 135.102 67.4306 130.386 67.4306 125.023C67.4306 119.614 68.476 114.886 70.5669 110.841C72.6578 106.773 75.6237 103.614 79.4647 101.364C83.3283 99.0909 87.9078 97.9545 93.2033 97.9545C98.4987 97.9545 103.067 99.0909 106.908 101.364C110.771 103.614 113.749 106.773 115.84 110.841C117.931 114.886 118.976 119.614 118.976 125.023C118.976 130.386 117.931 135.102 115.84 139.17C113.749 143.216 110.771 146.375 106.908 148.648C103.067 150.898 98.4987 152.023 93.2033 152.023ZM93.2715 140.773C95.6806 140.773 97.6919 140.091 99.3056 138.727C100.919 137.341 102.135 135.455 102.953 133.068C103.794 130.682 104.215 127.966 104.215 124.92C104.215 121.875 103.794 119.159 102.953 116.773C102.135 114.386 100.919 112.5 99.3056 111.114C97.6919 109.727 95.6806 109.034 93.2715 109.034C90.8397 109.034 88.7942 109.727 87.1351 111.114C85.4987 112.5 84.2601 114.386 83.4192 116.773C82.601 119.159 82.1919 121.875 82.1919 124.92C82.1919 127.966 82.601 130.682 83.4192 133.068C84.2601 135.455 85.4987 137.341 87.1351 138.727C88.7942 140.091 90.8397 140.773 93.2715 140.773ZM145.29 171.727C140.586 171.727 136.551 171.08 133.188 169.784C129.847 168.511 127.188 166.773 125.211 164.568C123.233 162.364 121.949 159.886 121.358 157.136L134.79 155.33C135.199 156.375 135.847 157.352 136.733 158.261C137.62 159.17 138.79 159.898 140.245 160.443C141.722 161.011 143.517 161.295 145.631 161.295C148.79 161.295 151.392 160.523 153.438 158.977C155.506 157.455 156.54 154.898 156.54 151.307V141.727H155.926C155.29 143.182 154.336 144.557 153.063 145.852C151.79 147.148 150.154 148.205 148.154 149.023C146.154 149.841 143.767 150.25 140.995 150.25C137.063 150.25 133.483 149.341 130.256 147.523C127.051 145.682 124.495 142.875 122.586 139.102C120.699 135.307 119.756 130.511 119.756 124.716C119.756 118.784 120.722 113.83 122.654 109.852C124.586 105.875 127.154 102.898 130.358 100.92C133.586 98.9432 137.12 97.9545 140.961 97.9545C143.892 97.9545 146.347 98.4545 148.324 99.4545C150.301 100.432 151.892 101.659 153.097 103.136C154.324 104.591 155.267 106.023 155.926 107.432H156.472V98.6364H170.892V151.511C170.892 155.966 169.801 159.693 167.62 162.693C165.438 165.693 162.415 167.943 158.551 169.443C154.711 170.966 150.29 171.727 145.29 171.727ZM145.597 139.341C147.938 139.341 149.915 138.761 151.529 137.602C153.165 136.42 154.415 134.739 155.279 132.557C156.165 130.352 156.608 127.716 156.608 124.648C156.608 121.58 156.176 118.92 155.313 116.67C154.449 114.398 153.199 112.636 151.563 111.386C149.926 110.136 147.938 109.511 145.597 109.511C143.211 109.511 141.199 110.159 139.563 111.455C137.926 112.727 136.688 114.5 135.847 116.773C135.006 119.045 134.586 121.67 134.586 124.648C134.586 127.67 135.006 130.284 135.847 132.489C136.711 134.67 137.949 136.364 139.563 137.568C141.199 138.75 143.211 139.341 145.597 139.341ZM199.388 152.023C194.093 152.023 189.513 150.898 185.65 148.648C181.809 146.375 178.843 143.216 176.752 139.17C174.661 135.102 173.616 130.386 173.616 125.023C173.616 119.614 174.661 114.886 176.752 110.841C178.843 106.773 181.809 103.614 185.65 101.364C189.513 99.0909 194.093 97.9545 199.388 97.9545C204.684 97.9545 209.252 99.0909 213.093 101.364C216.956 103.614 219.934 106.773 222.025 110.841C224.116 114.886 225.161 119.614 225.161 125.023C225.161 130.386 224.116 135.102 222.025 139.17C219.934 143.216 216.956 146.375 213.093 148.648C209.252 150.898 204.684 152.023 199.388 152.023ZM199.456 140.773C201.866 140.773 203.877 140.091 205.491 138.727C207.104 137.341 208.32 135.455 209.138 133.068C209.979 130.682 210.4 127.966 210.4 124.92C210.4 121.875 209.979 119.159 209.138 116.773C208.32 114.386 207.104 112.5 205.491 111.114C203.877 109.727 201.866 109.034 199.456 109.034C197.025 109.034 194.979 109.727 193.32 111.114C191.684 112.5 190.445 114.386 189.604 116.773C188.786 119.159 188.377 121.875 188.377 124.92C188.377 127.966 188.786 130.682 189.604 133.068C190.445 135.455 191.684 137.341 193.32 138.727C194.979 140.091 197.025 140.773 199.456 140.773Z" fill="white"/>
</svg>
