<svg width="52" height="42" viewBox="0 0 52 42" fill="none" xmlns="http://www.w3.org/2000/svg">
<mask id="mask0_525_3" style="mask-type:luminance" maskUnits="userSpaceOnUse" x="0" y="0" width="52" height="42">
<path d="M51.7351 0H0V42H51.7351V0Z" fill="white"/>
</mask>
<g mask="url(#mask0_525_3)">
<path d="M14.9223 15.0649C15.0651 16.4811 15.2079 17.897 15.3506 19.3129C15.4479 19.2707 15.5475 19.2314 15.6456 19.1902C15.5178 17.7769 15.39 16.3633 15.2622 14.95C15.602 13.6599 15.6124 12.6165 15.5598 11.9096C15.4863 10.9236 15.252 10.0733 15.113 10.0821C14.9731 10.0906 14.9899 10.9402 14.7392 10.9819C14.4985 11.0219 14.2751 10.2748 14.1003 10.3115C13.9116 10.3511 13.8945 11.2812 14.0304 12.2213C14.1281 12.8973 14.3508 13.8931 14.9223 15.0649Z" fill="#FAB22F"/>
<path d="M16.1364 11.5578C16.2522 13.987 16.3682 16.4162 16.4839 18.8455C16.5735 18.8118 16.6634 18.7782 16.754 18.7455C16.6632 16.3172 16.5723 13.8892 16.4817 11.4609C16.8894 10.1907 16.9551 9.14922 16.9399 8.44067C16.9186 7.45201 16.7296 6.59061 16.5901 6.5918C16.4502 6.59322 16.422 7.4423 16.1694 7.47097C15.927 7.49846 15.7432 6.74038 15.5668 6.76763C15.3761 6.79725 15.31 7.72524 15.396 8.671C15.4579 9.35135 15.6275 10.3575 16.1364 11.5578Z" fill="#95C13D"/>
<path d="M15.5676 22.7384C15.0328 22.5012 14.2978 22.5386 12.8277 22.614C10.6888 22.7235 7.86924 23.1387 7.84055 23.5183C7.80663 23.97 11.7899 23.5806 13.5707 25.0202C14.7556 25.9781 14.1572 27.0928 14.5585 27.0978C15.2688 27.1075 17.5519 23.6183 15.5676 22.7384Z" fill="#1F1E1B"/>
<path d="M45.7614 19.6714C45.6836 19.1901 45.3217 18.8794 45.1019 18.7311C45.0103 18.4939 44.9109 18.2673 44.8061 18.0512C45.4498 17.9813 46.0934 17.9116 46.7373 17.8417C46.7197 17.8029 46.7022 17.7642 46.6846 17.7256C46.0353 17.7882 45.386 17.851 44.7369 17.9138C44.097 16.6521 43.2724 15.7485 42.7035 15.1274C42.4694 14.8715 42.2351 14.6386 42.0008 14.4172L41.7833 14.5469C40.4209 13.2729 39.074 12.5444 37.9582 11.9428C36.4471 11.1271 35.2568 10.4847 34.8337 8.97443C34.5769 8.05734 34.6437 7.02745 35.0327 5.91273L34.357 4.60938C33.7494 6.2971 33.6875 7.77013 34.1732 8.98935C34.8237 10.6249 36.0856 11.2375 37.5472 11.9463C38.7605 12.5371 40.1294 13.2025 41.3856 14.5713C41.4271 14.6163 41.4646 14.6668 41.5054 14.7127L41.2926 14.8398C42.0997 15.7459 42.759 16.8512 43.2544 18.0569C37.9521 18.5688 32.6502 19.0809 27.3479 19.593C26.2176 19.2458 25.3033 19.2295 24.6841 19.278C23.8202 19.3456 23.0752 19.575 23.0831 19.7141C23.0909 19.8536 23.8349 19.8418 23.8719 20.0925C23.9072 20.3333 23.2524 20.5522 23.2849 20.7269C23.3198 20.9158 24.1346 20.9385 24.958 20.8079C25.5502 20.7141 26.4227 20.4973 27.4489 19.933C32.7389 19.3596 38.0289 18.7858 43.3187 18.2124C43.4221 18.4726 43.5148 18.7382 43.6023 19.0067C43.4825 19.0531 43.3585 19.1036 43.2428 19.1458C43.2252 19.1366 43.2098 19.1223 43.1918 19.114C42.5567 18.8271 42.0897 19.3953 40.3751 19.7442C38.6623 20.0925 38.0517 19.7446 37.6544 20.2119C37.6338 20.2364 37.6174 20.2641 37.5994 20.2909C36.0349 20.4098 34.514 20.4153 33.1957 20.416C30.9972 20.4169 29.7585 20.3345 29.6426 20.7508C29.5857 20.9551 29.847 21.1089 31.1004 22.2084C32.5594 23.4881 32.8262 23.8239 33.466 23.9286C33.8848 23.9969 34.1488 23.9149 35.0355 23.672C37.0485 23.121 37.0207 23.1516 37.2221 23.1087C37.699 23.007 38.0332 22.8995 38.1914 22.8476C38.2471 22.8293 38.3372 22.7999 38.4544 22.7618C38.4819 22.7739 38.508 22.7883 38.5359 22.7983C39.1177 23.0075 39.4089 22.6042 41.3759 22.0148C43.0324 21.5186 43.5331 21.593 43.8229 21.1288C43.8513 21.0833 43.8682 21.0312 43.8888 20.9814C43.9516 20.9608 44.0188 20.9387 44.0823 20.9179C44.3138 22.2175 44.3679 23.5459 44.218 24.8092L44.4561 24.8761C44.3771 25.5284 44.2516 26.1652 44.0641 26.7699C43.4996 28.5899 42.5351 29.8271 41.6844 30.9189C40.6592 32.2346 39.7739 33.3708 39.8695 35.1249C39.9409 36.4333 40.612 37.7072 41.8649 38.9132L41.9318 37.421C41.1131 36.6162 40.6208 35.7339 40.4699 34.7996C40.2219 33.2697 41.0256 32.1502 42.0435 30.7324C42.9442 29.4778 44.065 27.9162 44.7855 25.5765C44.8377 25.4064 44.8953 25.218 44.9536 25.0161L45.1887 25.0822C45.5155 23.9533 45.8743 22.3561 45.5773 20.4956C45.7059 20.2935 45.8164 20.0119 45.7614 19.6714Z" fill="#1F1E1B"/>
<path d="M9.00968 20.01C7.11622 20.1517 5.83155 20.6159 5.6155 20.2038C5.51826 20.0185 5.68925 19.755 5.71249 19.7192C6.60444 18.3455 11.7007 19.8344 11.6696 20.0477C11.6568 20.1361 10.786 19.877 9.00968 20.01ZM19.0834 22.8503C19.9165 23.0954 20.5874 23.366 21.0458 23.5684C21.1604 23.4864 21.9568 22.8982 22.0372 21.837C22.1341 20.5588 21.1018 19.7884 21.0418 19.7453C20.4231 19.9597 19.4559 20.2382 18.2517 20.3372C16.0397 20.5195 14.8165 19.9493 12.1968 19.3905C8.67458 18.6396 6.19345 18.1104 5.33968 19.2202C4.6543 20.1109 5.03541 22.0356 6.13012 22.8586C7.44231 23.8454 8.68809 22.4288 13.2002 22.2164C16.0468 22.0826 17.997 22.5311 19.0834 22.8503Z" fill="#1F1E1B"/>
<path d="M20.9179 7.12254C20.94 7.13676 20.791 7.29648 20.5501 7.87541C19.7355 9.83304 19.9679 11.5411 19.6387 11.5731C19.5052 11.5859 19.3458 11.3165 19.2612 11.0945C18.631 9.44488 20.8333 7.06827 20.9179 7.12254ZM19.5163 12.2068C19.6743 12.985 20.035 14.0452 20.9784 14.8123C21.3889 15.146 21.7926 15.3287 22.057 15.428C21.9481 15.9595 21.7216 16.6839 21.1971 17.3754C20.662 18.0809 20.0959 18.3835 20.1718 18.5345C20.262 18.7136 21.1318 18.4361 22.4919 17.9954C25.0516 17.1664 25.4647 16.7946 25.6551 16.6038C25.985 16.2733 26.0984 16.0332 26.48 15.9007C27.2249 15.642 27.8118 16.2019 28.265 15.9164C28.4609 15.7929 28.6502 15.5 28.6307 14.7609C28.8354 14.5867 28.8646 14.4673 28.8522 14.3898C28.8394 14.3088 28.7789 14.2607 28.8022 14.1827C28.8264 14.1016 28.9096 14.0941 28.9329 14.0161C28.9523 13.9502 28.9155 13.8794 28.875 13.8244C28.7718 13.3782 28.8328 13.2128 28.9201 13.1507C29.0156 13.0827 29.133 13.1443 29.2858 13.0545C29.2858 13.0545 29.4461 12.9604 29.5096 12.7625C29.6351 12.3696 28.7856 12.0566 28.4512 11.2968C28.3578 11.0847 28.345 10.9319 28.3592 10.7821C30.8439 10.2878 31.8036 10.103 31.7854 9.86764C31.7712 9.68588 31.1697 9.4681 28.405 9.3508C28.2382 8.4368 27.7385 7.81545 27.6036 7.65312C27.5578 7.59767 27.5071 7.55502 27.4594 7.5043C27.3873 7.40952 27.3086 7.31591 27.2223 7.22491C25.6964 5.61089 22.5946 5.46278 20.7192 6.94268C18.9431 8.3439 18.3543 11.1352 19.3762 12.0973C19.4205 12.139 19.4675 12.1746 19.5163 12.2068Z" fill="#1F1E1B"/>
<path d="M29.1926 32.8758C28.982 32.9516 27.7433 31.376 27.9492 29.5989C28.147 27.8929 29.5988 26.6713 29.7916 26.7886C29.9586 26.8903 29.0996 27.9439 28.9189 29.7928C28.7394 31.6281 29.3686 32.8123 29.1926 32.8758ZM31.3521 24.318C31.1292 23.0051 29.7577 21.5278 28.2907 21.4326C25.3447 21.2413 24.4691 26.7813 20.2916 27.4448C18.0472 27.8015 16.0603 26.5578 15.7055 27.2292C15.4276 27.7548 16.6333 28.5394 17.2451 30.3871C17.6699 31.6696 17.6054 32.8511 17.4861 33.6448H29.9494C29.4814 32.144 29.227 30.3383 29.786 28.4986C30.4004 26.477 31.5943 25.7419 31.3521 24.318Z" fill="#1F1E1B"/>
</g>
</svg>
