<svg width="221" height="76" viewBox="0 0 221 76" fill="none" xmlns="http://www.w3.org/2000/svg">
<path d="M23.1566 47.8934V73.1437C23.1566 74.6808 24.9475 75.638 26.3519 74.8415L48.6738 62.2163C50.0336 61.4478 50.0336 59.5893 48.6738 58.8208L26.3519 46.1956C24.94 45.4061 23.1566 46.3563 23.1566 47.8934Z" fill="#E5481D"/>
<path d="M23.1566 1.8436V25.2872C23.1566 26.7143 24.9475 27.603 26.3519 26.8635L48.6738 15.1417C50.0336 14.4282 50.0336 12.7026 48.6738 11.9891L26.3519 0.267292C24.94 -0.472213 23.1566 0.409998 23.1566 1.8436Z" fill="#E5481D"/>
<path d="M0 24.9918V49.7242C0 51.2298 1.72149 52.1673 3.07164 51.3872L24.5313 39.021C25.8386 38.2682 25.8386 36.4478 24.5313 35.695L3.07164 23.3289C1.71434 22.5487 0 23.4794 0 24.9918Z" fill="#E5481D"/>
<path d="M49.5345 24.9918V49.7242C49.5345 51.2298 51.2561 52.1673 52.6063 51.3872L74.066 39.021C75.3733 38.2682 75.3733 36.4478 74.066 35.6951L52.6063 23.3289C51.249 22.5487 49.5345 23.4794 49.5345 24.9918Z" fill="#E5481D"/>
<path d="M102.108 66.9533V65.4219H103.438V67.8893H104.892V69.2506H103.438V73.0792C103.438 73.3345 103.521 73.5897 103.687 73.7599C103.854 73.9301 104.061 74.0152 104.311 74.0152C104.435 74.0152 104.518 74.0151 104.643 73.9726C104.768 73.9301 104.851 73.9301 104.934 73.8875L105.059 73.845V75.2063C104.768 75.2914 104.435 75.3765 104.02 75.3765C102.648 75.3765 101.942 74.6107 101.984 73.0792V69.2506H100.654V67.8893H101.402C101.859 67.8893 102.108 67.5489 102.108 66.9533Z" fill="#6CB2E3"/>
<path d="M110.793 69.1647C110.585 69.1222 110.378 69.0796 110.128 69.0796C109.588 69.0796 109.131 69.2498 108.799 69.6327C108.466 70.0155 108.3 70.526 108.3 71.2067V75.2055H106.845V67.8034H108.3V68.5691L108.383 68.4841C108.425 68.4415 108.508 68.3564 108.674 68.2714C108.799 68.1863 108.965 68.0586 109.131 67.9736C109.297 67.8885 109.505 67.8034 109.713 67.7609C109.921 67.7183 110.211 67.6758 110.461 67.6758H110.835V69.1647H110.793Z" fill="#6CB2E3"/>
<path d="M116.986 75.2478V74.4821L116.903 74.5672C116.861 74.6097 116.778 74.6948 116.653 74.7799C116.529 74.865 116.362 74.9926 116.196 75.0777C116.03 75.1627 115.822 75.2478 115.614 75.2904C115.365 75.3755 115.116 75.3755 114.866 75.3755C113.994 75.3755 113.329 75.0777 112.789 74.4821C112.248 73.8865 111.999 73.1208 111.999 72.1423V67.8457H113.453V72.1423C113.453 72.6528 113.62 73.1208 113.952 73.4611C114.285 73.8014 114.659 73.9716 115.157 73.9716C115.697 73.9716 116.155 73.8014 116.487 73.4186C116.819 73.0357 116.986 72.5252 116.986 71.8446V67.8457H118.44V75.2478H116.986Z" fill="#6CB2E3"/>
<path fill-rule="evenodd" clip-rule="evenodd" d="M124.424 67.804C124.175 67.7615 123.884 67.719 123.635 67.719C122.679 67.719 121.889 68.1018 121.183 68.8676C120.476 69.6333 120.144 70.5267 120.144 71.5902C120.144 72.6537 120.518 73.5471 121.183 74.3128C121.848 75.036 122.679 75.4189 123.593 75.4189C124.009 75.4189 124.383 75.3338 124.798 75.1636C125.214 74.9509 125.463 74.8233 125.588 74.6957L125.879 74.3979V75.2487H127.333V64.4858H125.879V68.7399L125.796 68.6123C125.754 68.5272 125.629 68.4421 125.505 68.3571C125.475 68.337 125.444 68.3145 125.41 68.2908C125.302 68.2141 125.175 68.1243 125.048 68.0593C124.881 67.9742 124.674 67.8891 124.424 67.804ZM123.759 74.0149C123.177 74.0149 122.679 73.7596 122.263 73.2917C121.848 72.8237 121.64 72.2281 121.598 71.5475C121.598 70.8668 121.848 70.2713 122.263 69.8033C122.72 69.3354 123.177 69.0801 123.759 69.0801C124.341 69.0801 124.84 69.3354 125.255 69.8033C125.712 70.2713 125.92 70.8668 125.92 71.5475C125.92 72.2281 125.671 72.8237 125.255 73.2917C124.798 73.7596 124.341 74.0149 123.759 74.0149Z" fill="#6CB2E3"/>
<path d="M133.025 75.2478H131.57L128.703 67.8457H130.241L132.318 73.2484L134.396 67.8457H135.934L133.025 75.2478Z" fill="#6CB2E3"/>
<path d="M141.587 68.7392L140.631 69.7177C140.59 69.6751 140.548 69.6326 140.465 69.5475C140.382 69.4624 140.257 69.3774 140.008 69.2497C139.759 69.1221 139.551 69.0796 139.302 69.0796C138.969 69.0796 138.72 69.1647 138.554 69.2923C138.387 69.4624 138.263 69.6326 138.263 69.8453C138.263 70.058 138.346 70.2282 138.512 70.3983C138.678 70.5685 138.928 70.6536 139.177 70.7387C139.426 70.8238 139.717 70.9088 140.05 71.0365C140.34 71.1641 140.631 71.2917 140.922 71.4193C141.213 71.5469 141.421 71.7597 141.587 72.0574C141.753 72.3552 141.836 72.6956 141.836 73.121C141.836 73.7591 141.587 74.3121 141.088 74.7375C140.59 75.2055 139.966 75.4182 139.177 75.4182C138.844 75.4182 138.512 75.3756 138.18 75.2906C137.847 75.2055 137.598 75.0778 137.39 74.9502C137.182 74.8226 137.016 74.695 136.85 74.5674C136.684 74.4397 136.6 74.3121 136.517 74.227L136.393 74.0994L137.348 73.121C137.39 73.206 137.473 73.2911 137.556 73.3762C137.639 73.4613 137.847 73.6315 138.18 73.8016C138.512 73.9718 138.803 74.0569 139.135 74.0569C139.509 74.0569 139.842 73.9718 140.008 73.8016C140.216 73.6315 140.299 73.4188 140.299 73.121C140.299 72.9083 140.216 72.7381 140.05 72.5679C139.883 72.4403 139.634 72.3127 139.385 72.2276C139.135 72.1425 138.844 72.0574 138.512 71.9298C138.221 71.8022 137.93 71.6746 137.639 71.5469C137.348 71.4193 137.141 71.2066 136.974 70.9088C136.808 70.611 136.725 70.2707 136.725 69.8453C136.725 69.2923 136.974 68.7818 137.432 68.3564C137.889 67.931 138.512 67.7183 139.218 67.7183C139.509 67.7183 139.759 67.7608 140.05 67.8033C140.299 67.8884 140.548 67.9735 140.714 68.0586C140.881 68.1437 141.047 68.2713 141.172 68.3564C141.296 68.4415 141.379 68.5265 141.462 68.6116L141.587 68.7392Z" fill="#6CB2E3"/>
<path fill-rule="evenodd" clip-rule="evenodd" d="M144.495 72.1H150.022L150.189 71.3342C150.189 70.2707 149.856 69.4199 149.191 68.7392C148.526 68.0586 147.695 67.7183 146.698 67.7183C145.701 67.7183 144.869 68.1011 144.163 68.8243C143.457 69.5901 143.083 70.4834 143.083 71.5044C143.083 72.5679 143.457 73.5038 144.163 74.2696C144.869 75.0353 145.742 75.4182 146.739 75.4182C147.113 75.4182 147.487 75.3756 147.82 75.248C148.194 75.1204 148.485 74.9928 148.693 74.8651C148.9 74.7375 149.15 74.5674 149.316 74.3972C149.377 74.3347 149.438 74.278 149.493 74.227C149.587 74.1391 149.664 74.0682 149.69 74.0143C149.731 73.9292 149.773 73.8867 149.815 73.8442L148.859 72.8657L148.651 73.1635C148.526 73.3337 148.277 73.5038 147.903 73.7165C147.529 73.9292 147.155 74.0143 146.739 74.0143C146.158 74.0143 145.659 73.8442 145.243 73.4613C144.828 73.0784 144.579 72.6105 144.495 72.1ZM145.327 69.5469C145.659 69.2066 146.116 69.0364 146.657 69.0364C147.197 69.0364 147.612 69.2066 147.986 69.5469C148.36 69.8872 148.568 70.3126 148.651 70.8231H144.579C144.704 70.3126 144.994 69.8872 145.327 69.5469Z" fill="#6CB2E3"/>
<path d="M160.868 75.248V70.9513C160.868 70.3557 160.743 69.8878 160.452 69.59C160.203 69.2922 159.829 69.1221 159.372 69.1221C158.914 69.1221 158.54 69.3348 158.208 69.7176C157.917 70.1005 157.751 70.611 157.751 71.2916V75.2905H156.296V70.9939C156.296 70.3983 156.172 69.9303 155.881 69.6325C155.632 69.3348 155.258 69.1646 154.8 69.1646C154.343 69.1646 153.969 69.3773 153.637 69.7602C153.346 70.143 153.18 70.6535 153.18 71.3342V75.333H151.725V67.9309H153.18V68.6966C153.221 68.6116 153.304 68.5265 153.429 68.4414C153.512 68.3563 153.762 68.1862 154.094 68.016C154.426 67.8458 154.759 67.7607 155.133 67.7607C155.424 67.7607 155.673 67.8033 155.922 67.8884C156.172 67.9734 156.38 68.0585 156.546 68.1862C156.712 68.3138 156.837 68.4414 156.961 68.569C157.086 68.6966 157.169 68.7817 157.211 68.8668L157.294 68.9944C157.294 68.9519 157.335 68.9093 157.377 68.8668C157.418 68.8243 157.502 68.6966 157.668 68.569C157.834 68.4414 158 68.3138 158.166 68.1862C158.333 68.0585 158.582 67.9734 158.831 67.8884C159.122 67.8033 159.413 67.7607 159.704 67.7607C160.535 67.7607 161.158 68.016 161.657 68.569C162.114 69.1221 162.364 69.9303 162.364 70.9939V75.2905H160.868V75.248Z" fill="#6CB2E3"/>
<path d="M165.814 73.7172C166.022 73.9299 166.105 74.1426 166.105 74.4404C166.105 74.7382 166.022 74.9509 165.814 75.1211C165.606 75.3338 165.398 75.4189 165.149 75.4189C164.9 75.4189 164.65 75.3338 164.484 75.1211C164.276 74.9084 164.193 74.6957 164.193 74.4404C164.193 74.1852 164.276 73.9299 164.484 73.7172C164.692 73.5045 164.9 73.4194 165.149 73.4194C165.398 73.4194 165.606 73.5045 165.814 73.7172Z" fill="#6CB2E3"/>
<path d="M171.756 69.1647C171.548 69.1222 171.34 69.0796 171.091 69.0796C170.551 69.0796 170.094 69.2498 169.761 69.6327C169.429 70.0155 169.262 70.526 169.262 71.2067V75.2055H167.808V67.8034H169.262V68.5691L169.346 68.4841C169.387 68.4415 169.47 68.3564 169.636 68.2714C169.803 68.1863 169.927 68.0586 170.094 67.9736C170.26 67.8885 170.468 67.8034 170.675 67.7609C170.925 67.6758 171.174 67.6758 171.423 67.6758H171.797V69.1647H171.756Z" fill="#6CB2E3"/>
<path d="M177.947 75.2478V74.482L177.822 74.6097C177.78 74.6522 177.697 74.7373 177.573 74.8224C177.448 74.9074 177.282 75.0351 177.115 75.1201C176.949 75.2052 176.741 75.2903 176.534 75.3329C176.284 75.4179 176.035 75.4179 175.786 75.4179C174.913 75.4179 174.248 75.1201 173.708 74.5246C173.168 73.929 172.918 73.1633 172.918 72.1848V67.8882H174.373V72.1848C174.373 72.6953 174.539 73.1633 174.871 73.5036C175.204 73.8439 175.578 74.0141 176.077 74.0141C176.617 74.0141 177.074 73.8439 177.406 73.4611C177.739 73.0782 177.905 72.5677 177.905 71.887V67.8882H179.359V75.2903H177.947V75.2478Z" fill="#6CB2E3"/>
<path fill-rule="evenodd" clip-rule="evenodd" d="M99.5182 7.95361V28.1017V28.1415H103.664V21.3724H108.64C109.593 21.3724 110.464 21.2131 111.293 20.8149C112.122 20.4168 112.786 19.9389 113.366 19.3018C113.947 18.6647 114.361 17.948 114.693 17.1517C114.983 16.3553 115.149 15.5191 115.149 14.6829C115.149 13.8865 114.983 13.0504 114.652 12.254C114.278 11.4576 113.822 10.7409 113.242 10.1038C112.661 9.46671 111.957 8.94907 111.127 8.55089C110.298 8.1527 109.386 7.95361 108.432 7.95361H99.5182ZM108.308 17.9087H103.581H103.54V11.3785H108.101C108.432 11.3785 108.806 11.4183 109.137 11.5776C109.51 11.7368 109.801 11.9359 110.049 12.2147C110.298 12.4934 110.505 12.8518 110.671 13.2499C110.837 13.6879 110.92 14.1259 110.92 14.6436C110.92 15.639 110.671 16.4354 110.174 17.0327C109.676 17.63 109.054 17.9087 108.308 17.9087Z" fill="#004A97"/>
<path fill-rule="evenodd" clip-rule="evenodd" d="M126.177 7.95361H122.57L114.609 28.1017H118.797L120.704 23.0846H128.043L129.992 28.1017H134.179L126.177 7.95361ZM124.394 12.4141L127.296 20.3379H121.367L124.394 12.4141Z" fill="#004A97"/>
<path fill-rule="evenodd" clip-rule="evenodd" d="M151.925 7.95361H136.625V28.1017H146.618C148.649 28.1017 150.266 27.5442 151.469 26.509C152.671 25.4339 153.293 23.9208 153.293 21.9697C153.293 21.014 153.127 20.1778 152.795 19.4213C152.464 18.7046 152.008 18.0675 151.386 17.5498C150.805 17.0322 150.059 16.6738 149.23 16.3951C148.4 16.1164 147.488 15.9969 146.452 15.9969H140.647V11.378H151.925V7.95361ZM148.401 24.0398C147.903 24.5574 147.157 24.7963 146.203 24.7963H140.648V19.1819H146.203C147.199 19.1819 147.903 19.4208 148.401 19.9385C148.898 20.4561 149.147 21.133 149.147 21.9692C149.147 22.8452 148.898 23.5221 148.401 24.0398Z" fill="#004A97"/>
<path fill-rule="evenodd" clip-rule="evenodd" d="M161.047 27.3851C162.291 27.9823 163.701 28.2611 165.235 28.2611C166.727 28.2611 168.096 27.9823 169.339 27.3851C170.583 26.8276 171.661 26.1109 172.573 25.1552C173.486 24.2394 174.19 23.1643 174.688 21.9299C175.227 20.6956 175.476 19.4214 175.476 18.0676C175.476 16.7934 175.227 15.559 174.729 14.3246C174.232 13.0903 173.527 11.9754 172.656 11.0197C171.786 10.0641 170.708 9.26771 169.464 8.67044C168.22 8.07316 166.852 7.79443 165.318 7.79443C163.825 7.79443 162.457 8.07316 161.213 8.63062C159.928 9.18808 158.85 9.94462 157.938 10.9003C157.025 11.8559 156.321 12.931 155.782 14.1654C155.243 15.3997 154.994 16.6739 154.994 18.0277C154.994 19.3019 155.243 20.5761 155.74 21.8105C156.238 23.0449 156.901 24.12 157.813 25.0756C158.725 26.0312 159.803 26.7878 161.047 27.3851ZM159.556 20.5372C159.265 19.7408 159.141 18.9046 159.141 18.0286C159.141 17.1924 159.265 16.3562 159.597 15.5599C159.846 14.7635 160.26 14.0468 160.758 13.4097C161.256 12.7726 161.877 12.255 162.665 11.8568C163.412 11.4586 164.282 11.2595 165.277 11.2595C166.231 11.2595 167.102 11.4586 167.848 11.817C168.594 12.1753 169.216 12.6531 169.755 13.2902C170.253 13.8875 170.667 14.6441 170.958 15.4404C171.248 16.2368 171.372 17.073 171.372 17.949C171.372 18.7852 171.206 19.6214 170.958 20.4177C170.667 21.2539 170.294 21.9706 169.755 22.6077C169.258 23.2448 168.594 23.7625 167.848 24.1606C167.102 24.5588 166.231 24.7579 165.236 24.7579C164.282 24.7579 163.412 24.5986 162.665 24.2005C161.919 23.8023 161.297 23.3245 160.758 22.6874C160.219 22.0901 159.846 21.3335 159.556 20.5372Z" fill="#004A97"/>
<path d="M193.346 11.378H186.629V28.1017H182.566V11.378H175.849V7.95361H193.346V11.378Z" fill="#004A97"/>
<path fill-rule="evenodd" clip-rule="evenodd" d="M203.462 7.95361H199.855L191.894 28.1017H196.082L197.989 23.0846H205.328L207.276 28.1017H211.464L203.462 7.95361ZM201.637 12.4141L204.539 20.3379H198.61L201.637 12.4141Z" fill="#004A97"/>
<path fill-rule="evenodd" clip-rule="evenodd" d="M99.5182 36.981V57.129V57.1689H103.664V50.3997H108.64C109.593 50.3997 110.464 50.2405 111.293 49.8423C112.122 49.4441 112.786 48.9663 113.366 48.3292C113.947 47.6921 114.361 46.9754 114.693 46.179C114.983 45.3826 115.149 44.5464 115.149 43.7103C115.149 42.9139 114.983 42.0777 114.652 41.2813C114.278 40.485 113.822 39.7682 113.242 39.1311C112.661 38.4941 111.957 37.9764 111.127 37.5782C110.298 37.18 109.386 36.981 108.432 36.981H99.5182ZM108.308 46.9356H103.581H103.54V40.4054H108.101C108.432 40.4054 108.806 40.4452 109.137 40.6045C109.51 40.7637 109.801 40.9628 110.049 41.2416C110.298 41.5203 110.505 41.8787 110.671 42.2768C110.837 42.7148 110.92 43.1528 110.92 43.6705C110.92 44.6659 110.671 45.4623 110.174 46.0596C109.676 46.6569 109.054 46.9356 108.308 46.9356Z" fill="#004A97"/>
<path fill-rule="evenodd" clip-rule="evenodd" d="M122.738 56.4114C123.982 57.0087 125.391 57.2874 126.925 57.2874C128.418 57.2874 129.786 57.0087 131.03 56.4114C132.274 55.854 133.352 55.1372 134.264 54.1816C135.176 53.2658 135.881 52.1907 136.379 50.9563C136.918 49.7219 137.166 48.4478 137.166 47.0939C137.166 45.8197 136.918 44.5854 136.42 43.351C135.922 42.1166 135.218 41.0017 134.347 40.0461C133.476 39.0904 132.398 38.2941 131.154 37.6968C129.911 37.0995 128.542 36.8208 127.008 36.8208C125.516 36.8208 124.147 37.0995 122.904 37.657C121.618 38.2144 120.54 38.971 119.628 39.9266C118.716 40.8823 118.011 41.9574 117.472 43.1917C116.933 44.4261 116.684 45.7003 116.684 47.0541C116.684 48.3283 116.933 49.6025 117.431 50.8369C117.928 52.0712 118.592 53.1463 119.504 54.102C120.416 55.0576 121.494 55.8141 122.738 56.4114ZM121.244 49.5636C120.954 48.7672 120.829 47.931 120.829 47.055C120.829 46.2188 120.995 45.4225 121.285 44.5863C121.534 43.7899 121.949 43.0732 122.446 42.4361C122.944 41.799 123.566 41.2814 124.353 40.8832C125.1 40.485 125.97 40.2859 126.966 40.2859C127.919 40.2859 128.79 40.485 129.536 40.8434C130.282 41.2017 130.904 41.6796 131.443 42.3166C131.941 42.9139 132.356 43.6705 132.646 44.4668C132.936 45.2632 133.06 46.0994 133.06 46.9754C133.06 47.8116 132.895 48.6478 132.646 49.4441C132.356 50.2803 131.982 50.997 131.443 51.6341C130.946 52.2712 130.282 52.7889 129.536 53.1871C128.79 53.5852 127.919 53.7843 126.924 53.7843C125.97 53.7843 125.1 53.6251 124.353 53.2269C123.607 52.8287 122.985 52.3509 122.446 51.7138C121.907 51.1165 121.534 50.3599 121.244 49.5636Z" fill="#004A97"/>
<path d="M139.031 46.8948C139.031 45.6605 139.28 44.4659 139.736 43.2316C140.192 42.037 140.855 40.9619 141.768 40.0063C142.638 39.0506 143.758 38.2941 145.002 37.6968C146.287 37.0995 147.738 36.8208 149.396 36.8208C151.345 36.8208 153.004 37.219 154.413 38.0552C155.823 38.8515 156.86 39.9266 157.564 41.2406L154.413 43.3112C154.123 42.7537 153.791 42.2759 153.418 41.8777C153.004 41.4795 152.589 41.2008 152.133 40.9619C151.677 40.723 151.221 40.5637 150.723 40.4841C150.226 40.3646 149.728 40.3248 149.272 40.3248C148.236 40.3248 147.365 40.5239 146.577 40.9221C145.831 41.3203 145.167 41.8379 144.67 42.475C144.172 43.1121 143.799 43.8288 143.55 44.6252C143.302 45.4216 143.177 46.2179 143.177 47.0143C143.177 47.8903 143.343 48.7663 143.633 49.6025C143.924 50.4387 144.338 51.1554 144.877 51.7925C145.416 52.4296 146.08 52.9074 146.826 53.3056C147.572 53.7038 148.401 53.8631 149.314 53.8631C149.77 53.8631 150.267 53.8232 150.806 53.7038C151.304 53.5843 151.801 53.4251 152.257 53.1463C152.713 52.9074 153.169 52.5889 153.543 52.1907C153.957 51.7925 154.247 51.3147 154.496 50.797L157.855 52.6287C157.523 53.3852 157.025 54.0621 156.403 54.6196C155.782 55.1771 155.077 55.6947 154.289 56.0929C153.501 56.4911 152.672 56.8096 151.801 57.0087C150.931 57.2078 150.06 57.3272 149.189 57.3272C147.697 57.3272 146.328 57.0087 145.085 56.4114C143.841 55.8141 142.763 55.0178 141.892 54.0223C140.98 53.0667 140.275 51.9518 139.777 50.7174C139.28 49.483 139.031 48.2088 139.031 46.8948Z" fill="#004A97"/>
<path d="M159.098 46.8948C159.098 45.6605 159.347 44.4659 159.803 43.2316C160.259 42.037 160.923 40.9619 161.835 40.0063C162.706 39.0506 163.825 38.2941 165.069 37.6968C166.354 37.0995 167.805 36.8208 169.464 36.8208C171.413 36.8208 173.071 37.219 174.481 38.0552C175.89 38.8515 176.927 39.9266 177.632 41.2406L174.481 43.3112C174.19 42.7537 173.859 42.2759 173.486 41.8777C173.071 41.4795 172.656 41.2008 172.2 40.9619C171.744 40.723 171.288 40.5637 170.791 40.4841C170.293 40.3646 169.796 40.3248 169.339 40.3248C168.303 40.3248 167.432 40.5239 166.644 40.9221C165.898 41.3203 165.235 41.8379 164.737 42.475C164.24 43.1121 163.867 43.8288 163.618 44.6252C163.369 45.4216 163.245 46.2179 163.245 47.0143C163.245 47.8903 163.41 48.7663 163.701 49.6025C163.991 50.4387 164.406 51.1554 164.945 51.7925C165.484 52.4296 166.147 52.9074 166.893 53.3056C167.64 53.7038 168.469 53.8631 169.381 53.8631C169.837 53.8631 170.335 53.8232 170.874 53.7038C171.371 53.5843 171.869 53.4251 172.325 53.1463C172.781 52.9074 173.237 52.5889 173.61 52.1907C174.025 51.7925 174.315 51.3147 174.564 50.797L177.922 52.6287C177.59 53.3852 177.093 54.0621 176.471 54.6196C175.849 55.1771 175.144 55.6947 174.356 56.0929C173.569 56.4911 172.739 56.8096 171.869 57.0087C170.998 57.2078 170.127 57.3272 169.257 57.3272C167.764 57.3272 166.396 57.0087 165.152 56.4114C163.908 55.8141 162.83 55.0178 161.959 54.0223C161.047 53.0667 160.342 51.9518 159.845 50.7174C159.347 49.483 159.098 48.2088 159.098 46.8948Z" fill="#004A97"/>
<path d="M184.805 51.1165L195.502 36.981H198.611V57.129H194.548V43.3121L183.976 57.129H180.742V36.981H184.805V51.1165Z" fill="#004A97"/>
<path d="M207.193 51.1165L217.89 36.981H221V57.129H216.937V43.3121L206.364 57.129H203.13V36.981H207.193V51.1165Z" fill="#004A97"/>
</svg>