<svg xmlns="http://www.w3.org/2000/svg" version="1.1" xmlns:xlink="http://www.w3.org/1999/xlink" xmlns:svgjs="http://svgjs.dev/svgjs" width="33" height="36"><svg width="33" height="36" viewBox="0 0 33 36" fill="none" xmlns="http://www.w3.org/2000/svg">
<path d="M29.1688 23.2913V26.5009C29.1688 27.5445 28.1056 28.3927 26.7896 28.4033C28.0642 25.8316 27.8391 23.2978 27.4618 21.47C28.4497 21.7069 29.1688 22.433 29.1688 23.2913Z" fill="#013F69"></path>
<path d="M6.18962 28.6367C6.10966 28.6521 6.02555 28.6604 5.93967 28.6604H5.8295C4.59162 28.6604 3.58887 27.8087 3.58887 26.7585V23.5483C3.58887 22.6445 4.33101 21.8875 5.32724 21.6945C4.97364 23.5673 4.88184 26.2628 6.18962 28.6367Z" fill="#013F69"></path>
<path d="M23.8928 19.4029C23.538 19.2151 23.0322 18.9148 22.7242 18.5914C22.7325 18.5903 22.7402 18.5891 22.7485 18.5879C22.7485 18.5879 22.5667 17.215 21.4508 16.7992C21.7262 17.7225 18.3442 7.56239 16.456 0.65214C16.4228 0.530128 13.3092 13.8306 11.3724 16.978C11.1378 17.2144 10.4407 17.9672 10.5266 18.489C10.5266 18.489 10.0427 18.7792 9.83064 19.0961C9.81168 19.1245 9.7951 19.1529 9.78148 19.1814C9.77674 19.1908 9.77259 19.2003 9.76845 19.2098C9.76253 19.224 9.7566 19.2382 9.75186 19.2524C9.74594 19.2708 9.7412 19.2886 9.73824 19.3069C9.73706 19.3146 9.73528 19.3229 9.73469 19.3306C9.73232 19.3531 9.73232 19.3756 9.73469 19.3975C9.73528 19.4023 9.73646 19.407 9.73706 19.4118C9.7412 19.436 9.74772 19.4597 9.75897 19.4828C9.75897 19.4828 11.0377 20.4275 16.1403 20.4275C21.2429 20.4275 24.2967 19.6025 24.2967 19.6025C24.2967 19.6025 24.1279 19.5273 23.8928 19.4029Z" fill="white"></path>
<path d="M16.1396 21.079C13.9712 21.079 12.2008 20.9138 10.8794 20.5874C9.87374 20.3393 9.47098 20.0798 9.37147 20.0064C9.28618 19.9436 9.21807 19.8607 9.17187 19.7653C9.13633 19.6913 9.11146 19.6137 9.09606 19.5284C9.09251 19.5101 9.08954 19.4917 9.08717 19.4733C9.07888 19.404 9.07829 19.3324 9.08599 19.2601C9.08777 19.2423 9.09132 19.2198 9.09487 19.1967C9.10435 19.1434 9.1162 19.0955 9.1316 19.0493C9.14344 19.0119 9.15766 18.9782 9.16773 18.9533C9.17779 18.9308 9.18668 18.9107 9.19675 18.8911C9.22222 18.8396 9.25242 18.7869 9.28618 18.7365C9.28678 18.7353 9.28737 18.7348 9.28796 18.7336C9.45143 18.4895 9.69783 18.2769 9.89447 18.13C10.007 17.562 10.4441 16.9982 10.8534 16.5759C12.3673 14.0284 14.7169 4.79401 15.4928 1.74253C15.5929 1.34925 15.6729 1.03534 15.7291 0.81915C15.7587 0.706022 15.7824 0.618363 15.799 0.559134C15.9358 0.0764176 16.2646 0.00119653 16.4482 1.19441e-05C16.7419 -0.00176493 17.0049 0.194876 17.0825 0.48036C18.6787 6.32271 21.3968 14.6432 21.9648 16.3188C22.9148 16.8246 23.2477 17.841 23.3513 18.287C23.5539 18.4552 23.8459 18.6418 24.1965 18.8272C24.4068 18.9385 24.5596 19.0072 24.5614 19.0078C24.8125 19.1203 24.9665 19.3786 24.9446 19.6534C24.9232 19.9282 24.7313 20.1592 24.4654 20.2309C24.3381 20.2658 21.2694 21.079 16.1396 21.079ZM10.6674 19.1796C11.5203 19.4574 13.2616 19.7766 16.1396 19.7766C18.8073 19.7766 21.0408 19.5373 22.5292 19.2968C22.425 19.211 22.3326 19.1257 22.252 19.041C22.1229 18.9053 22.0607 18.7235 22.0743 18.5417C22.0133 18.2971 21.8392 17.7758 21.4193 17.5081C21.3813 17.5052 21.3429 17.4992 21.3049 17.4898C20.9638 17.4027 20.8672 17.1279 20.8098 16.9632C20.7837 16.8892 20.7464 16.7802 20.699 16.6398C20.5978 16.3401 20.4615 15.9309 20.3058 15.4564C20.0771 14.7605 19.6039 13.3123 19.0063 11.4289C18.2801 9.14024 17.32 6.05263 16.4796 3.14211C13.7941 13.5647 12.5977 16.2288 11.926 17.3198C11.9 17.3624 11.8686 17.4015 11.8336 17.437C11.3906 17.8836 11.1774 18.268 11.1697 18.393C11.2082 18.653 11.0867 18.9119 10.8605 19.0475C10.8066 19.0801 10.7379 19.1269 10.6674 19.1796Z" fill="#013F69"></path>
<path d="M9.8271 21.7856C9.51319 21.7856 9.19928 21.7832 8.88596 21.7779C6.83722 21.7453 4.99697 21.6008 3.56422 21.3603C1.94786 21.0897 0.953998 20.7195 0.525772 20.2291C0.258649 19.9229 0.189351 19.5586 0.329724 19.2026C0.622315 18.4629 1.47107 17.9736 2.85111 17.748C4.14704 17.5365 5.66271 17.5898 6.70692 17.6722L7.46446 17.732L7.11678 18.4078C7.10494 18.4303 7.09724 18.4475 7.09013 18.4635C7.08184 18.4836 7.07236 18.5138 7.06348 18.544L7.02202 18.6785L6.86624 18.8171C6.839 18.8413 6.83011 18.8781 6.83011 18.9035C6.83071 18.9379 6.84551 18.9503 6.85144 18.9551C6.93554 19.0249 7.06644 19.0409 7.15647 18.9918L7.24294 18.945L7.34067 18.9337C7.35192 18.9325 7.35962 18.932 7.36791 18.9302C7.91519 18.8307 8.46839 18.7726 9.00323 18.7164C9.20164 18.6956 9.40006 18.6749 9.59848 18.6518C9.75544 18.6334 9.83717 18.5736 9.85198 18.5399L10.0237 18.1466L10.4395 18.2526C10.6753 18.3124 10.8879 18.374 11.0709 18.4344L11.1053 18.4457L11.1378 18.4623C11.1408 18.4635 11.8794 18.8088 13.7682 18.9959C16.9233 19.3092 20.807 18.9509 23.5084 18.5955C28.3018 17.9642 31.2538 18.162 32.2838 19.1825C32.5977 19.494 32.6812 19.8399 32.654 20.0603L31.6506 19.9371C31.6447 19.9868 31.6495 20.007 31.6495 20.0081C31.6459 19.9939 31.0838 18.618 23.6405 19.5983C22.9416 19.6901 22.2771 19.7683 21.6457 19.834L21.8074 20.4897C18.4319 21.3213 14.1123 21.7856 9.8271 21.7856ZM1.27857 19.5556C1.45745 19.8091 3.05959 20.6336 8.53354 20.7598C12.0245 20.8403 15.7056 20.5833 18.8601 20.0585C17.9824 20.1071 17.1881 20.1278 16.4726 20.1278C12.5741 20.1278 11.001 19.5088 10.7268 19.3857C10.6581 19.3631 10.5846 19.3406 10.5065 19.3181C10.3039 19.5 10.0291 19.6202 9.71398 19.6569C9.51201 19.68 9.31004 19.7013 9.10806 19.7227C8.5679 19.7795 8.05793 19.8328 7.54797 19.9252H7.54738C7.11027 20.1171 6.58372 20.0455 6.20702 19.7333C5.96715 19.5343 5.82559 19.2388 5.81967 18.9225C5.81789 18.8236 5.82855 18.7258 5.85165 18.6317C4.75414 18.5819 3.78396 18.6204 3.01458 18.746C2.05507 18.9029 1.44027 19.1902 1.27857 19.5556Z" fill="#013F69"></path>
<path d="M26.349 21.3302C26.5474 19.1268 26.0635 17.0988 24.8547 15.274C24.6491 14.9636 24.4638 14.9429 24.1842 15.0637C22.758 15.6815 21.4395 16.4805 20.3456 17.6574C20.146 17.8718 19.9339 17.8949 19.6792 17.8114C18.7878 17.52 17.8739 17.3612 16.9429 17.3245C15.6481 17.273 14.3735 17.3985 13.1315 17.8291C12.9745 17.8836 12.7684 17.9452 12.6073 17.7344C12.3129 17.3494 11.9143 17.0852 11.5566 16.7743C10.6587 15.993 9.63162 15.46 8.55543 15.0246C8.35997 14.9453 8.24507 14.9577 8.09463 15.1745C7.28437 16.3383 6.8064 17.6254 6.57422 19.0575" fill="white"></path>
<path d="M26.6937 21.3616L26.0043 21.2994C26.1968 19.16 25.7129 17.1972 24.5662 15.4653C24.4957 15.3593 24.4578 15.3415 24.4566 15.3415C24.4566 15.3415 24.456 15.3415 24.4548 15.3415C24.4471 15.3415 24.4104 15.3433 24.3222 15.3818C22.7366 16.0689 21.5538 16.8667 20.5996 17.8931C20.3236 18.1899 19.9783 18.2734 19.572 18.1401C18.7286 17.8641 17.8395 17.706 16.9298 17.6698C15.5515 17.6153 14.3462 17.7741 13.2457 18.1561C13.0988 18.207 12.6523 18.3622 12.333 17.9447C12.1464 17.7006 11.9042 17.5052 11.6477 17.2985C11.5435 17.2144 11.4351 17.1273 11.3303 17.0355C10.5757 16.3786 9.6529 15.842 8.42627 15.3457C8.41857 15.3427 8.41146 15.3398 8.40494 15.3374C8.39784 15.3463 8.38895 15.3575 8.37888 15.3723C7.62786 16.4509 7.14929 17.6746 6.91593 19.1132L6.23242 19.0025C6.48237 17.459 6.99885 16.1423 7.81028 14.9767C8.04246 14.6426 8.32084 14.5562 8.6851 14.7036C9.98518 15.2296 10.9696 15.8041 11.784 16.5131C11.8793 16.596 11.9776 16.6754 12.0819 16.7595C12.3585 16.9828 12.6452 17.2144 12.8821 17.5241C12.8862 17.5295 12.8892 17.533 12.8915 17.5354C12.9229 17.5348 12.9934 17.5099 13.0177 17.5016C14.2017 17.0912 15.4893 16.9194 16.9564 16.978C17.9302 17.0165 18.882 17.1859 19.7864 17.4821C19.9487 17.5354 20.0073 17.5123 20.0914 17.4217C21.1131 16.3224 22.3694 15.4724 24.0462 14.7463C24.5034 14.5485 24.8617 14.6586 25.1425 15.0827C26.3792 16.949 26.901 19.0611 26.6937 21.3616Z" fill="#013F69"></path>
<path d="M6.54263 19.8045C6.05399 20.8439 4.91323 25.0142 6.79139 28.3536C6.99158 28.7089 7.19296 29.072 7.43817 29.3948C8.33845 30.5794 9.50112 31.3618 10.832 31.8872C11.6132 32.1952 12.4146 32.4291 13.229 32.5831C14.548 32.8325 15.8866 32.7839 17.221 32.7774C18.8356 32.7697 20.3945 32.4807 21.9214 31.9061C23.7013 31.2363 25.1074 30.1328 26.0651 28.3595C28.0481 24.6891 26.6367 20.9896 26.3316 19.5326" fill="white"></path>
<path d="M15.9906 33.1309C15.0566 33.1309 14.1047 33.1001 13.1648 32.9225C12.3373 32.7661 11.5099 32.5256 10.7056 32.2087C9.20354 31.6165 8.04443 30.7647 7.16251 29.6039C6.91197 29.2739 6.70881 28.9121 6.51217 28.5626L6.48966 28.5229C4.48654 24.9609 5.77477 20.6235 6.22965 19.6569L6.85629 19.9519C6.45946 20.7959 5.25414 24.9129 7.09321 28.1835L7.11571 28.2232C7.3011 28.5525 7.49241 28.8931 7.71393 29.1851C8.51707 30.2418 9.57846 31.02 10.9591 31.5643C11.7231 31.8658 12.5085 32.0933 13.2933 32.2419C14.4145 32.454 15.5867 32.4439 16.7197 32.4338C16.8861 32.4326 17.0526 32.4309 17.2196 32.4303C18.8028 32.4226 20.3013 32.1448 21.7998 31.5809C23.6003 30.9033 24.8957 29.7958 25.761 28.1936C27.4117 25.138 26.6039 22.0065 26.1697 20.3244C26.098 20.0467 26.0358 19.8068 25.9932 19.6024L26.6708 19.4609C26.7105 19.6498 26.7703 19.882 26.8396 20.1515C27.2974 21.926 28.1497 25.228 26.3699 28.5229C25.4216 30.2779 24.0067 31.4903 22.0432 32.2289C20.4885 32.8141 18.8662 33.115 17.2226 33.1227C17.0567 33.1232 16.8915 33.125 16.7256 33.1262C16.4828 33.1286 16.237 33.1309 15.9906 33.1309Z" fill="#013F69"></path>
<path d="M12.0132 26.1585C12.1624 26.1585 12.2833 26.0376 12.2833 25.8884C12.2833 25.7393 12.1624 25.6183 12.0132 25.6183C11.8641 25.6183 11.7432 25.7393 11.7432 25.8884C11.7432 26.0376 11.8641 26.1585 12.0132 26.1585Z" fill="white"></path>
<path d="M17.3267 27.6564C17.1585 27.8904 16.9683 28.1095 16.7557 28.3139C16.6325 28.4323 16.4365 28.4323 16.3133 28.3139C16.1006 28.1095 15.9099 27.8898 15.7417 27.6558C15.6191 27.4847 15.692 27.2424 15.8898 27.1696C16.1107 27.0878 16.3482 27.0316 16.5348 27.0393C16.7208 27.031 16.9583 27.0872 17.1792 27.1696C17.3764 27.243 17.4499 27.4853 17.3267 27.6564Z" fill="#013F69"></path>
<path d="M13.1692 29.21C10.8267 29.2906 8.45105 29.2456 6.11328 29.0744C8.45579 28.9933 10.8315 29.04 13.1692 29.21Z" fill="#013F69"></path>
<path d="M12.4752 30.0392C11.5578 30.3111 10.6338 30.5966 9.73705 30.9295C8.83855 31.2576 7.94952 31.6384 7.07471 32.0258C8.65138 31.0278 10.6279 30.3016 12.4752 30.0392Z" fill="#013F69"></path>
<path d="M12.4557 30.8441C12.0399 31.5282 11.5554 32.2052 11.0815 32.8514C10.6006 33.4928 10.0942 34.1532 9.56055 34.7497C9.97574 34.0656 10.4608 33.3886 10.9347 32.7424C11.4156 32.101 11.922 31.4411 12.4557 30.8441Z" fill="#013F69"></path>
<path d="M19.7007 29.21C22.0385 29.0395 24.4141 28.9933 26.7566 29.0744C24.4189 29.2462 22.0432 29.2906 19.7007 29.21Z" fill="#013F69"></path>
<path d="M20.394 30.0392C22.2414 30.3022 24.2179 31.0277 25.7951 32.0257C24.9197 31.639 24.0313 31.2575 23.1328 30.9294C22.2355 30.5965 21.3121 30.311 20.394 30.0392Z" fill="#013F69"></path>
<path d="M20.4141 30.8441C20.9477 31.4406 21.4547 32.1015 21.9351 32.7424C22.4089 33.3892 22.8934 34.0656 23.3092 34.7497C22.7755 34.1532 22.2685 33.4928 21.7882 32.8514C21.3143 32.2052 20.8299 31.5288 20.4141 30.8441Z" fill="#013F69"></path>
<path d="M17.061 27.2892C16.708 27.2472 16.3603 27.2483 16.0073 27.2916C16.3313 27.1346 16.7352 27.134 17.061 27.2892Z" fill="white"></path>
<path d="M14.8777 34.6828C12.0389 34.6828 10.2194 34.3025 8.79431 33.4123C7.14596 32.3823 5.96908 30.6025 5.09131 27.8104L5.65932 27.6315C6.49208 30.2803 7.58841 31.9564 9.10941 32.9065C10.4332 33.7333 12.1585 34.0863 14.8777 34.0863V34.6828Z" fill="#013F69"></path>
<path d="M16.157 35.1472H15.1524C14.6502 35.1472 14.2427 34.7397 14.2427 34.2374C14.2427 33.7351 14.6502 33.3276 15.1524 33.3276H16.157C16.6592 33.3276 17.0667 33.7351 17.0667 34.2374C17.0667 34.7402 16.6598 35.1472 16.157 35.1472Z" fill="#013F69"></path>
<path d="M13.9303 25.8046C14.2446 24.3527 13.5814 22.977 12.449 22.7318C11.3165 22.4867 10.1437 23.4649 9.82937 24.9167C9.51506 26.3686 10.1783 27.7443 11.3107 27.9894C12.4432 28.2346 13.616 27.2564 13.9303 25.8046Z" fill="#013F69"></path>
<path d="M11.1454 23.9212C11.2597 23.7431 11.2397 23.5264 11.1007 23.4372C10.9616 23.3479 10.7563 23.42 10.642 23.5981C10.5277 23.7763 10.5478 23.993 10.6868 24.0822C10.8258 24.1714 11.0312 24.0993 11.1454 23.9212Z" fill="white"></path>
<path d="M13.0883 25.481C13.4595 25.481 13.7605 25.1378 13.7605 24.7145C13.7605 24.2913 13.4595 23.9481 13.0883 23.9481C12.717 23.9481 12.416 24.2913 12.416 24.7145C12.416 25.1378 12.717 25.481 13.0883 25.481Z" fill="white"></path>
<path d="M10.062 26.1129C10.2148 26.4973 10.4198 26.8728 10.7449 27.1269C11.3976 27.6535 12.3228 27.4414 12.9003 26.8924C13.1994 26.6164 13.4274 26.2616 13.5986 25.8707C13.5293 26.2918 13.3409 26.704 13.0418 27.0321C11.9609 28.2067 10.2581 27.7364 10.062 26.1129Z" fill="white"></path>
<path d="M21.6716 28.2837C22.8041 28.0386 23.4673 26.6629 23.153 25.211C22.8387 23.7592 21.6658 22.781 20.5334 23.0261C19.4009 23.2713 18.7377 24.647 19.052 26.0988C19.3663 27.5507 20.5392 28.5289 21.6716 28.2837Z" fill="#013F69"></path>
<path d="M22.2862 24.3794C22.4252 24.2902 22.4453 24.0735 22.331 23.8954C22.2167 23.7172 22.0114 23.6452 21.8723 23.7344C21.7333 23.8236 21.7133 24.0403 21.8275 24.2184C21.9418 24.3965 22.1472 24.4686 22.2862 24.3794Z" fill="white"></path>
<path d="M21.7672 25.154C22.2376 25.154 22.619 24.7727 22.619 24.3023C22.619 23.8319 22.2376 23.4506 21.7672 23.4506C21.2969 23.4506 20.9155 23.8319 20.9155 24.3023C20.9155 24.7727 21.2969 25.154 21.7672 25.154Z" fill="white"></path>
<path d="M22.9155 26.4091C22.7194 28.0337 21.0154 28.5016 19.9357 27.3289C19.6366 27.0008 19.4482 26.5885 19.3789 26.1674C19.5507 26.5583 19.7781 26.9131 20.0772 27.1891C20.6541 27.7382 21.5799 27.9502 22.2326 27.4237C22.5577 27.169 22.7627 26.7935 22.9155 26.4091Z" fill="white"></path>
<path d="M15.7489 29.8645C15.637 29.8645 15.5244 29.8431 15.4178 29.7999C15.1939 29.7093 15.0044 29.5257 14.8972 29.2953C14.8676 29.2313 14.8948 29.1555 14.9588 29.1253C15.0228 29.0957 15.0986 29.1229 15.1288 29.1869C15.2093 29.3592 15.3491 29.4961 15.5138 29.5624C15.682 29.6305 15.8792 29.621 16.0285 29.5381C16.2038 29.441 16.3323 29.2408 16.3809 28.9891C16.4277 28.7486 16.4016 28.4921 16.3767 28.244C16.3696 28.1735 16.4206 28.1113 16.4911 28.1042C16.5598 28.0971 16.6237 28.148 16.6308 28.2185C16.6575 28.485 16.6853 28.7604 16.6314 29.0376C16.5681 29.364 16.3933 29.6275 16.1523 29.7614C16.0303 29.8301 15.8905 29.8645 15.7489 29.8645Z" fill="#013F69"></path>
<path d="M17.3534 29.8645C17.2118 29.8645 17.072 29.8301 16.95 29.7626C16.7084 29.6288 16.5337 29.3646 16.4709 29.0388C16.417 28.7611 16.446 28.4732 16.4715 28.2197C16.4786 28.1492 16.5414 28.0983 16.6112 28.1054C16.6817 28.1125 16.7327 28.1753 16.7256 28.2452C16.7007 28.4933 16.6746 28.7498 16.7214 28.9903C16.77 29.242 16.8985 29.4422 17.0738 29.5393C17.2231 29.6223 17.4209 29.6317 17.5891 29.5636C17.7538 29.4973 17.8936 29.3605 17.9741 29.1881C18.0037 29.1241 18.0801 29.0963 18.1441 29.1259C18.2081 29.1555 18.2359 29.2319 18.2063 29.2959C18.0991 29.5263 17.909 29.7099 17.6857 29.8005C17.5779 29.8432 17.4647 29.8645 17.3534 29.8645Z" fill="#013F69"></path>
<path d="M26.5271 18.7182C26.4572 19.1612 25.984 19.2032 25.4569 18.9314C25.1986 18.7981 24.7153 18.7507 24.4286 18.698C24.0964 18.637 23.7688 18.5582 23.4318 18.5577C23.2713 18.5577 23.0101 18.502 22.9053 18.4303C13.107 19.3187 11.0885 18.8751 11.0885 18.8751C10.9102 18.82 10.7053 18.7655 10.4784 18.7116C10.3724 18.9373 10.1088 19.0712 9.80558 19.1037C9.05575 19.1843 8.30294 19.2382 7.5608 19.3638C7.54007 19.3673 7.51993 19.3691 7.50039 19.3715C7.22142 19.513 6.86071 19.4751 6.61314 19.2844C6.32588 19.0629 6.34364 18.6483 6.61314 18.4238C6.63091 18.409 6.64808 18.3948 6.66585 18.38C6.67888 18.3403 6.6925 18.3006 6.70968 18.2615C6.72449 18.2289 6.7393 18.1999 6.75469 18.1727C4.0805 17.9766 1.25765 18.1644 0.763676 19.3264C0.398233 20.1865 2.50856 21.0488 5.73714 21.5558C6.73752 21.6453 7.73849 21.7187 8.74361 21.7377C9.61368 21.7542 10.4855 21.7525 11.3538 21.8188C11.9532 21.8644 12.5799 21.9384 13.1781 21.8395C13.2219 21.759 13.3001 21.6962 13.4132 21.6849C14.7548 21.5523 16.104 21.5398 17.4485 21.4439C19.7863 21.2769 21.976 20.4779 24.2581 20.0165C26.5716 19.5486 28.9093 20.0502 31.2406 19.9608C31.3063 19.9584 31.3602 19.9744 31.4023 20.0023C31.609 20.0129 31.8157 20.033 32.0218 20.068C32.1266 20.0858 32.1882 20.1444 32.2149 20.2167C32.4151 20.2593 32.5128 20.2901 32.5128 20.2901C32.5128 20.2901 33.1252 18.5263 26.5271 18.7182Z" fill="#A1BCD5"></path>
<path d="M31.7698 19.7434C31.0561 19.6256 30.343 19.5551 29.6085 19.5338C28.0573 19.4893 26.473 19.5095 24.9324 19.6475C23.4458 19.7807 22.0018 20.0875 20.5477 20.3233C19.1143 20.5555 17.6674 20.7533 16.2062 20.8865C14.6129 21.0317 13.0232 21.1098 11.4187 21.1685C9.95456 21.2224 8.47443 21.281 7.01088 21.1827C5.65749 21.0915 4.36097 20.8818 3.05911 20.6259C2.24057 20.4648 1.36457 20.2267 0.79834 19.7867C1.76792 21.5256 12.0193 23.0064 20.014 21.1572C27.7322 19.3726 31.4055 20.0733 32.1329 20.2528C32.2644 20.2854 32.4059 20.2558 32.5037 20.1616C32.5611 20.1065 32.5824 20.0408 32.5605 19.9395C32.3041 19.8595 32.0429 19.7884 31.7698 19.7434Z" fill="#013F69"></path>
<path d="M11.0517 18.1999C10.8243 18.3545 10.556 18.3569 10.4529 18.2052C10.3493 18.053 10.45 17.8049 10.6768 17.6497C10.9042 17.4951 11.1726 17.4927 11.2756 17.6443C11.3799 17.7966 11.2792 18.0453 11.0517 18.1999Z" fill="white"></path>
<path d="M11.0889 19.0208C11.2553 17.6923 8.92226 16.5841 8.2583 16.429C8.39749 16.1601 8.49877 15.9877 8.50884 15.9688C9.01939 16.0078 12.2018 17.4364 11.0889 19.0208Z" fill="#013F69"></path>
<path d="M11.1375 19.157C9.67276 18.9456 8.60664 19.2465 6.76758 19.6244C6.87419 17.9245 7.94091 17.0366 8.25778 16.429C8.92174 16.5841 11.3039 17.8285 11.1375 19.157Z" fill="white"></path>
<path d="M21.7579 19.0208C21.5915 17.6923 23.9245 16.5841 24.5885 16.429C24.4493 16.1601 24.348 15.9877 24.3379 15.9688C23.8274 16.0078 20.645 17.4364 21.7579 19.0208Z" fill="#013F69"></path>
<path d="M22.748 18.5884C24.2501 18.4724 24.4414 18.6406 25.5377 19.0759C25.4222 18.1383 24.9052 17.0366 24.5883 16.429C23.9243 16.5841 22.5816 17.2599 22.748 18.5884Z" fill="white"></path>
<path d="M24.2968 19.6019C24.2968 19.6019 21.2417 20.4269 16.1391 20.4269C11.0366 20.4269 9.75721 19.4822 9.75721 19.4822C9.74714 19.4591 9.74003 19.436 9.7353 19.4112C9.7353 19.407 9.73411 19.4023 9.73233 19.397C9.73115 19.375 9.73115 19.3537 9.73233 19.3306C9.73352 19.3235 9.7353 19.3146 9.73648 19.3075C9.73944 19.2886 9.74359 19.2714 9.74951 19.2524C9.75366 19.2382 9.75958 19.2252 9.7655 19.2104C9.76965 19.2003 9.77439 19.1914 9.77853 19.1814C9.79275 19.1541 9.80874 19.1251 9.82769 19.0961C9.82769 19.0961 10.4383 19.0866 10.4395 19.0866C10.4727 19.0374 10.2873 19.0931 10.3311 19.0463C10.5325 18.8278 10.4283 18.5506 10.5053 18.5008C10.5183 18.4937 10.5254 18.489 10.5254 18.489C10.4383 17.9666 11.1361 17.2144 11.3706 16.978C13.2849 13.8656 16.3518 0.825091 16.4542 0.65155C18.3425 7.5618 21.7244 17.7231 21.4496 16.7986C22.0644 17.0284 22.3446 17.6207 22.5157 18.04C22.5667 18.1585 22.6555 18.1976 22.6816 18.2917C22.7325 18.47 22.7479 18.5867 22.7479 18.5867C22.745 18.5879 22.7361 18.6157 22.723 18.656C22.684 18.7792 22.6129 19.0191 22.6075 19.0191C22.9144 19.3431 23.5368 19.2145 23.891 19.4011C24.128 19.5267 24.2968 19.6019 24.2968 19.6019Z" fill="#A1BCD5"></path>
<path d="M13.8971 25.7777C14.2114 24.3258 13.5482 22.9501 12.4158 22.705C11.2833 22.4598 10.1105 23.438 9.79617 24.8899C9.48185 26.3417 10.1451 27.7174 11.2775 27.9626C12.41 28.2078 13.5828 27.2295 13.8971 25.7777Z" fill="#013F69"></path>
<path d="M12.1088 25.4543C12.48 25.4543 12.781 25.1112 12.781 24.6879C12.781 24.2646 12.48 23.9214 12.1088 23.9214C11.7375 23.9214 11.4365 24.2646 11.4365 24.6879C11.4365 25.1112 11.7375 25.4543 12.1088 25.4543Z" fill="white"></path>
<path d="M21.6379 28.2571C22.7704 28.012 23.4336 26.6362 23.1193 25.1844C22.805 23.7325 21.6321 22.7543 20.4997 22.9995C19.3672 23.2447 18.704 24.6204 19.0183 26.0722C19.3327 27.5241 20.5055 28.5023 21.6379 28.2571Z" fill="#013F69"></path>
<path d="M20.8627 25.4543C21.234 25.4543 21.5349 25.1112 21.5349 24.6879C21.5349 24.2646 21.234 23.9214 20.8627 23.9214C20.4914 23.9214 20.1904 24.2646 20.1904 24.6879C20.1904 25.1112 20.4914 25.4543 20.8627 25.4543Z" fill="white"></path>
<path d="M6.87962 20.0692C6.72917 20.0692 6.5811 20.0182 6.46205 19.9217C6.29621 19.7872 6.205 19.5799 6.21862 19.3667C6.24646 18.9183 6.28673 18.7252 6.37439 18.3024C6.39038 18.2265 6.40756 18.143 6.42711 18.0477L7.10587 18.1857C7.08633 18.2816 7.06856 18.3663 7.05316 18.4427C6.97024 18.8407 6.93766 18.9989 6.91338 19.3661C7.06204 19.3246 7.22078 19.2802 7.38543 19.234C8.50664 18.9189 9.90148 18.5268 10.5228 18.4889L10.5654 19.1801C10.0176 19.2139 8.60437 19.6107 7.5726 19.9009C7.39136 19.9519 7.21781 20.0004 7.05671 20.0455C6.99808 20.0615 6.93825 20.0692 6.87962 20.0692Z" fill="#013F69"></path>
<path d="M26.013 19.4206C25.9615 19.4206 25.9094 19.4135 25.8585 19.3999C24.9902 19.1612 23.1819 18.6637 22.5712 18.701L22.5298 18.0098C23.173 17.9713 24.5815 18.3326 25.8875 18.6897C25.8685 18.5434 25.8484 18.4457 25.8259 18.3367L25.8117 18.2668L26.4904 18.1282L26.5041 18.1952C26.5366 18.3527 26.568 18.5014 26.5947 18.7809C26.613 18.9723 26.536 19.1594 26.3891 19.2832C26.2819 19.3726 26.1487 19.4206 26.013 19.4206Z" fill="#013F69"></path>
<path d="M22.5793 18.6175C22.5763 18.6187 22.6302 18.6667 22.6172 18.7069C19.8589 20.0947 16.9815 20.3416 14.9529 20.344H14.9328C12.8313 20.344 11.1978 19.888 9.94629 18.9504C10.1477 18.7318 10.4296 18.5494 10.5066 18.5002C11.6177 19.2761 13.0694 19.6522 14.9334 19.6522H14.9523C16.9235 19.6493 19.9145 19.3235 22.5698 17.9689C22.6207 18.0874 22.6568 18.1976 22.6829 18.2917C22.7327 18.4706 22.5793 18.6175 22.5793 18.6175Z" fill="#013F69"></path>
<path d="M32.6368 19.9892C32.433 20.0455 32.2654 19.9963 32.0794 19.9163C32.0676 19.9116 32.0563 19.9063 32.0445 19.9009C32.0315 19.9163 32.0143 19.9282 31.9894 19.9323C31.9355 19.9412 31.8644 19.9211 31.7922 19.9157C31.7377 19.9116 31.6666 19.9311 31.666 19.9856C31.6654 20.0259 31.7039 20.0549 31.7383 20.0751C31.9006 20.171 32.0765 20.2439 32.2595 20.2901C32.3584 20.3155 32.4739 20.3298 32.5551 20.2676C32.6356 20.2054 32.6628 20.1296 32.6605 19.9862C32.6593 19.9868 32.6374 19.9892 32.6368 19.9892Z" fill="#013F69"></path>
<path d="M5.3279 21.6222L6.06471 21.6962C6.06471 21.6962 5.3048 21.2686 5.27637 21.2798" fill="#013F69"></path>
<path d="M31.8214 19.7512C31.9499 19.7772 32.1661 19.8335 32.2307 19.8086C32.2846 19.7879 32.2929 19.5942 31.8404 19.3454C31.6348 19.2323 31.4797 19.0096 31.2451 19.0126C31.5199 18.9634 31.8362 19.0244 32.0654 19.1831C32.2947 19.3419 32.4575 19.5942 32.5079 19.8684C32.5209 19.9401 32.5233 20.0236 32.4717 20.0751C32.4184 20.1284 32.3326 20.1243 32.2579 20.116C32.1075 20.1 31.9357 20.071 31.8575 19.9419" fill="#013F69"></path>
<path d="M11.6446 14.9036L10.0356 18.927L10.6268 19.1634L12.2357 15.14L11.6446 14.9036Z" fill="#013F69"></path>
<path d="M22.365 18.778C21.5974 17.4216 21.1461 16.0594 20.7729 14.7895L21.3836 14.61C21.7461 15.8438 22.1832 17.164 22.9188 18.4647L22.365 18.778Z" fill="#013F69"></path>
</svg><style>@media (prefers-color-scheme: light) { :root { filter: none; } }
@media (prefers-color-scheme: dark) { :root { filter: none; } }
</style></svg>