<svg width="24" height="24" viewBox="0 0 24 24" fill="none" xmlns="http://www.w3.org/2000/svg">
<g clip-path="url(#clip0_312_26252)">
<path d="M20.9999 4.9499H16.7999V2.8874C16.7999 1.7999 15.9 0.899902 14.8124 0.899902H9.14995C8.06245 0.899902 7.16245 1.7999 7.16245 2.8874V4.9499H2.99995C1.72495 4.9499 0.637451 5.9999 0.637451 7.3124V20.7374C0.637451 22.0124 1.68745 23.0999 2.99995 23.0999H20.9999C22.275 23.0999 23.3624 22.0499 23.3624 20.7374V7.3124C23.3249 5.9999 22.275 4.9499 20.9999 4.9499ZM8.88745 2.8874C8.88745 2.7374 8.99995 2.6249 9.14995 2.6249H14.8124C14.9625 2.6249 15.1124 2.7374 15.1124 2.9249V4.9874H8.88745V2.8874ZM2.99995 6.6374H20.9999C21.3749 6.6374 21.6749 6.9374 21.6749 7.3124V10.2374L12.8624 12.6374V11.8499C12.8624 11.3999 12.4874 10.9874 12 10.9874C11.5125 10.9874 11.1375 11.3624 11.1375 11.8499V12.6374L2.36245 10.1999V7.2749C2.36245 6.9374 2.62495 6.6374 2.99995 6.6374ZM20.9999 21.3749H2.99995C2.62495 21.3749 2.32495 21.0749 2.32495 20.6999V11.9624L11.1375 14.3624V15.1874C11.1375 15.6374 11.5125 16.0499 12 16.0499C12.4874 16.0499 12.8624 15.6749 12.8624 15.1874V14.3624L21.6749 11.9624V20.7374C21.6374 21.0749 21.3749 21.3749 20.9999 21.3749Z" fill="#111928"/>
</g>
<defs>
<clipPath id="clip0_312_26252">
<rect width="24" height="24" fill="white"/>
</clipPath>
</defs>
</svg>
