<svg width="25" height="24" viewBox="0 0 25 24" fill="none" xmlns="http://www.w3.org/2000/svg">
<path d="M21.3124 6.22499L16.1374 1.12499C15.8374 0.824988 15.4249 0.674988 15.0124 0.674988H6.0124C4.7374 0.674988 3.6499 1.72499 3.6499 3.03749V21.0375C3.6499 22.3125 4.6999 23.4 6.0124 23.4H19.3999C20.6749 23.4 21.7624 22.35 21.7624 21.0375V7.34999C21.7624 6.93749 21.6124 6.52499 21.3124 6.22499ZM16.1749 3.52499L18.9874 6.29999H16.1749V3.52499ZM19.4374 21.675H6.0124C5.6374 21.675 5.3374 21.375 5.3374 21V2.99999C5.3374 2.62499 5.6374 2.32499 6.0124 2.32499H14.4874V7.12499C14.4874 7.57499 14.8624 7.98749 15.3499 7.98749H20.1124V21C20.0749 21.375 19.7749 21.675 19.4374 21.675Z" fill="#111928"/>
<path d="M15.3124 10.9125H8.8249C8.3749 10.9125 7.9624 11.2875 7.9624 11.775C7.9624 12.2625 8.3374 12.6375 8.8249 12.6375H15.3124C15.7624 12.6375 16.1749 12.2625 16.1749 11.775C16.1749 11.2875 15.7999 10.9125 15.3124 10.9125Z" fill="#111928"/>
<path d="M15.3124 15.0375H8.8249C8.3749 15.0375 7.9624 15.4125 7.9624 15.9C7.9624 16.3875 8.3374 16.7625 8.8249 16.7625H15.3124C15.7624 16.7625 16.1749 16.3875 16.1749 15.9C16.1749 15.4125 15.7999 15.0375 15.3124 15.0375Z" fill="#111928"/>
</svg>
