<svg width="24" height="24" viewBox="0 0 24 24" fill="none" xmlns="http://www.w3.org/2000/svg">
<g clip-path="url(#clip0_310_8386)">
<path d="M16.2002 12.75C15.0752 11.4 13.6502 10.4625 12.0752 9.97498C13.6502 9.14998 14.7002 7.49998 14.7002 5.58748C14.7002 2.84998 12.4877 0.599976 9.75019 0.599976C7.01269 0.599976 4.7627 2.88748 4.7627 5.62498C4.7627 7.49998 5.8127 9.14998 7.3877 10.0125C5.8127 10.5 4.4252 11.4375 3.2627 12.7875C1.6127 14.7375 0.675195 17.4375 0.637695 20.4C0.637695 20.7375 0.825195 21.0375 1.0877 21.1875C2.1377 21.7125 5.8127 23.3625 9.7127 23.3625C11.7752 23.3625 13.7252 23.025 13.8377 22.9875C14.2877 22.9125 14.5877 22.4625 14.5127 22.0125C14.4377 21.5625 13.9877 21.2625 13.5377 21.3375C13.5377 21.3375 11.6627 21.675 9.7127 21.675C6.63769 21.675 3.6752 20.5125 2.3252 19.9125C2.4752 17.55 3.2252 15.4125 4.5377 13.875C5.8877 12.2625 7.72519 11.3625 9.7127 11.3625C11.7002 11.3625 13.5377 12.2625 14.8877 13.875C15.1877 14.25 15.7127 14.2875 16.0877 13.9875C16.4627 13.65 16.5002 13.125 16.2002 12.75ZM9.75019 2.36248C11.5502 2.36248 13.0127 3.82498 13.0127 5.66248C13.0127 7.49998 11.5502 8.96247 9.75019 8.96247C7.95019 8.96247 6.4502 7.49998 6.4502 5.66248C6.4502 3.82498 7.91269 2.36248 9.75019 2.36248Z" fill="#111928"/>
<path d="M23.3628 19.6125C23.3628 18.2625 22.2378 17.175 20.8503 17.175H18.6003C18.1503 17.175 17.7753 16.8375 17.7753 16.425C17.7753 16.0125 18.1503 15.675 18.6003 15.675H21.9003C22.3503 15.675 22.7628 15.3 22.7628 14.8125C22.7628 14.325 22.3878 13.95 21.9003 13.95H20.8503V13.8375C20.8503 13.3875 20.4753 12.975 19.9878 12.975C19.5003 12.975 19.1253 13.35 19.1253 13.8375V13.95H18.5628C17.1753 13.95 16.0503 15.0375 16.0503 16.3875C16.0503 17.7375 17.1753 18.825 18.5628 18.825H20.8128C21.2628 18.825 21.6378 19.1625 21.6378 19.575C21.6378 19.9875 21.2628 20.325 20.8128 20.325H17.0628C16.6128 20.325 16.2003 20.7 16.2003 21.1875C16.2003 21.675 16.5753 22.05 17.0628 22.05H19.1628V22.1625C19.1628 22.6125 19.5378 23.025 20.0253 23.025C20.5128 23.025 20.8878 22.65 20.8878 22.1625V22.05C22.2378 22.05 23.3628 20.925 23.3628 19.6125Z" fill="#111928"/>
</g>
<defs>
<clipPath id="clip0_310_8386">
<rect width="24" height="24" fill="white"/>
</clipPath>
</defs>
</svg>
