<svg width="131" height="114" viewBox="0 0 131 114" fill="none" xmlns="http://www.w3.org/2000/svg">
<path d="M130.952 91.2451H130.951C130.951 91.2642 130.952 91.2836 130.952 91.3027C130.952 103.838 101.637 114 65.4756 114C29.3147 114 0.000529324 103.838 0 91.3027C0 91.2836 0.000840532 91.2642 0.000976562 91.2451H0V0H130.952V91.2451Z" fill="white"/>
<path d="M90.572 53.728V59.8933C90.572 61.898 88.5297 63.5272 86.0017 63.5477C88.4501 58.6077 88.0178 53.7405 87.293 50.2295C89.1908 50.6846 90.572 52.0794 90.572 53.728Z" fill="#013F69"/>
<path d="M46.4317 63.9954C46.2781 64.025 46.1165 64.0409 45.9515 64.0409H45.7399C43.3621 64.0409 41.4359 62.4049 41.4359 60.3877V54.2212C41.4359 52.4851 42.8615 51.0311 44.7751 50.6602C44.0959 54.2576 43.9196 59.4354 46.4317 63.9954Z" fill="#013F69"/>
<path d="M80.4371 46.2589C79.7556 45.8983 78.784 45.3215 78.1924 44.7003C78.2083 44.698 78.2231 44.6957 78.239 44.6934C78.239 44.6934 77.8898 42.0562 75.7463 41.2575C76.2753 43.0312 69.7789 23.5147 66.1519 10.2409C66.0881 10.0065 60.1071 35.5552 56.3868 41.6011C55.9362 42.0551 54.5971 43.5011 54.7621 44.5034C54.7621 44.5034 53.8326 45.0609 53.4253 45.6696C53.3889 45.7242 53.357 45.7788 53.3308 45.8334C53.3217 45.8516 53.3138 45.8698 53.3058 45.888C53.2944 45.9154 53.2831 45.9427 53.274 45.97C53.2626 46.0052 53.2535 46.0394 53.2478 46.0746C53.2455 46.0894 53.2421 46.1054 53.241 46.1201C53.2364 46.1634 53.2364 46.2066 53.241 46.2487C53.2421 46.2578 53.2444 46.2669 53.2455 46.276C53.2535 46.3227 53.266 46.3682 53.2876 46.4125C53.2876 46.4125 55.744 48.2272 65.5455 48.2272C75.347 48.2272 81.2131 46.6424 81.2131 46.6424C81.2131 46.6424 80.8888 46.4979 80.4371 46.2589Z" fill="white"/>
<path d="M65.5443 49.4788C61.3791 49.4788 57.9785 49.1614 55.4402 48.5345C53.5083 48.0578 52.7347 47.5594 52.5435 47.4184C52.3797 47.2978 52.2489 47.1385 52.1601 46.9553C52.0919 46.8131 52.0441 46.6641 52.0145 46.5002C52.0077 46.465 52.002 46.4297 51.9974 46.3944C51.9815 46.2613 51.9804 46.1236 51.9952 45.9848C51.9986 45.9507 52.0054 45.9075 52.0122 45.8631C52.0304 45.7607 52.0532 45.6685 52.0828 45.5798C52.1055 45.5081 52.1328 45.4433 52.1522 45.3955C52.1715 45.3523 52.1886 45.3136 52.2079 45.276C52.2568 45.177 52.3149 45.0758 52.3797 44.9791C52.3808 44.9768 52.382 44.9757 52.3831 44.9734C52.6971 44.5046 53.1704 44.0962 53.5482 43.8141C53.7643 42.723 54.604 41.6399 55.3901 40.8287C58.2982 35.9353 62.8115 18.197 64.3019 12.3355C64.4942 11.58 64.6478 10.977 64.7559 10.5618C64.8128 10.3445 64.8583 10.1761 64.8901 10.0623C65.1529 9.13507 65.7844 8.99058 66.1371 8.9883C66.7014 8.98489 67.2065 9.36262 67.3556 9.911C70.4217 21.1335 75.6428 37.1163 76.7338 40.3349C78.5588 41.3065 79.1982 43.2588 79.3973 44.1156C79.7864 44.4387 80.3473 44.797 81.0208 45.1532C81.4247 45.367 81.7182 45.499 81.7216 45.5002C82.204 45.7163 82.4998 46.2124 82.4577 46.7403C82.4168 47.2682 82.0482 47.7119 81.5373 47.8496C81.2927 47.9167 75.3982 49.4788 65.5443 49.4788ZM55.0329 45.8301C56.6712 46.3637 60.0161 46.9769 65.5443 46.9769C70.6686 46.9769 74.959 46.5173 77.8181 46.0554C77.6179 45.8904 77.4404 45.7266 77.2856 45.5639C77.0376 45.3033 76.9182 44.9541 76.9443 44.6048C76.8271 44.1349 76.4926 43.1337 75.686 42.6194C75.6132 42.6138 75.5392 42.6024 75.4664 42.5842C74.8111 42.4169 74.6256 41.889 74.5153 41.5727C74.4652 41.4305 74.3935 41.2212 74.3025 40.9515C74.108 40.3758 73.8463 39.5897 73.5471 38.6784C73.1079 37.3415 72.1989 34.5598 71.0509 30.9418C69.6561 26.5457 67.8118 20.6147 66.1974 15.0239C61.0389 35.0445 58.7407 40.162 57.4505 42.2576C57.4005 42.3396 57.3402 42.4147 57.2731 42.4829C56.422 43.3408 56.0125 44.0791 55.9977 44.3192C56.0716 44.8187 55.8384 45.3158 55.4038 45.5764C55.3002 45.639 55.1683 45.7288 55.0329 45.8301Z" fill="#013F69"/>
<path d="M53.4185 50.8355C52.8155 50.8355 52.2125 50.831 51.6106 50.8207C47.6753 50.7582 44.1403 50.4806 41.3882 50.0186C38.2833 49.4987 36.3742 48.7876 35.5517 47.8456C35.0385 47.2574 34.9054 46.5577 35.1751 45.8739C35.7371 44.4529 37.3675 43.5131 40.0184 43.0797C42.5077 42.6735 45.4191 42.7759 47.425 42.934L48.8801 43.0489L48.2123 44.3471C48.1895 44.3903 48.1747 44.4233 48.1611 44.454C48.1451 44.4927 48.1269 44.5507 48.1099 44.6088L48.0302 44.867L47.731 45.1333C47.6787 45.1799 47.6616 45.2504 47.6616 45.2994C47.6627 45.3654 47.6912 45.3892 47.7026 45.3984C47.8641 45.5326 48.1156 45.5633 48.2885 45.4689L48.4546 45.379L48.6423 45.3574C48.6639 45.3551 48.6787 45.354 48.6947 45.3506C49.7459 45.1594 50.8085 45.0479 51.8359 44.9398C52.2171 44.9 52.5982 44.8602 52.9793 44.8158C53.2808 44.7806 53.4378 44.6657 53.4663 44.6008L53.7962 43.8454L54.5949 44.049C55.0477 44.1639 55.4562 44.2822 55.8077 44.3983L55.8737 44.4199L55.9363 44.4518C55.942 44.454 57.3607 45.1173 60.9889 45.4768C67.0496 46.0787 74.5096 45.3904 79.6988 44.7078C88.9064 43.4949 94.5768 43.8749 96.5553 45.8352C97.1583 46.4337 97.3187 47.0981 97.2664 47.5213L95.3391 47.2847C95.3277 47.3803 95.3368 47.4189 95.3368 47.4212C95.33 47.3939 94.2503 44.751 79.9525 46.6339C78.61 46.8103 77.3335 46.9604 76.1206 47.0867L76.4312 48.3462C69.9474 49.9436 61.6499 50.8355 53.4185 50.8355ZM36.9977 46.552C37.3413 47.0389 40.4188 48.6227 50.9337 48.865C57.6394 49.0197 64.7104 48.526 70.7699 47.5179C69.0838 47.6112 67.5581 47.651 66.1838 47.651C58.6953 47.651 55.6735 46.4621 55.1467 46.2255C55.0147 46.1822 54.8736 46.139 54.7235 46.0958C54.3344 46.4451 53.8065 46.676 53.2012 46.7466C52.8132 46.7909 52.4253 46.8319 52.0373 46.8728C50.9997 46.9821 50.0201 47.0845 49.0405 47.2619H49.0394C48.1997 47.6306 47.1883 47.4929 46.4647 46.8933C46.0039 46.511 45.732 45.9433 45.7206 45.3358C45.7172 45.1458 45.7377 44.958 45.7821 44.7771C43.6739 44.6816 41.8103 44.7555 40.3324 44.9967C38.4893 45.2982 37.3083 45.85 36.9977 46.552Z" fill="#013F69"/>
<path d="M38.0136 103.639H35.8997L35.4253 104.96H34.7393L36.6666 99.9131H37.2491L39.1798 104.96H38.4972L38.0136 103.639ZM36.1 103.095H37.8157L36.9555 100.735L36.1 103.095Z" fill="#A1BCD5"/>
<path d="M41.9911 104.96H41.3256V99.9131H41.9911V104.96Z" fill="#A1BCD5"/>
<path d="M48.4705 102.984V104.96H47.8049V99.9131H49.6662C50.218 99.9131 50.6515 100.054 50.9644 100.336C51.2773 100.618 51.4343 100.992 51.4343 101.456C51.4343 101.946 51.2807 102.323 50.9746 102.588C50.6686 102.853 50.2294 102.985 49.6594 102.985H48.4705V102.984ZM48.4705 102.44H49.6662C50.0224 102.44 50.2943 102.356 50.4843 102.189C50.6743 102.021 50.7687 101.778 50.7687 101.462C50.7687 101.161 50.6743 100.92 50.4843 100.739C50.2943 100.558 50.0349 100.465 49.7049 100.458H48.4705V102.44Z" fill="#A1BCD5"/>
<path d="M56.5552 102.628H54.3685V104.416H56.909V104.96H53.7029V99.9131H56.8749V100.457H54.3685V102.083H56.5552V102.628Z" fill="#A1BCD5"/>
<path d="M60.4667 102.694H59.8534V104.96H59.1879V99.9131H59.8534V102.138H60.3734L62.138 99.9131H62.9663L61.0389 102.36L63.1085 104.96H62.2939L60.4667 102.694Z" fill="#A1BCD5"/>
<path d="M65.8038 102.984V104.96H65.1382V99.9131H66.9995C67.5513 99.9131 67.9848 100.054 68.2976 100.336C68.6105 100.618 68.7675 100.992 68.7675 101.456C68.7675 101.946 68.6139 102.323 68.3079 102.588C68.0018 102.853 67.5627 102.985 66.9927 102.985H65.8038V102.984ZM65.8038 102.44H66.9995C67.3556 102.44 67.6275 102.356 67.8175 102.189C68.0075 102.021 68.102 101.778 68.102 101.462C68.102 101.161 68.0075 100.92 67.8175 100.739C67.6275 100.558 67.3681 100.465 67.0382 100.458H65.8038V102.44Z" fill="#A1BCD5"/>
<path d="M72.7689 102.843L73.9305 99.9141H74.703L72.9179 104.118C72.7973 104.386 72.6858 104.576 72.5823 104.688C72.4788 104.801 72.3559 104.886 72.216 104.944C72.076 105.003 71.9008 105.033 71.6915 105.033C71.5094 105.033 71.3922 105.022 71.341 105.002L71.3615 104.475L71.6767 104.489C71.919 104.489 72.0999 104.372 72.2171 104.138L72.3036 103.959L72.4355 103.65L70.7164 99.9141H71.4616L72.7689 102.843Z" fill="#A1BCD5"/>
<path d="M80.4666 100.458H78.8442V104.96H78.1821V100.458H76.5631V99.9141H80.4655V100.458H80.4666Z" fill="#A1BCD5"/>
<path d="M85.8162 99.9131H86.4818V104.96H85.8162V101.071L83.3315 104.96H82.6625V99.9131H83.3315V103.802L85.8162 99.9131Z" fill="#A1BCD5"/>
<path d="M92.9942 104.96H92.3252V102.628H89.7813V104.96H89.1157V99.9131H89.7813V102.083H92.3252V99.9131H92.9942V104.96Z" fill="#A1BCD5"/>
<path d="M98.7249 100.458H96.2913V104.96H95.6223V99.9131H98.7249V100.458Z" fill="#A1BCD5"/>
<path d="M21.8261 94.4906L18.2741 89.5142C17.8065 89.5779 17.3389 89.62 16.828 89.62H12.5752V94.4906H11.491V79.6035H16.8292C20.5723 79.6035 22.8261 81.4751 22.8261 84.6232C22.8261 86.9839 21.5496 88.6211 19.3379 89.281L23.0593 94.4918H21.8261V94.4906ZM16.828 88.6644C20.0182 88.6644 21.7191 87.1762 21.7191 84.6232C21.7191 82.0496 20.0182 80.582 16.828 80.582H12.5752V88.6632H16.828V88.6644Z" fill="#013F69"/>
<path d="M37.0739 93.5122V94.4906H26.8014V79.6035H36.7542V80.582H27.8856V86.4515H35.8179V87.4083H27.8856V93.5122H37.0739Z" fill="#013F69"/>
<path d="M45.452 87.1535L42.1128 90.578V94.4906H41.0286V79.6035H42.1128V89.1741L51.4069 79.6035H52.7255L46.1756 86.3662L53.1726 94.4906H51.854L45.452 87.1535Z" fill="#013F69"/>
<path d="M66.3134 94.4906L62.7614 89.5142C62.2938 89.5779 61.8262 89.62 61.3153 89.62H57.0625V94.4906H55.9783V79.6035H61.3165C65.0596 79.6035 67.3134 81.4751 67.3134 84.6232C67.3134 86.9839 66.038 88.6211 63.8252 89.281L67.5467 94.4918H66.3134V94.4906ZM61.3153 88.6644C64.5055 88.6644 66.2076 87.1762 66.2076 84.6232C66.2076 82.0496 64.5055 80.582 61.3153 80.582H57.0625V88.6632H61.3153V88.6644Z" fill="#013F69"/>
<path d="M71.1613 88.175V79.6045H72.2455V88.1329C72.2455 91.8544 74.0317 93.5985 77.1366 93.5985C80.2414 93.5985 82.006 91.8544 82.006 88.1329V79.6045H83.0903V88.175C83.0903 92.4289 80.8148 94.5974 77.1138 94.5974C73.4162 94.5974 71.1613 92.4278 71.1613 88.175Z" fill="#013F69"/>
<path d="M86.6002 93.6607C86.6002 93.1499 87.0041 92.7676 87.4933 92.7676C87.9826 92.7676 88.3864 93.1499 88.3864 93.6607C88.3864 94.1715 87.9826 94.5754 87.4933 94.5754C87.0041 94.5754 86.6002 94.1715 86.6002 93.6607Z" fill="#013F69"/>
<path d="M102.551 94.4906L98.9991 89.5142C98.5315 89.5779 98.0639 89.62 97.553 89.62H93.3002V94.4906H92.2159V79.6035H97.5542C101.297 79.6035 103.551 81.4751 103.551 84.6232C103.551 86.9839 102.276 88.6211 100.063 89.281L103.784 94.4918H102.551V94.4906ZM97.553 88.6644C100.743 88.6644 102.445 87.1762 102.445 84.6232C102.445 82.0496 100.743 80.582 97.553 80.582H93.3002V88.6632H97.553V88.6644Z" fill="#013F69"/>
<path d="M107.398 88.175V79.6045H108.482V88.1329C108.482 91.8544 110.268 93.5985 113.373 93.5985C116.478 93.5985 118.244 91.8544 118.244 88.1329V79.6045H119.328V88.175C119.328 92.4289 117.053 94.5974 113.352 94.5974C109.653 94.5974 107.398 92.4278 107.398 88.175Z" fill="#013F69"/>
<path d="M85.1553 49.9609C85.5364 45.7286 84.6069 41.833 82.2848 38.3277C81.89 37.7315 81.5339 37.6917 80.9969 37.9238C78.2572 39.1105 75.7247 40.6452 73.6233 42.9059C73.2399 43.3178 72.8326 43.3621 72.3433 43.2017C70.6311 42.6419 68.8756 42.337 67.087 42.2665C64.6 42.1675 62.1516 42.4087 59.7658 43.2358C59.4643 43.3405 59.0684 43.4588 58.7589 43.0538C58.1935 42.3143 57.4278 41.8069 56.7406 41.2096C55.0158 39.7089 53.043 38.6849 50.9757 37.8487C50.6003 37.6963 50.3796 37.7202 50.0906 38.1366C48.5342 40.3722 47.616 42.8445 47.17 45.5955" fill="white"/>
<path d="M85.8174 50.0209L84.4931 49.9015C84.8628 45.792 83.9333 42.0216 81.7307 38.6949C81.5953 38.4912 81.5225 38.4571 81.5202 38.4571C81.5202 38.4571 81.5191 38.4571 81.5168 38.4571C81.502 38.4571 81.4315 38.4605 81.2619 38.5345C78.2162 39.8542 75.9442 41.3867 74.1113 43.3584C73.5812 43.9284 72.9179 44.0888 72.1374 43.8328C70.5173 43.3027 68.8095 42.9989 67.062 42.9295C64.4145 42.8248 62.0992 43.1297 59.9853 43.8636C59.7032 43.9614 58.8453 44.2595 58.2321 43.4574C57.8737 42.9886 57.4084 42.6132 56.9158 42.2161C56.7155 42.0546 56.5073 41.8873 56.3059 41.711C54.8565 40.4492 53.0839 39.4185 50.7277 38.4651C50.7129 38.4594 50.6992 38.4537 50.6867 38.4491C50.6731 38.4662 50.656 38.4878 50.6367 38.5163C49.194 40.588 48.2747 42.9386 47.8265 45.7021L46.5135 45.4894C46.9937 42.5245 47.9858 39.9953 49.5444 37.7563C49.9904 37.1146 50.5252 36.9485 51.2249 37.2318C53.7222 38.2421 55.6131 39.3457 57.1774 40.7075C57.3606 40.8668 57.5495 41.0192 57.7497 41.1808C58.281 41.6097 58.8317 42.0546 59.2868 42.6496C59.2948 42.6598 59.3004 42.6667 59.305 42.6712C59.3653 42.6701 59.5007 42.6223 59.5473 42.6064C61.8216 41.8179 64.2951 41.488 67.1132 41.6006C68.9836 41.6746 70.8119 42 72.5492 42.5688C72.861 42.6712 72.9736 42.6268 73.1352 42.4528C75.0977 40.3412 77.5109 38.7085 80.7318 37.3137C81.6101 36.9337 82.2984 37.1453 82.8377 37.9599C85.2133 41.5449 86.2156 45.602 85.8174 50.0209Z" fill="#013F69"/>
<path d="M47.1097 47.03C46.1711 49.0267 43.9799 57.0374 47.5876 63.4519C47.9721 64.1346 48.359 64.832 48.83 65.4521C50.5593 67.7275 52.7927 69.2304 55.3491 70.2396C56.8498 70.8312 58.3891 71.2806 59.9535 71.5764C62.4872 72.0554 65.0585 71.9621 67.6218 71.9496C70.7232 71.9348 73.7177 71.3796 76.6508 70.276C80.0696 68.9893 82.7706 66.8697 84.6103 63.4633C88.4194 56.4128 85.7082 49.3066 85.1223 46.5078" fill="white"/>
<path d="M65.2576 72.6288C63.4634 72.6288 61.6351 72.5696 59.8295 72.2283C58.2401 71.928 56.6507 71.466 55.1057 70.8574C52.2204 69.7196 49.9939 68.0836 48.2998 65.8537C47.8186 65.2199 47.4283 64.5248 47.0506 63.8535L47.0074 63.7773C43.1596 56.935 45.6341 48.6035 46.5079 46.7467L47.7116 47.3133C46.9493 48.9345 44.6341 56.8429 48.1667 63.1254L48.2099 63.2016C48.566 63.8342 48.9335 64.4884 49.359 65.0493C50.9018 67.079 52.9406 68.5739 55.5926 69.6195C57.0603 70.1986 58.5689 70.6355 60.0764 70.9211C62.2301 71.3284 64.4817 71.309 66.6581 71.2897C66.9778 71.2874 67.2975 71.284 67.6184 71.2829C70.6595 71.2681 73.538 70.7345 76.4164 69.6514C79.8751 68.3498 82.3633 66.2223 84.0255 63.1447C87.1963 57.2752 85.6445 51.2601 84.8105 48.0289C84.6729 47.4953 84.5534 47.0345 84.4715 46.642L85.7731 46.3701C85.8493 46.7331 85.9642 47.179 86.0973 47.6967C86.9768 51.1053 88.614 57.4481 85.1951 63.7773C83.3736 67.1484 80.6556 69.4773 76.884 70.896C73.8975 72.0201 70.7813 72.5981 67.6241 72.6129C67.3055 72.614 66.9881 72.6174 66.6695 72.6197C66.2031 72.6242 65.7309 72.6288 65.2576 72.6288Z" fill="#013F69"/>
<path d="M57.6178 59.2358C57.9043 59.2358 58.1366 59.0036 58.1366 58.717C58.1366 58.4305 57.9043 58.1982 57.6178 58.1982C57.3313 58.1982 57.099 58.4305 57.099 58.717C57.099 59.0036 57.3313 59.2358 57.6178 59.2358Z" fill="white"/>
<path d="M67.8244 62.1128C67.5012 62.5622 67.136 62.9832 66.7276 63.3757C66.4909 63.6033 66.1143 63.6033 65.8777 63.3757C65.4693 62.9832 65.1029 62.5611 64.7798 62.1117C64.5443 61.7829 64.6842 61.3176 65.0642 61.1776C65.4886 61.0206 65.9448 60.9125 66.3032 60.9273C66.6605 60.9114 67.1167 61.0195 67.5411 61.1776C67.9199 61.3187 68.061 61.784 67.8244 62.1128Z" fill="#013F69"/>
<path d="M59.8386 65.0967C55.3389 65.2514 50.7755 65.165 46.2849 64.8362C50.7846 64.6803 55.348 64.7702 59.8386 65.0967Z" fill="#013F69"/>
<path d="M58.5052 66.6904C56.7429 67.2126 54.9681 67.761 53.2455 68.4004C51.5196 69.0307 49.8119 69.7623 48.1315 70.5064C51.1601 68.5893 54.9567 67.1944 58.5052 66.6904Z" fill="#013F69"/>
<path d="M58.4677 68.2363C57.669 69.5504 56.7383 70.8508 55.8282 72.0921C54.9043 73.3242 53.9316 74.5928 52.9065 75.7385C53.704 74.4244 54.6358 73.124 55.546 71.8827C56.4698 70.6506 57.4426 69.3832 58.4677 68.2363Z" fill="#013F69"/>
<path d="M72.3843 65.0969C76.8749 64.7693 81.4383 64.6805 85.938 64.8364C81.4474 65.1663 76.884 65.2517 72.3843 65.0969Z" fill="#013F69"/>
<path d="M73.7166 66.6904C77.2651 67.1956 81.0617 68.5893 84.0915 70.5064C82.4099 69.7634 80.7033 69.0307 78.9774 68.4004C77.2537 67.761 75.48 67.2126 73.7166 66.6904Z" fill="#013F69"/>
<path d="M73.7552 68.2363C74.7803 69.382 75.7542 70.6517 76.6769 71.8827C77.5871 73.1251 78.5178 74.4244 79.3164 75.7385C78.2914 74.5928 77.3175 73.3242 76.3948 72.0921C75.4846 70.8508 74.5539 69.5515 73.7552 68.2363Z" fill="#013F69"/>
<path d="M67.3147 61.4071C66.6366 61.3264 65.9687 61.3286 65.2906 61.4117C65.913 61.1102 66.6889 61.1091 67.3147 61.4071Z" fill="white"/>
<path d="M63.1198 75.61C57.6667 75.61 54.1716 74.8796 51.4342 73.1696C48.2679 71.1911 46.0073 67.7723 44.3212 62.409L45.4122 62.0654C47.0119 67.1533 49.1178 70.3731 52.0395 72.198C54.5823 73.7863 57.8965 74.4644 63.1198 74.4644V75.61Z" fill="#013F69"/>
<path d="M65.5773 76.5019H63.6477C62.6829 76.5019 61.9001 75.7192 61.9001 74.7544C61.9001 73.7896 62.6829 73.0068 63.6477 73.0068H65.5773C66.5421 73.0068 67.3248 73.7896 67.3248 74.7544C67.3248 75.7203 66.5432 76.5019 65.5773 76.5019Z" fill="#013F69"/>
<path d="M61.3007 58.5552C61.9044 55.7663 60.6304 53.1238 58.4551 52.6528C56.2798 52.1819 54.0269 54.0609 53.4232 56.8498C52.8194 59.6386 54.0934 62.2812 56.2687 62.7521C58.444 63.2231 60.6969 61.344 61.3007 58.5552Z" fill="#013F69"/>
<path d="M55.9513 54.9375C56.1708 54.5954 56.1323 54.1791 55.8652 54.0078C55.5982 53.8364 55.2037 53.9749 54.9842 54.317C54.7646 54.6592 54.8032 55.0754 55.0702 55.2468C55.3373 55.4181 55.7317 55.2797 55.9513 54.9375Z" fill="white"/>
<path d="M59.6828 57.9337C60.396 57.9337 60.9741 57.2746 60.9741 56.4615C60.9741 55.6484 60.396 54.9893 59.6828 54.9893C58.9696 54.9893 58.3915 55.6484 58.3915 56.4615C58.3915 57.2746 58.9696 57.9337 59.6828 57.9337Z" fill="white"/>
<path d="M53.8701 59.1479C54.1637 59.8863 54.5573 60.6076 55.1819 61.0957C56.4357 62.1072 58.2128 61.6999 59.3221 60.6452C59.8966 60.115 60.3347 59.4335 60.6635 58.6826C60.5304 59.4915 60.1686 60.2834 59.594 60.9137C57.5177 63.1698 54.2467 62.2664 53.8701 59.1479Z" fill="white"/>
<path d="M76.1707 63.3169C78.346 62.846 79.62 60.2034 79.0162 57.4145C78.4125 54.6257 76.1596 52.7467 73.9843 53.2176C71.809 53.6885 70.535 56.3311 71.1387 59.12C71.7425 61.9088 73.9954 63.7878 76.1707 63.3169Z" fill="#013F69"/>
<path d="M77.3508 55.8184C77.6179 55.6471 77.6564 55.2308 77.4368 54.8886C77.2173 54.5465 76.8229 54.408 76.5558 54.5794C76.2888 54.7507 76.2502 55.167 76.4698 55.5092C76.6893 55.8513 77.0838 55.9898 77.3508 55.8184Z" fill="white"/>
<path d="M76.3538 57.3063C77.2574 57.3063 77.9899 56.5738 77.9899 55.6702C77.9899 54.7667 77.2574 54.0342 76.3538 54.0342C75.4503 54.0342 74.7178 54.7667 74.7178 55.6702C74.7178 56.5738 75.4503 57.3063 76.3538 57.3063Z" fill="white"/>
<path d="M78.5598 59.7171C78.1832 62.8379 74.91 63.7367 72.8359 61.484C72.2614 60.8537 71.8996 60.0619 71.7665 59.2529C72.0964 60.0038 72.5333 60.6853 73.1079 61.2155C74.216 62.2702 75.9943 62.6775 77.248 61.666C77.8726 61.1768 78.2663 60.4555 78.5598 59.7171Z" fill="white"/>
<path d="M64.7934 66.3543C64.5784 66.3543 64.3622 66.3133 64.1574 66.2303C63.7274 66.0562 63.3633 65.7035 63.1574 65.2609C63.1005 65.138 63.1528 64.9924 63.2757 64.9344C63.3986 64.8775 63.5442 64.9298 63.6022 65.0527C63.7569 65.3838 64.0254 65.6466 64.3417 65.774C64.6648 65.9049 65.0437 65.8867 65.3304 65.7274C65.6672 65.5408 65.9141 65.1562 66.0074 64.6727C66.0972 64.2108 66.0472 63.7182 65.9994 63.2415C65.9857 63.1061 66.0836 62.9866 66.219 62.973C66.3509 62.9593 66.4738 63.0571 66.4875 63.1925C66.5387 63.7045 66.5921 64.2336 66.4886 64.766C66.3669 65.3929 66.0312 65.8992 65.5682 66.1563C65.3338 66.2883 65.0653 66.3543 64.7934 66.3543Z" fill="#013F69"/>
<path d="M67.8755 66.3539C67.6036 66.3539 67.3351 66.288 67.1007 66.1583C66.6365 65.9011 66.3009 65.3937 66.1803 64.768C66.0768 64.2344 66.1325 63.6814 66.1814 63.1945C66.1951 63.0591 66.3157 62.9613 66.4499 62.9749C66.5853 62.9886 66.6832 63.1092 66.6695 63.2434C66.6217 63.7201 66.5717 64.2127 66.6616 64.6747C66.7548 65.1582 67.0017 65.5427 67.3385 65.7293C67.6252 65.8886 68.0052 65.9068 68.3283 65.776C68.6446 65.6486 68.9131 65.3857 69.0678 65.0547C69.1247 64.9318 69.2715 64.8783 69.3944 64.9352C69.5172 64.9921 69.5707 65.1389 69.5138 65.2617C69.3079 65.7043 68.9427 66.057 68.5138 66.2311C68.3067 66.313 68.0894 66.3539 67.8755 66.3539Z" fill="#013F69"/>
<path d="M85.4977 44.9439C85.3635 45.7949 84.4544 45.8757 83.4418 45.3535C82.9458 45.0975 82.0174 45.0064 81.4668 44.9052C80.8285 44.788 80.1993 44.6367 79.552 44.6355C79.2436 44.6355 78.7419 44.5286 78.5405 44.3909C59.7192 46.0975 55.8418 45.2454 55.8418 45.2454C55.4993 45.1396 55.1057 45.0349 54.6699 44.9314C54.4663 45.3648 53.96 45.622 53.3775 45.6845C51.9371 45.8393 50.4911 45.9428 49.0655 46.184C49.0257 46.1908 48.987 46.1942 48.9494 46.1988C48.4136 46.4707 47.7207 46.3979 47.2451 46.0315C46.6933 45.606 46.7275 44.8096 47.2451 44.3784C47.2793 44.35 47.3123 44.3227 47.3464 44.2942C47.3714 44.218 47.3976 44.1418 47.4306 44.0667C47.459 44.0041 47.4875 43.9484 47.5171 43.896C42.3802 43.5194 36.9578 43.8801 36.009 46.1123C35.307 47.7643 39.3607 49.4208 45.5624 50.3947C47.4841 50.5665 49.4068 50.7076 51.3375 50.744C53.0088 50.7758 54.6836 50.7724 56.3515 50.8999C57.5029 50.9875 58.7066 51.1297 59.8557 50.9397C59.9399 50.785 60.0901 50.6644 60.3074 50.6427C62.8843 50.3879 65.476 50.364 68.0587 50.1797C72.5493 49.8588 76.7554 48.3241 81.1391 47.4378C85.583 46.539 90.0736 47.5026 94.5517 47.3308C94.678 47.3263 94.7815 47.357 94.8623 47.4105C95.2594 47.4309 95.6565 47.4696 96.0524 47.5367C96.2538 47.5709 96.3721 47.6835 96.4233 47.8223C96.8078 47.9042 96.9956 47.9634 96.9956 47.9634C96.9956 47.9634 98.172 44.5753 85.4977 44.9439Z" fill="#A1BCD5"/>
<path d="M95.5677 46.913C94.1968 46.6866 92.8269 46.5512 91.4162 46.5103C88.4365 46.425 85.393 46.4636 82.4338 46.7287C79.5781 46.9847 76.8044 47.5741 74.0112 48.0269C71.258 48.4729 68.4785 48.8529 65.6717 49.1089C62.6112 49.3876 59.5576 49.5378 56.4755 49.6504C53.663 49.7539 50.8199 49.8666 48.0085 49.6777C45.4088 49.5025 42.9184 49.0998 40.4176 48.6083C38.8453 48.2988 37.1626 47.8414 36.075 46.9961C37.9374 50.3365 57.6291 53.1808 72.9862 49.6288C87.8118 46.2008 94.868 47.5468 96.2651 47.8915C96.5177 47.9541 96.7896 47.8972 96.9774 47.7163C97.0877 47.6105 97.1287 47.4842 97.0866 47.2896C96.5939 47.136 96.0922 46.9995 95.5677 46.913Z" fill="#013F69"/>
<path d="M55.7712 43.9477C55.3343 44.2447 54.819 44.2492 54.621 43.958C54.4219 43.6656 54.6153 43.1889 55.0511 42.8908C55.4879 42.5938 56.0033 42.5893 56.2013 42.8805C56.4015 43.1729 56.2081 43.6508 55.7712 43.9477Z" fill="white"/>
<path d="M55.8418 45.5248C56.1616 42.9729 51.6801 40.8442 50.4047 40.5461C50.672 40.0296 50.8666 39.6985 50.8859 39.6621C51.8666 39.7372 57.9796 42.4814 55.8418 45.5248Z" fill="#013F69"/>
<path d="M55.9362 45.7863C53.1227 45.3801 51.0747 45.9581 47.5421 46.6839C47.7469 43.4187 49.7959 41.7132 50.4046 40.5459C51.68 40.844 56.2559 43.2343 55.9362 45.7863Z" fill="white"/>
<path d="M76.3368 45.5248C76.0171 42.9729 80.4985 40.8442 81.7739 40.5461C81.5066 40.0296 81.312 39.6985 81.2927 39.6621C80.312 39.7372 74.199 42.4814 76.3368 45.5248Z" fill="#013F69"/>
<path d="M78.2379 44.694C81.1232 44.4711 81.4906 44.7942 83.5966 45.6304C83.3747 43.8294 82.3815 41.7132 81.7728 40.5459C80.4974 40.844 77.9182 42.1421 78.2379 44.694Z" fill="white"/>
<path d="M81.2131 46.6408C81.2131 46.6408 75.3447 48.2256 65.5432 48.2256C55.7417 48.2256 53.2842 46.4109 53.2842 46.4109C53.2649 46.3666 53.2512 46.3222 53.2421 46.2744C53.2421 46.2664 53.2399 46.2573 53.2364 46.2471C53.2342 46.205 53.2342 46.164 53.2364 46.1197C53.2387 46.106 53.2421 46.089 53.2444 46.0753C53.2501 46.0389 53.2581 46.0059 53.2694 45.9695C53.2774 45.9422 53.2888 45.9172 53.3002 45.8887C53.3081 45.8694 53.3172 45.8523 53.3252 45.833C53.3525 45.7806 53.3832 45.7249 53.4196 45.6691C53.4196 45.6691 54.5926 45.6509 54.5949 45.6509C54.6586 45.5565 54.3025 45.6634 54.3867 45.5736C54.7735 45.1537 54.5733 44.6213 54.7212 44.5257C54.7462 44.5121 54.7599 44.503 54.7599 44.503C54.5926 43.4995 55.9329 42.0546 56.3834 41.6006C60.0605 35.6219 65.9517 10.5726 66.1485 10.2393C69.7755 23.5131 76.272 43.0319 75.7441 41.2559C76.925 41.6973 77.4632 42.8351 77.792 43.6406C77.8898 43.8681 78.0605 43.9432 78.1105 44.1241C78.2084 44.4666 78.2379 44.6907 78.2379 44.6907C78.2323 44.693 78.2152 44.7464 78.1902 44.8238C78.1151 45.0605 77.9785 45.5212 77.9683 45.5212C78.5576 46.1436 79.7534 45.8967 80.4338 46.2551C80.8888 46.4963 81.2131 46.6408 81.2131 46.6408Z" fill="#A1BCD5"/>
<path d="M61.2363 58.5034C61.8401 55.7146 60.5661 53.072 58.3908 52.6011C56.2155 52.1301 53.9626 54.0092 53.3588 56.798C52.7551 59.5869 54.0291 62.2294 56.2044 62.7004C58.3797 63.1713 60.6326 61.2923 61.2363 58.5034Z" fill="#013F69"/>
<path d="M57.801 57.8829C58.5141 57.8829 59.0923 57.2238 59.0923 56.4107C59.0923 55.5976 58.5141 54.9385 57.801 54.9385C57.0878 54.9385 56.5096 55.5976 56.5096 56.4107C56.5096 57.2238 57.0878 57.8829 57.801 57.8829Z" fill="white"/>
<path d="M76.106 63.2671C78.2813 62.7962 79.5553 60.1536 78.9515 57.3647C78.3478 54.5759 76.0949 52.6969 73.9196 53.1678C71.7443 53.6387 70.4703 56.2813 71.074 59.0702C71.6778 61.859 73.9307 63.738 76.106 63.2671Z" fill="#013F69"/>
<path d="M74.6165 57.8829C75.3297 57.8829 75.9078 57.2238 75.9078 56.4107C75.9078 55.5976 75.3297 54.9385 74.6165 54.9385C73.9033 54.9385 73.3252 55.5976 73.3252 56.4107C73.3252 57.2238 73.9033 57.8829 74.6165 57.8829Z" fill="white"/>
<path d="M47.7571 47.5383C47.4681 47.5383 47.1837 47.4405 46.955 47.255C46.6365 46.9968 46.4613 46.5986 46.4874 46.189C46.5409 45.3277 46.6183 44.9568 46.7866 44.1445C46.8174 43.9989 46.8504 43.8384 46.8879 43.6553L48.1917 43.9204C48.1542 44.1047 48.1201 44.2674 48.0905 44.4141C47.9312 45.1787 47.8686 45.4825 47.822 46.1878C48.1075 46.1082 48.4125 46.0229 48.7287 45.9341C50.8825 45.3289 53.5618 44.5757 54.7553 44.5029L54.8372 45.8306C53.7848 45.8955 51.0702 46.6577 49.0883 47.2152C48.7401 47.3131 48.4068 47.4063 48.0973 47.4928C47.9847 47.5235 47.8698 47.5383 47.7571 47.5383Z" fill="#013F69"/>
<path d="M84.5102 46.2926C84.4112 46.2926 84.3111 46.279 84.2132 46.2528C82.5453 45.7943 79.0719 44.8386 77.8989 44.9103L77.8192 43.5826C79.0548 43.5086 81.7603 44.2026 84.269 44.8887C84.2326 44.6077 84.1939 44.4199 84.1507 44.2106L84.1233 44.0764L85.4272 43.8101L85.4533 43.9387C85.5159 44.2413 85.5762 44.5269 85.6274 45.0639C85.6627 45.4314 85.5148 45.7909 85.2326 46.0287C85.0267 46.2005 84.7707 46.2926 84.5102 46.2926Z" fill="#013F69"/>
<path d="M77.9136 44.7497C77.9079 44.752 78.0115 44.8441 77.9864 44.9215C72.6881 47.5872 67.161 48.0616 63.2643 48.0662H63.2256C59.1889 48.0662 56.0511 47.1901 53.6471 45.3891C54.0339 44.9693 54.5755 44.6189 54.7234 44.5244C56.8578 46.0149 59.6463 46.7373 63.2267 46.7373H63.2631C67.0495 46.7316 72.795 46.1059 77.8954 43.5039C77.9933 43.7315 78.0627 43.9431 78.1127 44.124C78.2083 44.4676 77.9136 44.7497 77.9136 44.7497Z" fill="#013F69"/>
<path d="M97.2335 47.3853C96.8421 47.4934 96.5202 47.399 96.1629 47.2454C96.1402 47.2363 96.1185 47.2261 96.0958 47.2158C96.0708 47.2454 96.0378 47.2682 95.99 47.2761C95.8865 47.2932 95.7499 47.2545 95.6111 47.2443C95.5065 47.2363 95.3699 47.2738 95.3688 47.3785C95.3676 47.4559 95.4416 47.5116 95.5076 47.5503C95.8193 47.7346 96.1572 47.8746 96.5088 47.9633C96.6988 48.0122 96.9206 48.0395 97.0765 47.9201C97.2312 47.8006 97.2836 47.655 97.279 47.3796C97.2767 47.3808 97.2347 47.3853 97.2335 47.3853Z" fill="#013F69"/>
<path d="M44.7762 50.5223L46.1916 50.6645C46.1916 50.6645 44.7319 49.8431 44.6772 49.8647" fill="#013F69"/>
<path d="M95.6667 46.9282C95.9136 46.9782 96.3289 47.0863 96.4529 47.0385C96.5564 46.9987 96.5723 46.6267 95.7031 46.1488C95.3083 45.9315 95.0102 45.5037 94.5597 45.5094C95.0876 45.415 95.6951 45.5322 96.1354 45.8371C96.5757 46.142 96.8886 46.6267 96.9853 47.1534C97.0104 47.2911 97.0149 47.4515 96.9159 47.5505C96.8135 47.6529 96.6486 47.6449 96.5052 47.629C96.2162 47.5983 95.8863 47.5425 95.7361 47.2945" fill="#013F69"/>
<path d="M56.9096 37.6163L53.8191 45.3447L54.9547 45.7988L58.0452 38.0704L56.9096 37.6163Z" fill="#013F69"/>
<path d="M77.5029 45.0589C76.0284 42.4535 75.1615 39.8367 74.4447 37.3975L75.6177 37.0527C76.314 39.4226 77.1536 41.9586 78.5667 44.457L77.5029 45.0589Z" fill="#013F69"/>
</svg>
