<svg width="163" height="163" viewBox="0 0 163 163" fill="none" xmlns="http://www.w3.org/2000/svg">
<path d="M163 81.5C163 126.511 126.511 163 81.5 163C36.4888 163 0 126.511 0 81.5C0 36.4888 36.4888 0 81.5 0C126.511 0 163 36.4888 163 81.5Z" fill="white"/>
<path d="M91.9331 118.894L91.9337 118.834L91.9478 116.128L91.9484 116.069L91.942 116.01L91.8606 115.426C91.3869 112.523 89.8913 109.876 87.634 107.971C85.2262 105.938 82.1333 104.901 78.9868 105.072C75.8402 105.243 72.8774 106.611 70.7047 108.893C68.532 111.175 67.3127 114.201 67.2961 117.352L67.2968 117.354C67.2927 118.734 67.5199 120.101 67.9645 121.398L45.8366 118.627L48.9788 93.5343L47.2808 94.4328C45.6983 95.2702 43.9273 95.6829 42.1417 95.6326L41.7845 95.6164C39.1497 95.4445 36.6797 94.2729 34.8791 92.3414C33.078 90.4093 32.082 87.8621 32.0958 85.2207C32.1097 82.5795 33.1321 80.0432 34.9531 78.1301C36.6606 76.3366 38.9502 75.2178 41.403 74.9666L41.895 74.9278C43.2577 74.8547 44.6215 75.0509 45.908 75.5061C47.1947 75.9615 48.3786 76.6669 49.392 77.5811L50.8157 78.8656L54.0592 52.9644L79.7956 56.1872L78.9243 54.5004C78.2075 53.1133 77.8136 51.5828 77.7713 50.0246L77.7681 49.7123C77.7826 47.0717 78.8044 44.5362 80.6251 42.6236C82.4463 40.7107 84.9295 39.5651 87.567 39.4213C88.2574 39.3838 88.9498 39.4154 89.6338 39.5158C91.8945 39.8473 93.9821 40.9175 95.5723 42.5585C97.1501 44.1869 98.1493 46.2873 98.4188 48.5376L98.4048 51.1095C98.1374 53.1574 97.2646 55.0792 95.8969 56.6278L94.6445 58.0466L119.722 61.187L116.935 83.4457C116.092 82.8862 115.181 82.4315 114.223 82.0924C112.688 81.5491 111.06 81.3139 109.434 81.4013L109.433 81.4021C106.287 81.5737 103.325 82.9399 101.152 85.2221C98.9796 87.5044 97.7603 90.5305 97.7437 93.6815C97.7272 96.8326 98.9148 99.8715 101.064 102.176C103.212 104.481 106.161 105.879 109.305 106.083L109.307 106.084C110.968 106.188 112.627 105.953 114.185 105.404L111.5 126.85L90.0198 124.16C91.0369 122.598 91.6919 120.819 91.9257 118.953L91.9331 118.894Z" fill="url(#paint0_linear_534_406)" stroke="#013F69" stroke-width="2"/>
<defs>
<linearGradient id="paint0_linear_534_406" x1="54" y1="59.5" x2="88.7851" y2="125.014" gradientUnits="userSpaceOnUse">
<stop stop-color="#251D3F"/>
<stop offset="0.615387" stop-color="#196090"/>
<stop offset="1" stop-color="#269DED"/>
</linearGradient>
</defs>
</svg>
