<svg width="199" height="178" viewBox="0 0 199 178" fill="none" xmlns="http://www.w3.org/2000/svg">
<path d="M49.1118 174.614H45.2197L44.3462 177.046H43.083L46.6316 167.754H47.7041L51.259 177.046H50.0021L49.1118 174.614ZM45.5884 173.613H48.7474L47.1637 169.266L45.5884 173.613Z" fill="#A1BCD5"/>
<path d="M56.4354 177.046H55.21V167.754H56.4354V177.046Z" fill="#A1BCD5"/>
<path d="M68.3661 173.408V177.046H67.1406V167.754H70.5677C71.5837 167.754 72.3818 168.013 72.9579 168.533C73.534 169.052 73.823 169.74 73.823 170.594C73.823 171.497 73.5402 172.19 72.9767 172.679C72.4132 173.167 71.6046 173.41 70.5552 173.41H68.3661V173.408ZM68.3661 172.406H70.5677C71.2234 172.406 71.7241 172.251 72.0739 171.943C72.4237 171.635 72.5976 171.187 72.5976 170.605C72.5976 170.052 72.4237 169.608 72.0739 169.274C71.7241 168.941 71.2464 168.77 70.6389 168.757H68.3661V172.406Z" fill="#A1BCD5"/>
<path d="M83.2517 172.752H79.2255V176.045H83.9032V177.046H78V167.754H83.8403V168.755H79.2255V171.748H83.2517V172.752Z" fill="#A1BCD5"/>
<path d="M90.4532 172.873H89.3241V177.046H88.0986V167.754H89.3241V171.851H90.2814L93.5305 167.754H95.0555L91.5069 172.26L95.3173 177.046H93.8174L90.4532 172.873Z" fill="#A1BCD5"/>
<path d="M100.28 173.408V177.046H99.0547V167.754H102.482C103.498 167.754 104.296 168.013 104.872 168.533C105.448 169.052 105.737 169.74 105.737 170.594C105.737 171.497 105.454 172.19 104.891 172.679C104.327 173.167 103.519 173.41 102.469 173.41H100.28V173.408ZM100.28 172.406H102.482C103.137 172.406 103.638 172.251 103.988 171.943C104.338 171.635 104.512 171.187 104.512 170.605C104.512 170.052 104.338 169.608 103.988 169.274C103.638 168.941 103.161 168.77 102.553 168.757H100.28V172.406Z" fill="#A1BCD5"/>
<path d="M113.104 173.148L115.243 167.756H116.665L113.379 175.496C113.157 175.99 112.951 176.34 112.761 176.545C112.57 176.753 112.344 176.91 112.086 177.017C111.828 177.126 111.506 177.18 111.12 177.18C110.785 177.18 110.57 177.161 110.475 177.124L110.513 176.154L111.093 176.179C111.539 176.179 111.872 175.963 112.088 175.534L112.247 175.203L112.49 174.635L109.325 167.756H110.697L113.104 173.148Z" fill="#A1BCD5"/>
<path d="M127.278 168.757H124.291V177.046H123.072V168.757H120.091V167.756H127.276V168.757H127.278Z" fill="#A1BCD5"/>
<path d="M137.127 167.754H138.353V177.046H137.127V169.886L132.552 177.046H131.32V167.754H132.552V174.914L137.127 167.754Z" fill="#A1BCD5"/>
<path d="M150.343 177.046H149.112V172.752H144.428V177.046H143.202V167.754H144.428V171.748H149.112V167.754H150.343V177.046Z" fill="#A1BCD5"/>
<path d="M160.895 168.757H156.414V177.046H155.183V167.754H160.895V168.757Z" fill="#A1BCD5"/>
<path d="M19.3075 157.77L12.7675 148.607C11.9066 148.725 11.0456 148.802 10.105 148.802H2.27467V157.77H0.27832V130.359H10.1071C16.999 130.359 21.1488 133.805 21.1488 139.602C21.1488 143.948 18.7985 146.963 14.7262 148.178L21.5783 157.772H19.3075V157.77ZM10.105 147.042C15.9789 147.042 19.1106 144.302 19.1106 139.602C19.1106 134.863 15.9789 132.161 10.105 132.161H2.27467V147.04H10.105V147.042Z" fill="#013F69"/>
<path d="M47.3817 155.968V157.77H28.4678V130.359H46.7931V132.161H30.4641V142.968H45.0691V144.73H30.4641V155.968H47.3817Z" fill="#013F69"/>
<path d="M62.8087 144.26L56.6604 150.566V157.77H54.6641V130.359H56.6604V147.981L73.7729 130.359H76.2007L64.1409 142.811L77.024 157.77H74.5961L62.8087 144.26Z" fill="#013F69"/>
<path d="M101.219 157.77L94.6787 148.607C93.8177 148.725 92.9567 148.802 92.0162 148.802H84.1858V157.77H82.1895V130.359H92.0183C98.9102 130.359 103.06 133.805 103.06 139.602C103.06 143.948 100.712 146.963 96.6373 148.178L103.489 157.772H101.219V157.77ZM92.0162 147.042C97.89 147.042 101.024 144.302 101.024 139.602C101.024 134.863 97.89 132.161 92.0162 132.161H84.1858V147.04H92.0162V147.042Z" fill="#013F69"/>
<path d="M110.145 146.141V130.361H112.141V146.064C112.141 152.916 115.43 156.127 121.146 156.127C126.863 156.127 130.112 152.916 130.112 146.064V130.361H132.109V146.141C132.109 153.974 127.919 157.967 121.105 157.967C114.296 157.967 110.145 153.972 110.145 146.141Z" fill="#013F69"/>
<path d="M138.571 156.243C138.571 155.302 139.315 154.598 140.216 154.598C141.116 154.598 141.86 155.302 141.86 156.243C141.86 157.183 141.116 157.927 140.216 157.927C139.315 157.927 138.571 157.183 138.571 156.243Z" fill="#013F69"/>
<path d="M167.94 157.77L161.4 148.607C160.539 148.725 159.678 148.802 158.738 148.802H150.907V157.77H148.911V130.359H158.74C165.632 130.359 169.782 133.805 169.782 139.602C169.782 143.948 167.433 146.963 163.359 148.178L170.211 157.772H167.94V157.77ZM158.738 147.042C164.612 147.042 167.746 144.302 167.746 139.602C167.746 134.863 164.612 132.161 158.738 132.161H150.907V147.04H158.738V147.042Z" fill="#013F69"/>
<path d="M176.864 146.141V130.361H178.861V146.064C178.861 152.916 182.149 156.127 187.866 156.127C193.583 156.127 196.834 152.916 196.834 146.064V130.361H198.83V146.141C198.83 153.974 194.641 157.967 187.826 157.967C181.016 157.967 176.864 153.972 176.864 146.141Z" fill="#013F69"/>
<path d="M145.884 82.7172V94.0689C145.884 97.7599 142.123 100.76 137.469 100.797C141.977 91.7018 141.181 82.7402 139.846 76.2756C143.34 77.1136 145.884 79.6818 145.884 82.7172Z" fill="#013F69"/>
<path d="M64.6114 101.623C64.3286 101.677 64.0311 101.707 63.7274 101.707H63.3377C58.9596 101.707 55.4131 98.6942 55.4131 94.9801V83.6263C55.4131 80.4296 58.0379 77.7525 61.5613 77.0696C60.3107 83.6933 59.986 93.2268 64.6114 101.623Z" fill="#013F69"/>
<path d="M127.223 68.9647C125.968 68.3007 124.179 67.2386 123.09 66.0949C123.119 66.0907 123.147 66.0865 123.176 66.0823C123.176 66.0823 122.533 61.2265 118.586 59.756C119.56 63.0218 107.599 27.0875 100.921 2.64748C100.803 2.21595 89.791 49.2568 82.941 60.3886C82.1114 61.2244 79.6459 63.8869 79.9496 65.7325C79.9496 65.7325 78.2382 66.7589 77.4882 67.8796C77.4212 67.9802 77.3625 68.0807 77.3144 68.1813C77.2976 68.2148 77.2829 68.2483 77.2683 68.2818C77.2473 68.3321 77.2264 68.3824 77.2096 68.4327C77.1887 68.4976 77.1719 68.5604 77.1614 68.6254C77.1572 68.6526 77.151 68.6819 77.1489 68.7092C77.1405 68.7888 77.1405 68.8684 77.1489 68.9459C77.151 68.9627 77.1551 68.9794 77.1572 68.9962C77.1719 69.0821 77.1949 69.1658 77.2348 69.2475C77.2348 69.2475 81.7574 72.5888 99.8042 72.5888C117.851 72.5888 128.652 69.6707 128.652 69.6707C128.652 69.6707 128.055 69.4047 127.223 68.9647Z" fill="white"/>
<path d="M99.8021 74.893C92.133 74.893 85.8717 74.3086 81.1982 73.1544C77.6412 72.2766 76.2167 71.3591 75.8648 71.0994C75.5632 70.8773 75.3223 70.584 75.1589 70.2468C75.0332 69.9849 74.9452 69.7105 74.8907 69.4089C74.8782 69.3439 74.8677 69.279 74.8593 69.214C74.83 68.9689 74.8279 68.7155 74.8551 68.4599C74.8614 68.3971 74.874 68.3175 74.8865 68.2358C74.9201 68.0472 74.962 67.8776 75.0164 67.7142C75.0583 67.5822 75.1086 67.4628 75.1442 67.3748C75.1798 67.2952 75.2112 67.224 75.2468 67.1548C75.3369 66.9726 75.4438 66.7862 75.5632 66.6081C75.5653 66.6039 75.5673 66.6018 75.5694 66.5976C76.1476 65.7346 77.0191 64.9825 77.7145 64.463C78.1125 62.4541 79.6585 60.4599 81.106 58.9663C86.4603 49.9565 94.7704 17.2964 97.5146 6.50402C97.8686 5.11307 98.1514 4.00282 98.3504 3.23822C98.4552 2.83811 98.539 2.52808 98.5976 2.3186C99.0815 0.611337 100.244 0.345296 100.894 0.341107C101.933 0.334822 102.863 1.0303 103.137 2.03999C108.783 22.7031 118.396 52.1309 120.405 58.0571C123.765 59.8461 124.942 63.4408 125.308 65.0181C126.025 65.6131 127.058 66.2729 128.298 66.9286C129.041 67.3224 129.582 67.5654 129.588 67.5675C130.476 67.9655 131.021 68.8789 130.943 69.8509C130.868 70.8228 130.189 71.6398 129.249 71.8933C128.798 72.0169 117.945 74.893 99.8021 74.893ZM80.4482 68.175C83.4648 69.1575 89.6235 70.2866 99.8021 70.2866C109.237 70.2866 117.137 69.4403 122.401 68.5898C122.032 68.286 121.705 67.9844 121.42 67.6848C120.964 67.2051 120.744 66.562 120.792 65.9189C120.576 65.0538 119.96 63.2103 118.475 62.2635C118.341 62.253 118.205 62.2321 118.071 62.1985C116.864 61.8906 116.523 60.9186 116.32 60.3363C116.227 60.0744 116.096 59.689 115.928 59.1925C115.57 58.1325 115.088 56.685 114.537 55.0071C113.728 52.5457 112.055 47.4239 109.941 40.7624C107.373 32.6681 103.977 21.7479 101.005 11.454C91.5067 48.3163 87.2752 57.7387 84.8997 61.5973C84.8075 61.7482 84.6965 61.8864 84.5729 62.0121C83.006 63.5916 82.2519 64.9511 82.2246 65.3931C82.3608 66.3127 81.9314 67.2282 81.1311 67.7079C80.9405 67.8231 80.6975 67.9886 80.4482 68.175Z" fill="#013F69"/>
<path d="M77.4758 77.3922C76.3656 77.3922 75.2553 77.3838 74.1472 77.365C66.9012 77.2497 60.3927 76.7386 55.3254 75.8881C49.6086 74.9308 46.0936 73.6215 44.579 71.8871C43.6343 70.804 43.3892 69.5157 43.8856 68.2568C44.9205 65.6404 47.9223 63.91 52.8032 63.1119C57.3867 62.3641 62.7473 62.5526 66.4404 62.8438L69.1196 63.0554L67.89 65.4455C67.8481 65.5251 67.8209 65.5859 67.7957 65.6424C67.7664 65.7137 67.7329 65.8205 67.7015 65.9273L67.5548 66.4029L67.0039 66.893C66.9075 66.9789 66.8761 67.1088 66.8761 67.1989C66.8782 67.3204 66.9306 67.3644 66.9515 67.3811C67.249 67.6283 67.7119 67.6849 68.0303 67.511L68.3362 67.3455L68.6818 67.3057C68.7216 67.3015 68.7489 67.2994 68.7782 67.2931C70.7138 66.9412 72.6703 66.7359 74.5619 66.5369C75.2637 66.4636 75.9655 66.3903 76.6672 66.3086C77.2223 66.2437 77.5114 66.0321 77.5638 65.9127L78.1713 64.5217L79.6418 64.8967C80.4756 65.1083 81.2276 65.3261 81.8749 65.5398L81.9964 65.5796L82.1116 65.6383C82.1221 65.6424 84.7343 66.8637 91.4146 67.5257C102.574 68.6338 116.309 67.3665 125.864 66.1096C142.817 63.8765 153.257 64.5762 156.9 68.1855C158.01 69.2874 158.306 70.5108 158.21 71.29L154.661 70.8543C154.64 71.0303 154.657 71.1015 154.657 71.1057C154.644 71.0554 152.656 66.1892 126.331 69.6561C123.859 69.9808 121.509 70.2573 119.276 70.4898L119.847 72.8088C107.909 75.7499 92.6317 77.3922 77.4758 77.3922ZM47.2415 69.5053C47.8742 70.4018 53.5406 73.3178 72.9008 73.764C85.2475 74.0489 98.2667 73.1397 109.424 71.2837C106.319 71.4555 103.51 71.5288 100.979 71.5288C87.1915 71.5288 81.6277 69.3398 80.6578 68.9041C80.4148 68.8245 80.1551 68.7448 79.8785 68.6652C79.1621 69.3083 78.1901 69.7336 77.0757 69.8635C76.3614 69.9452 75.647 70.0206 74.9327 70.096C73.0223 70.2971 71.2186 70.4856 69.415 70.8124H69.4129C67.867 71.4911 66.0047 71.2377 64.6724 70.1337C63.824 69.4298 63.3233 68.3845 63.3024 67.2659C63.2961 66.9161 63.3338 66.5704 63.4155 66.2374C59.5338 66.0614 56.1025 66.1976 53.3814 66.6417C49.9878 67.1968 47.8134 68.2128 47.2415 69.5053Z" fill="#013F69"/>
<path d="M135.911 75.7813C136.613 67.9886 134.901 60.816 130.626 54.3619C129.899 53.2643 129.243 53.191 128.254 53.6183C123.21 55.8032 118.547 58.6291 114.678 62.7914C113.972 63.5498 113.222 63.6315 112.321 63.3361C109.169 62.3054 105.936 61.744 102.643 61.6142C98.0641 61.4319 93.556 61.876 89.1632 63.3989C88.6081 63.5917 87.8791 63.8095 87.3093 63.0638C86.2682 61.7021 84.8584 60.7679 83.5932 59.6681C80.4174 56.905 76.785 55.0197 72.9788 53.48C72.2875 53.1993 71.8811 53.2433 71.349 54.01C68.4833 58.1263 66.7928 62.6783 65.9717 67.7436" fill="white"/>
<path d="M137.13 75.8923L134.691 75.6723C135.372 68.1059 133.661 61.1637 129.605 55.0385C129.356 54.6636 129.222 54.6007 129.218 54.6007C129.218 54.6007 129.216 54.6007 129.211 54.6007C129.184 54.6007 129.054 54.607 128.742 54.7432C123.134 57.1731 118.951 59.9948 115.576 63.6251C114.6 64.6746 113.379 64.97 111.942 64.4987C108.959 63.5225 105.815 62.9632 102.597 62.8354C97.7223 62.6427 93.4594 63.2041 89.5673 64.5552C89.0477 64.7354 87.4683 65.2842 86.3392 63.8074C85.6793 62.9443 84.8225 62.253 83.9155 61.5219C83.5468 61.2245 83.1634 60.9165 82.7927 60.5918C80.1239 58.2687 76.8602 56.3708 72.5218 54.6154C72.4946 54.6049 72.4695 54.5944 72.4464 54.586C72.4213 54.6175 72.3899 54.6573 72.3543 54.7096C69.6981 58.5243 68.0055 62.8521 67.1801 67.9404L64.7627 67.5487C65.6467 62.0896 67.4734 57.4329 70.3433 53.3103C71.1644 52.1288 72.149 51.823 73.4373 52.3446C78.0354 54.2048 81.5169 56.2367 84.3973 58.7442C84.7345 59.0375 85.0823 59.3182 85.451 59.6157C86.4292 60.4054 87.4431 61.2245 88.281 62.3201C88.2957 62.3389 88.3062 62.3515 88.3146 62.3599C88.4256 62.3578 88.6749 62.2698 88.7608 62.2405C92.9483 60.7888 97.5024 60.1813 102.691 60.3886C106.135 60.5248 109.501 61.1239 112.7 62.1713C113.274 62.3599 113.482 62.2782 113.779 61.9577C117.393 58.0697 121.836 55.0637 127.766 52.4954C129.383 51.7958 130.651 52.1854 131.643 53.6853C136.017 60.286 137.863 67.7561 137.13 75.8923Z" fill="#013F69"/>
<path d="M65.8602 70.3851C64.132 74.0615 60.0974 88.811 66.74 100.621C67.4481 101.878 68.1603 103.162 69.0276 104.304C72.2117 108.494 76.3238 111.261 81.0308 113.119C83.7938 114.208 86.6281 115.036 89.5084 115.58C94.1736 116.462 98.9078 116.291 103.627 116.268C109.338 116.24 114.851 115.218 120.252 113.186C126.547 110.817 131.52 106.914 134.907 100.642C141.92 87.6609 136.928 74.5768 135.85 69.4236" fill="white"/>
<path d="M99.275 117.518C95.9715 117.518 92.6052 117.409 89.2807 116.781C86.3543 116.228 83.4279 115.377 80.5831 114.256C75.2707 112.162 71.1712 109.149 68.052 105.044C67.1659 103.877 66.4474 102.597 65.7519 101.361L65.6723 101.221C58.5877 88.6224 63.1439 73.2821 64.7527 69.8634L66.969 70.9066C65.5655 73.8917 61.3025 88.4527 67.8069 100.02L67.8865 100.161C68.5422 101.325 69.2188 102.53 70.0023 103.563C72.8428 107.3 76.5967 110.052 81.4797 111.977C84.182 113.044 86.9597 113.848 89.7353 114.374C93.7008 115.124 97.8464 115.088 101.854 115.053C102.442 115.048 103.031 115.042 103.622 115.04C109.221 115.013 114.521 114.03 119.821 112.036C126.189 109.64 130.77 105.722 133.831 100.056C139.669 89.2487 136.812 78.1735 135.276 72.2243C135.023 71.2418 134.803 70.3934 134.652 69.6707L137.049 69.17C137.189 69.8383 137.4 70.6594 137.646 71.6126C139.265 77.8886 142.279 89.5671 135.984 101.221C132.631 107.427 127.626 111.715 120.682 114.328C115.183 116.397 109.445 117.462 103.632 117.489C103.046 117.491 102.461 117.497 101.875 117.501C101.016 117.51 100.146 117.518 99.275 117.518Z" fill="#013F69"/>
<path d="M85.2082 92.8582C85.7357 92.8582 86.1634 92.4305 86.1634 91.903C86.1634 91.3754 85.7357 90.9478 85.2082 90.9478C84.6806 90.9478 84.2529 91.3754 84.2529 91.903C84.2529 92.4305 84.6806 92.8582 85.2082 92.8582Z" fill="white"/>
<path d="M104.001 98.1559C103.406 98.9833 102.733 99.7584 101.981 100.481C101.546 100.9 100.852 100.9 100.417 100.481C99.6645 99.7584 98.99 98.9812 98.395 98.1538C97.9614 97.5484 98.2191 96.6916 98.9187 96.4339C99.7001 96.1448 100.54 95.9458 101.2 95.9731C101.858 95.9437 102.698 96.1428 103.479 96.4339C104.177 96.6937 104.436 97.5505 104.001 98.1559Z" fill="#013F69"/>
<path d="M89.2972 103.65C81.0122 103.935 72.61 103.776 64.3418 103.171C72.6267 102.884 81.029 103.049 89.2972 103.65Z" fill="#013F69"/>
<path d="M86.8416 106.583C83.5968 107.545 80.3289 108.554 77.1574 109.732C73.9795 110.892 70.8352 112.239 67.7412 113.609C73.3176 110.079 80.3079 107.511 86.8416 106.583Z" fill="#013F69"/>
<path d="M86.7726 109.43C85.302 111.85 83.5885 114.244 81.9127 116.529C80.2117 118.798 78.4206 121.134 76.5332 123.243C78.0017 120.824 79.7173 118.429 81.3931 116.144C83.0941 113.875 84.8852 111.542 86.7726 109.43Z" fill="#013F69"/>
<path d="M112.396 103.651C120.665 103.047 129.067 102.884 137.352 103.171C129.084 103.778 120.681 103.936 112.396 103.651Z" fill="#013F69"/>
<path d="M114.85 106.583C121.383 107.513 128.374 110.079 133.952 113.609C130.856 112.241 127.714 110.892 124.536 109.732C121.362 108.554 118.097 107.545 114.85 106.583Z" fill="#013F69"/>
<path d="M114.921 109.43C116.808 111.54 118.601 113.877 120.3 116.144C121.976 118.432 123.69 120.824 125.16 123.243C123.273 121.134 121.48 118.798 119.781 116.529C118.105 114.244 116.391 111.852 114.921 109.43Z" fill="#013F69"/>
<path d="M103.062 96.8571C101.813 96.7083 100.583 96.7125 99.335 96.8655C100.481 96.3103 101.909 96.3082 103.062 96.8571Z" fill="white"/>
<path d="M95.338 123.007C85.2976 123.007 78.8624 121.662 73.8223 118.513C67.9925 114.87 63.8301 108.575 60.7256 98.7005L62.7345 98.0679C65.6798 107.436 69.5573 113.364 74.9367 116.724C79.6186 119.649 85.7208 120.897 95.338 120.897V123.007Z" fill="#013F69"/>
<path d="M99.8632 124.649H96.3104C94.534 124.649 93.0928 123.208 93.0928 121.431C93.0928 119.655 94.534 118.214 96.3104 118.214H99.8632C101.64 118.214 103.081 119.655 103.081 121.431C103.081 123.21 101.642 124.649 99.8632 124.649Z" fill="#013F69"/>
<path d="M91.9887 91.6062C93.1004 86.4713 90.7547 81.6058 86.7495 80.7387C82.7442 79.8716 78.5962 83.3313 77.4845 88.4662C76.3729 93.601 78.7186 98.4666 82.7238 99.3337C86.729 100.201 90.8771 96.7411 91.9887 91.6062Z" fill="#013F69"/>
<path d="M82.1395 84.945C82.5437 84.315 82.4727 83.5486 81.981 83.2331C81.4893 82.9176 80.763 83.1725 80.3588 83.8025C79.9546 84.4324 80.0256 85.1989 80.5173 85.5144C81.009 85.8299 81.7352 85.5749 82.1395 84.945Z" fill="white"/>
<path d="M89.0104 90.4616C90.3235 90.4616 91.388 89.248 91.388 87.751C91.388 86.2539 90.3235 85.0403 89.0104 85.0403C87.6973 85.0403 86.6328 86.2539 86.6328 87.751C86.6328 89.248 87.6973 90.4616 89.0104 90.4616Z" fill="white"/>
<path d="M78.3076 92.6969C78.8481 94.0564 79.5729 95.3845 80.7229 96.2832C83.0314 98.1454 86.3035 97.3955 88.3459 95.4536C89.4038 94.4774 90.2103 93.2227 90.8157 91.8401C90.5706 93.3295 89.9044 94.7875 88.8466 95.948C85.0236 100.102 79.001 98.4387 78.3076 92.6969Z" fill="white"/>
<path d="M119.368 100.375C123.373 99.5075 125.719 94.6419 124.607 89.5071C123.495 84.3722 119.347 80.9125 115.342 81.7796C111.337 82.6467 108.991 87.5122 110.103 92.6471C111.214 97.782 115.362 101.242 119.368 100.375Z" fill="#013F69"/>
<path d="M121.541 86.5658C122.032 86.2503 122.103 85.4838 121.699 84.8539C121.295 84.2239 120.569 83.969 120.077 84.2845C119.585 84.6 119.514 85.3664 119.918 85.9964C120.323 86.6263 121.049 86.8813 121.541 86.5658Z" fill="white"/>
<path d="M119.706 89.3054C121.369 89.3054 122.718 87.9568 122.718 86.2931C122.718 84.6294 121.369 83.2808 119.706 83.2808C118.042 83.2808 116.693 84.6294 116.693 86.2931C116.693 87.9568 118.042 89.3054 119.706 89.3054Z" fill="white"/>
<path d="M123.767 93.7443C123.073 99.4904 117.047 101.145 113.228 96.9976C112.17 95.837 111.504 94.3791 111.259 92.8896C111.866 94.2722 112.671 95.527 113.729 96.5032C115.769 98.4451 119.043 99.195 121.352 97.3327C122.502 96.432 123.226 95.1039 123.767 93.7443Z" fill="white"/>
<path d="M98.4198 105.965C98.0239 105.965 97.6259 105.89 97.2488 105.737C96.457 105.417 95.7867 104.767 95.4075 103.952C95.3028 103.726 95.3991 103.458 95.6254 103.351C95.8516 103.246 96.1197 103.343 96.2266 103.569C96.5115 104.179 97.0058 104.662 97.5882 104.897C98.1831 105.138 98.8807 105.104 99.4086 104.811C100.029 104.468 100.483 103.76 100.655 102.869C100.82 102.019 100.728 101.112 100.64 100.234C100.615 99.9847 100.795 99.7648 101.045 99.7396C101.288 99.7145 101.514 99.8947 101.539 100.144C101.633 101.087 101.732 102.061 101.541 103.041C101.317 104.195 100.699 105.127 99.8464 105.601C99.4149 105.844 98.9205 105.965 98.4198 105.965Z" fill="#013F69"/>
<path d="M104.094 105.965C103.593 105.965 103.099 105.844 102.668 105.605C101.813 105.132 101.195 104.197 100.973 103.045C100.782 102.063 100.885 101.045 100.975 100.148C101 99.8988 101.222 99.7187 101.469 99.7438C101.719 99.7689 101.899 99.991 101.874 100.238C101.786 101.116 101.694 102.023 101.859 102.873C102.031 103.764 102.485 104.472 103.105 104.815C103.633 105.109 104.333 105.142 104.928 104.901C105.51 104.667 106.005 104.183 106.29 103.573C106.394 103.347 106.664 103.248 106.891 103.353C107.117 103.458 107.215 103.728 107.111 103.954C106.732 104.769 106.059 105.419 105.269 105.739C104.888 105.89 104.488 105.965 104.094 105.965Z" fill="#013F69"/>
<path d="M136.541 66.5432C136.294 68.1101 134.62 68.2589 132.756 67.2974C131.843 66.826 130.133 66.6584 129.119 66.472C127.944 66.2562 126.786 65.9776 125.594 65.9755C125.026 65.9755 124.102 65.7786 123.731 65.5252C89.0771 68.6674 81.9381 67.0984 81.9381 67.0984C81.3075 66.9035 80.5827 66.7108 79.7804 66.5202C79.4054 67.3183 78.4732 67.7917 77.4007 67.9069C74.7487 68.1918 72.0862 68.3825 69.4614 68.8266C69.3881 68.8391 69.3169 68.8454 69.2477 68.8538C68.2611 69.3545 66.9853 69.2204 66.1097 68.5459C65.0937 67.7624 65.1566 66.296 66.1097 65.5021C66.1726 65.4497 66.2333 65.3995 66.2962 65.3471C66.3422 65.2067 66.3904 65.0664 66.4512 64.9281C66.5035 64.8129 66.5559 64.7103 66.6104 64.6139C57.1523 63.9205 47.1685 64.5846 45.4214 68.6946C44.129 71.7362 51.5927 74.7863 63.0115 76.5794C66.5496 76.8957 70.0898 77.1555 73.6447 77.2225C76.722 77.2812 79.8055 77.2749 82.8765 77.5095C84.9965 77.6708 87.2128 77.9327 89.3285 77.5828C89.4835 77.2979 89.76 77.0759 90.1602 77.0361C94.9049 76.5669 99.6768 76.5229 104.432 76.1835C112.7 75.5928 120.445 72.7669 128.516 71.135C136.698 69.4801 144.966 71.2544 153.212 70.9381C153.444 70.9297 153.635 70.9863 153.783 71.0848C154.515 71.1225 155.246 71.1937 155.975 71.3173C156.345 71.3801 156.563 71.5875 156.658 71.8431C157.366 71.9939 157.711 72.1028 157.711 72.1028C157.711 72.1028 159.877 65.8645 136.541 66.5432Z" fill="#A1BCD5"/>
<path d="M155.082 70.1693C152.558 69.7524 150.036 69.5031 147.438 69.4277C141.952 69.2706 136.348 69.3418 130.9 69.8299C125.642 70.3012 120.535 71.3864 115.392 72.2201C110.323 73.0412 105.205 73.7409 100.037 74.2122C94.4021 74.7255 88.7797 75.002 83.1049 75.2094C77.9265 75.4 72.6916 75.6074 67.5154 75.2596C62.7287 74.937 58.1432 74.1955 53.5388 73.2905C50.6438 72.7207 47.5456 71.8786 45.543 70.3222C48.9722 76.4725 85.229 81.7095 113.505 75.1696C140.802 68.8579 153.794 71.3361 156.366 71.9708C156.831 72.086 157.332 71.9813 157.678 71.6482C157.881 71.4534 157.956 71.2209 157.879 70.8627C156.972 70.5799 156.048 70.3285 155.082 70.1693Z" fill="#013F69"/>
<path d="M81.8081 64.7102C81.0037 65.2569 80.0547 65.2653 79.6902 64.7291C79.3236 64.1907 79.6798 63.313 80.4821 62.7641C81.2865 62.2174 82.2354 62.209 82.5999 62.7453C82.9686 63.2836 82.6125 64.1635 81.8081 64.7102Z" fill="white"/>
<path d="M81.9378 67.6136C82.5265 62.915 74.275 58.9956 71.9268 58.4468C72.419 57.4957 72.7772 56.8861 72.8129 56.8191C74.6186 56.9573 85.874 62.01 81.9378 67.6136Z" fill="#013F69"/>
<path d="M82.1117 68.0954C76.9313 67.3476 73.1606 68.4118 66.6562 69.7482C67.0333 63.7362 70.8061 60.596 71.9268 58.4468C74.275 58.9956 82.7003 63.3968 82.1117 68.0954Z" fill="white"/>
<path d="M119.674 67.6136C119.085 62.915 127.337 58.9956 129.685 58.4468C129.193 57.4957 128.835 56.8861 128.799 56.8191C126.993 56.9573 115.738 62.01 119.674 67.6136Z" fill="#013F69"/>
<path d="M123.174 66.0844C128.487 65.6739 129.163 66.2688 133.041 67.8085C132.632 64.4924 130.803 60.596 129.683 58.4468C127.334 58.9956 122.585 61.3858 123.174 66.0844Z" fill="white"/>
<path d="M128.652 69.6687C128.652 69.6687 117.847 72.5868 99.8003 72.5868C81.7536 72.5868 77.2288 69.2456 77.2288 69.2456C77.1932 69.1639 77.1681 69.0822 77.1513 68.9942C77.1513 68.9795 77.1471 68.9628 77.1408 68.9439C77.1366 68.8664 77.1366 68.791 77.1408 68.7093C77.145 68.6842 77.1513 68.6527 77.1555 68.6276C77.166 68.5606 77.1806 68.4998 77.2016 68.4328C77.2163 68.3825 77.2372 68.3364 77.2581 68.2841C77.2728 68.2485 77.2896 68.217 77.3042 68.1814C77.3545 68.085 77.4111 67.9824 77.4781 67.8798C77.4781 67.8798 79.6378 67.8462 79.642 67.8462C79.7593 67.6724 79.1037 67.8693 79.2587 67.7038C79.9709 66.9308 79.6022 65.9504 79.8746 65.7745C79.9206 65.7493 79.9458 65.7326 79.9458 65.7326C79.6378 63.885 82.1055 61.2246 82.9351 60.3888C89.7055 49.3806 100.552 3.25929 100.915 2.64551C107.593 27.0856 119.554 63.024 118.582 59.754C120.757 60.5668 121.748 62.6616 122.353 64.1447C122.533 64.5637 122.847 64.702 122.94 65.035C123.12 65.6656 123.174 66.0782 123.174 66.0782C123.164 66.0824 123.132 66.1809 123.086 66.3233C122.948 66.759 122.697 67.6074 122.678 67.6074C123.763 68.7533 125.964 68.2987 127.217 68.9586C128.055 69.4027 128.652 69.6687 128.652 69.6687Z" fill="#A1BCD5"/>
<path d="M91.8706 91.5112C92.9822 86.3764 90.6365 81.5108 86.6313 80.6437C82.6261 79.7766 78.478 83.2363 77.3664 88.3712C76.2547 93.5061 78.6004 98.3716 82.6056 99.2387C86.6108 100.106 90.7589 96.6461 91.8706 91.5112Z" fill="#013F69"/>
<path d="M85.5456 90.3674C86.8587 90.3674 87.9232 89.1538 87.9232 87.6567C87.9232 86.1597 86.8587 84.946 85.5456 84.946C84.2325 84.946 83.168 86.1597 83.168 87.6567C83.168 89.1538 84.2325 90.3674 85.5456 90.3674Z" fill="white"/>
<path d="M119.248 100.28C123.254 99.4133 125.599 94.5477 124.488 89.4128C123.376 84.278 119.228 80.8182 115.223 81.6853C111.218 82.5524 108.872 87.418 109.984 92.5529C111.095 97.6878 115.243 101.147 119.248 100.28Z" fill="#013F69"/>
<path d="M116.507 90.3674C117.82 90.3674 118.884 89.1538 118.884 87.6567C118.884 86.1597 117.82 84.946 116.507 84.946C115.193 84.946 114.129 86.1597 114.129 87.6567C114.129 89.1538 115.193 90.3674 116.507 90.3674Z" fill="white"/>
<path d="M67.0525 71.3214C66.5204 71.3214 65.9967 71.1413 65.5756 70.7998C64.9891 70.3243 64.6665 69.5911 64.7147 68.837C64.8131 67.2512 64.9556 66.5683 65.2656 65.0726C65.3222 64.8045 65.3829 64.5091 65.4521 64.1719L67.8527 64.66C67.7836 64.9993 67.7207 65.2989 67.6663 65.5691C67.373 66.9768 67.2578 67.5361 67.1719 68.8349C67.6977 68.6883 68.2591 68.5312 68.8414 68.3678C72.8069 67.2533 77.7402 65.8666 79.9376 65.7325L80.0884 68.1771C78.1507 68.2965 73.1525 69.7001 69.5034 70.7265C68.8624 70.9067 68.2486 71.0784 67.6788 71.2376C67.4714 71.2942 67.2599 71.3214 67.0525 71.3214Z" fill="#013F69"/>
<path d="M134.723 69.0277C134.541 69.0277 134.356 69.0025 134.176 68.9543C131.105 68.1101 124.71 66.3505 122.55 66.4825L122.403 64.0378C124.678 63.9017 129.66 65.1795 134.279 66.4427C134.212 65.9253 134.141 65.5796 134.061 65.1942L134.011 64.947L136.411 64.4568L136.459 64.6935C136.575 65.2507 136.686 65.7765 136.78 66.7653C136.845 67.4419 136.573 68.1038 136.053 68.5417C135.674 68.858 135.203 69.0277 134.723 69.0277Z" fill="#013F69"/>
<path d="M122.578 66.1871C122.567 66.1913 122.758 66.361 122.712 66.5034C112.956 71.4116 102.78 72.2851 95.6048 72.2935H95.5336C88.1012 72.2935 82.3238 70.6805 77.8975 67.3644C78.6097 66.5914 79.6068 65.9462 79.8791 65.7723C83.809 68.5165 88.9434 69.8467 95.5357 69.8467H95.6027C102.574 69.8363 113.153 68.6841 122.544 63.8933C122.724 64.3123 122.852 64.7019 122.944 65.035C123.12 65.6676 122.578 66.1871 122.578 66.1871Z" fill="#013F69"/>
<path d="M158.149 71.0387C157.429 71.2377 156.836 71.0638 156.178 70.781C156.136 70.7643 156.096 70.7454 156.054 70.7266C156.008 70.781 155.948 70.8229 155.86 70.8376C155.669 70.869 155.418 70.7978 155.162 70.7789C154.969 70.7643 154.718 70.8334 154.716 71.0261C154.714 71.1686 154.85 71.2712 154.971 71.3424C155.545 71.6818 156.168 71.9394 156.815 72.1028C157.165 72.1929 157.573 72.2432 157.86 72.0232C158.145 71.8033 158.241 71.5352 158.233 71.0282C158.229 71.0303 158.151 71.0387 158.149 71.0387Z" fill="#013F69"/>
<path d="M61.5641 76.8141L64.17 77.076C64.17 77.076 61.4824 75.5635 61.3818 75.6033" fill="#013F69"/>
<path d="M155.265 70.1965C155.719 70.2887 156.484 70.4877 156.712 70.3997C156.903 70.3264 156.932 69.6414 155.332 68.7616C154.605 68.3615 154.056 67.5738 153.227 67.5843C154.199 67.4105 155.317 67.6262 156.128 68.1876C156.939 68.749 157.515 69.6414 157.693 70.6113C157.739 70.8648 157.747 71.1601 157.565 71.3424C157.376 71.5309 157.073 71.5163 156.809 71.4869C156.277 71.4304 155.669 71.3277 155.393 70.8711" fill="#013F69"/>
<path d="M83.9043 53.0519L78.2139 67.2817L80.3048 68.1179L85.9952 53.8881L83.9043 53.0519Z" fill="#013F69"/>
<path d="M121.821 66.7548C119.106 61.9577 117.51 57.1397 116.19 52.6484L118.35 52.0137C119.632 56.3771 121.178 61.0465 123.78 65.6467L121.821 66.7548Z" fill="#013F69"/>
</svg>
