<svg width="44" height="44" viewBox="0 0 44 44" fill="none" xmlns="http://www.w3.org/2000/svg">
<circle cx="22" cy="22" r="22" fill="white"/>
<path d="M35.7337 28.1729V31.6486C35.7337 32.7788 34.5824 33.6972 33.1572 33.7088C34.5375 30.9238 34.2938 28.1799 33.8852 26.2006C34.9551 26.4571 35.7337 27.2435 35.7337 28.1729Z" fill="#013F69"/>
<path d="M10.8496 33.9615C10.763 33.9782 10.6719 33.9872 10.5789 33.9872H10.4596C9.11909 33.9872 8.0332 33.0648 8.0332 31.9276V28.4512C8.0332 27.4725 8.83688 26.6528 9.91571 26.4437C9.5328 28.4718 9.43338 31.3908 10.8496 33.9615Z" fill="#013F69"/>
<path d="M30.0195 23.962C29.6353 23.7587 29.0875 23.4335 28.754 23.0833C28.763 23.082 28.7713 23.0807 28.7803 23.0795C28.7803 23.0795 28.5834 21.5927 27.375 21.1424C27.6732 22.1424 24.0109 11.1398 21.9661 3.6566C21.9302 3.52448 18.5583 17.9277 16.4609 21.3361C16.2069 21.5921 15.452 22.4073 15.545 22.9723C15.545 22.9723 15.021 23.2866 14.7914 23.6298C14.7709 23.6606 14.7529 23.6914 14.7381 23.7221C14.733 23.7324 14.7285 23.7427 14.724 23.7529C14.7176 23.7683 14.7112 23.7837 14.7061 23.7991C14.6997 23.819 14.6945 23.8382 14.6913 23.8581C14.69 23.8665 14.6881 23.8754 14.6875 23.8838C14.6849 23.9081 14.6849 23.9325 14.6875 23.9563C14.6881 23.9614 14.6894 23.9665 14.69 23.9716C14.6945 23.9979 14.7016 24.0236 14.7138 24.0486C14.7138 24.0486 16.0985 25.0716 21.6242 25.0716C27.1499 25.0716 30.4569 24.1782 30.4569 24.1782C30.4569 24.1782 30.2741 24.0967 30.0195 23.962Z" fill="white"/>
<path d="M21.6228 25.7772C19.2746 25.7772 17.3575 25.5983 15.9265 25.2449C14.8374 24.9761 14.4013 24.6952 14.2935 24.6156C14.2012 24.5477 14.1274 24.4579 14.0774 24.3546C14.0389 24.2744 14.012 24.1904 13.9953 24.098C13.9914 24.0781 13.9882 24.0583 13.9857 24.0384C13.9767 23.9633 13.976 23.8857 13.9844 23.8075C13.9863 23.7882 13.9902 23.7639 13.994 23.7388C14.0043 23.6811 14.0171 23.6292 14.0338 23.5791C14.0466 23.5387 14.062 23.5022 14.0729 23.4752C14.0838 23.4509 14.0934 23.4291 14.1043 23.4079C14.1319 23.3521 14.1646 23.295 14.2012 23.2405C14.2018 23.2392 14.2025 23.2386 14.2031 23.2373C14.3801 22.973 14.647 22.7428 14.8599 22.5837C14.9818 21.9686 15.4551 21.358 15.8983 20.9007C17.5377 18.142 20.0822 8.14194 20.9224 4.83745C21.0308 4.41156 21.1174 4.07162 21.1783 3.83751C21.2104 3.715 21.236 3.62007 21.254 3.55593C21.4022 3.03319 21.7581 2.95174 21.957 2.95045C22.2751 2.94853 22.5599 3.16147 22.6439 3.47063C24.3725 9.79739 27.3159 18.8078 27.931 20.6223C28.9598 21.17 29.3202 22.2707 29.4325 22.7537C29.6519 22.9358 29.9681 23.1379 30.3478 23.3386C30.5755 23.4592 30.7409 23.5336 30.7429 23.5342C31.0148 23.6561 31.1816 23.9358 31.1579 24.2334C31.1348 24.531 30.927 24.7811 30.639 24.8587C30.5011 24.8966 27.178 25.7772 21.6228 25.7772ZM15.6969 23.7202C16.6205 24.0211 18.5063 24.3668 21.6228 24.3668C24.5117 24.3668 26.9304 24.1077 28.5422 23.8472C28.4293 23.7542 28.3293 23.6619 28.2421 23.5702C28.1022 23.4233 28.0349 23.2264 28.0496 23.0295C27.9836 22.7646 27.795 22.2001 27.3402 21.9102C27.2992 21.907 27.2575 21.9006 27.2165 21.8903C26.847 21.796 26.7425 21.4984 26.6802 21.3201C26.652 21.24 26.6116 21.1219 26.5603 20.9699C26.4506 20.6454 26.3031 20.2022 26.1344 19.6884C25.8868 18.9348 25.3744 17.3665 24.7272 15.3269C23.9408 12.8485 22.9011 9.50491 21.991 6.35308C19.0829 17.6398 17.7872 20.5248 17.0599 21.7063C17.0317 21.7524 16.9977 21.7948 16.9598 21.8333C16.4801 22.3169 16.2492 22.7331 16.2408 22.8685C16.2825 23.15 16.151 23.4303 15.906 23.5772C15.8477 23.6125 15.7733 23.6632 15.6969 23.7202Z" fill="#013F69"/>
<path d="M14.7874 26.5424C14.4475 26.5424 14.1076 26.5398 13.7683 26.5341C11.5497 26.4988 9.55683 26.3423 8.00528 26.0819C6.2549 25.7888 5.17863 25.3879 4.7149 24.8568C4.42563 24.5252 4.35059 24.1307 4.5026 23.7453C4.81945 22.9442 5.73857 22.4144 7.23303 22.17C8.63642 21.941 10.2778 21.9987 11.4085 22.0879L12.2289 22.1527L11.8524 22.8845C11.8396 22.9089 11.8312 22.9275 11.8235 22.9448C11.8146 22.9666 11.8043 22.9993 11.7947 23.032L11.7498 23.1776L11.5811 23.3277C11.5516 23.354 11.542 23.3938 11.542 23.4214C11.5426 23.4586 11.5586 23.472 11.565 23.4772C11.6561 23.5528 11.7979 23.5702 11.8954 23.5169L11.989 23.4663L12.0948 23.4541C12.107 23.4528 12.1154 23.4521 12.1243 23.4502C12.717 23.3425 13.3161 23.2796 13.8953 23.2187C14.1101 23.1962 14.325 23.1738 14.5399 23.1488C14.7098 23.1289 14.7983 23.0641 14.8144 23.0275L15.0004 22.6016L15.4506 22.7165C15.7059 22.7812 15.9362 22.8479 16.1344 22.9134L16.1716 22.9256L16.2069 22.9435C16.2101 22.9448 17.0099 23.3187 19.0553 23.5214C22.472 23.8607 26.6777 23.4727 29.6031 23.0878C34.794 22.4041 37.9907 22.6183 39.1061 23.7235C39.446 24.0608 39.5365 24.4354 39.507 24.674L38.4204 24.5406C38.414 24.5945 38.4192 24.6163 38.4192 24.6176C38.4153 24.6022 37.8066 23.1122 29.7462 24.1737C28.9893 24.2731 28.2697 24.3578 27.5859 24.429L27.761 25.139C24.1057 26.0395 19.428 26.5424 14.7874 26.5424ZM5.53012 24.1275C5.72382 24.4021 7.45881 25.2949 13.3866 25.4315C17.167 25.5187 21.1533 25.2404 24.5694 24.6721C23.6189 24.7247 22.7587 24.7471 21.9839 24.7471C17.7622 24.7471 16.0587 24.0769 15.7617 23.9435C15.6873 23.9191 15.6078 23.8947 15.5231 23.8703C15.3038 24.0672 15.0062 24.1974 14.6649 24.2372C14.4462 24.2622 14.2275 24.2853 14.0088 24.3084C13.4238 24.37 12.8716 24.4277 12.3193 24.5278H12.3187C11.8453 24.7356 11.2751 24.658 10.8672 24.32C10.6074 24.1044 10.4541 23.7844 10.4477 23.4419C10.4458 23.3348 10.4574 23.2289 10.4824 23.127C9.29385 23.0731 8.24324 23.1148 7.41006 23.2507C6.37099 23.4207 5.70522 23.7318 5.53012 24.1275Z" fill="#013F69"/>
<path d="M32.68 26.0491C32.8949 23.6631 32.3709 21.467 31.0618 19.4908C30.8392 19.1547 30.6385 19.1323 30.3357 19.2631C28.7912 19.9321 27.3635 20.7974 26.1788 22.0718C25.9627 22.304 25.733 22.329 25.4572 22.2386C24.4919 21.923 23.5022 21.7511 22.494 21.7114C21.0919 21.6556 19.7116 21.7915 18.3666 22.2578C18.1966 22.3168 17.9734 22.3835 17.7989 22.1552C17.4801 21.7383 17.0485 21.4522 16.6611 21.1155C15.6887 20.2695 14.5765 19.6922 13.4111 19.2208C13.1994 19.1348 13.075 19.1483 12.9121 19.3831C12.0347 20.6434 11.5171 22.0372 11.2656 23.5881" fill="white"/>
<path d="M33.0523 26.0832L32.3057 26.0158C32.5142 23.6991 31.9902 21.5735 30.7484 19.698C30.6721 19.5832 30.631 19.564 30.6298 19.564C30.6298 19.564 30.6291 19.564 30.6278 19.564C30.6195 19.564 30.5797 19.5659 30.4842 19.6076C28.7671 20.3516 27.4862 21.2156 26.453 22.3271C26.1541 22.6485 25.7801 22.7389 25.3401 22.5946C24.4268 22.2957 23.464 22.1245 22.4788 22.0853C20.9863 22.0263 19.6811 22.1982 18.4893 22.6119C18.3303 22.6671 17.8467 22.8351 17.5009 22.3829C17.2989 22.1187 17.0366 21.907 16.7588 21.6832C16.646 21.5921 16.5286 21.4978 16.4151 21.3984C15.5979 20.6871 14.5986 20.106 13.2703 19.5685C13.2619 19.5653 13.2542 19.5621 13.2472 19.5595C13.2395 19.5691 13.2299 19.5813 13.219 19.5973C12.4057 20.7653 11.8874 22.0905 11.6347 23.6484L10.8945 23.5285C11.1652 21.857 11.7245 20.4312 12.6032 19.1689C12.8546 18.8071 13.1561 18.7135 13.5506 18.8732C14.9584 19.4428 16.0244 20.0649 16.9064 20.8327C17.0096 20.9225 17.1161 21.0084 17.229 21.0995C17.5285 21.3413 17.839 21.5921 18.0955 21.9276C18.1 21.9333 18.1032 21.9372 18.1058 21.9397C18.1398 21.9391 18.2161 21.9122 18.2424 21.9032C19.5246 21.4587 20.919 21.2727 22.5077 21.3362C23.5622 21.3779 24.5929 21.5613 25.5723 21.882C25.7481 21.9397 25.8116 21.9147 25.9026 21.8166C27.0091 20.6262 28.3695 19.7057 30.1853 18.9194C30.6804 18.7052 31.0685 18.8245 31.3725 19.2837C32.7117 21.3048 33.2768 23.592 33.0523 26.0832Z" fill="#013F69"/>
<path d="M11.2318 24.3969C10.7027 25.5226 9.46735 30.0387 11.5012 33.6549C11.718 34.0397 11.9361 34.4329 12.2016 34.7825C13.1766 36.0653 14.4356 36.9126 15.8769 37.4815C16.7229 37.815 17.5907 38.0684 18.4726 38.2351C19.901 38.5052 21.3506 38.4526 22.7956 38.4455C24.5441 38.4372 26.2322 38.1242 27.8858 37.502C29.8132 36.7766 31.3359 35.5817 32.373 33.6613C34.5204 29.6866 32.992 25.6804 32.6616 24.1025" fill="white"/>
<path d="M21.4614 38.8284C20.4499 38.8284 19.4191 38.795 18.4012 38.6026C17.5052 38.4333 16.6092 38.1729 15.7382 37.8297C14.1116 37.1883 12.8563 36.266 11.9013 35.0089C11.63 34.6516 11.41 34.2597 11.197 33.8813L11.1727 33.8383C9.00346 29.9809 10.3985 25.284 10.8911 24.2372L11.5697 24.5566C11.14 25.4706 9.83471 29.929 11.8263 33.4708L11.8506 33.5138C12.0514 33.8704 12.2586 34.2392 12.4984 34.5554C13.3682 35.6997 14.5176 36.5425 16.0127 37.1319C16.8401 37.4584 17.6906 37.7047 18.5404 37.8657C19.7546 38.0953 21.0239 38.0844 22.2509 38.0735C22.4312 38.0722 22.6114 38.0703 22.7923 38.0696C24.5067 38.0613 26.1295 37.7605 27.7522 37.1499C29.7021 36.4161 31.1048 35.2167 32.0419 33.4817C33.8295 30.1727 32.9546 26.7816 32.4844 24.9601C32.4068 24.6592 32.3395 24.3995 32.2933 24.1782L33.0271 24.0249C33.07 24.2295 33.1348 24.4809 33.2099 24.7728C33.7057 26.6944 34.6286 30.2702 32.7012 33.8383C31.6744 35.7388 30.1421 37.0517 28.0158 37.8516C26.3321 38.4853 24.5754 38.8111 22.7955 38.8194C22.6159 38.8201 22.4369 38.822 22.2573 38.8233C21.9944 38.8258 21.7282 38.8284 21.4614 38.8284Z" fill="#013F69"/>
<path d="M17.1558 31.2779C17.3173 31.2779 17.4482 31.1469 17.4482 30.9854C17.4482 30.8239 17.3173 30.6929 17.1558 30.6929C16.9942 30.6929 16.8633 30.8239 16.8633 30.9854C16.8633 31.1469 16.9942 31.2779 17.1558 31.2779Z" fill="white"/>
<path d="M22.9094 32.8999C22.7272 33.1533 22.5213 33.3906 22.291 33.6119C22.1576 33.7402 21.9453 33.7402 21.8119 33.6119C21.5817 33.3906 21.3751 33.1526 21.193 32.8993C21.0602 32.7139 21.1391 32.4516 21.3533 32.3727C21.5926 32.2842 21.8498 32.2233 22.0518 32.2316C22.2532 32.2226 22.5104 32.2835 22.7496 32.3727C22.9632 32.4522 23.0428 32.7146 22.9094 32.8999Z" fill="#013F69"/>
<path d="M18.4066 34.5823C15.8699 34.6695 13.2972 34.6208 10.7656 34.4354C13.3024 34.3475 15.875 34.3982 18.4066 34.5823Z" fill="#013F69"/>
<path d="M17.6549 35.4803C16.6614 35.7747 15.6608 36.0838 14.6897 36.4443C13.7167 36.7996 12.754 37.2121 11.8066 37.6315C13.514 36.5508 15.6544 35.7644 17.6549 35.4803Z" fill="#013F69"/>
<path d="M17.6342 36.352C17.1839 37.0928 16.6593 37.8259 16.1461 38.5257C15.6253 39.2203 15.0769 39.9355 14.499 40.5814C14.9486 39.8406 15.474 39.1074 15.9871 38.4077C16.5079 37.713 17.0563 36.9985 17.6342 36.352Z" fill="#013F69"/>
<path d="M25.4795 34.5823C28.0111 34.3976 30.5837 34.3476 33.1205 34.4355C30.5889 34.6215 28.0162 34.6696 25.4795 34.5823Z" fill="#013F69"/>
<path d="M26.2314 35.4803C28.232 35.7651 30.3723 36.5508 32.0804 37.6315C31.1324 37.2127 30.1703 36.7996 29.1973 36.4443C28.2256 36.0838 27.2256 35.7747 26.2314 35.4803Z" fill="#013F69"/>
<path d="M26.2529 36.352C26.8308 36.9979 27.3799 37.7137 27.9 38.4077C28.4132 39.1081 28.9378 39.8406 29.3881 40.5814C28.8102 39.9355 28.2611 39.2203 27.741 38.5257C27.2279 37.8259 26.7032 37.0934 26.2529 36.352Z" fill="#013F69"/>
<path d="M22.6215 32.5023C22.2392 32.4568 21.8627 32.4581 21.4805 32.5049C21.8313 32.3349 22.2687 32.3343 22.6215 32.5023Z" fill="white"/>
<path d="M20.257 40.5089C17.1828 40.5089 15.2124 40.0971 13.6692 39.1331C11.8842 38.0177 10.6097 36.0903 9.65918 33.0667L10.2743 32.873C11.1761 35.7414 12.3633 37.5565 14.0104 38.5853C15.444 39.4807 17.3124 39.863 20.257 39.863V40.5089Z" fill="#013F69"/>
<path d="M21.6423 41.0117H20.5545C20.0106 41.0117 19.5693 40.5704 19.5693 40.0265C19.5693 39.4826 20.0106 39.0413 20.5545 39.0413H21.6423C22.1862 39.0413 22.6275 39.4826 22.6275 40.0265C22.6275 40.5711 22.1869 41.0117 21.6423 41.0117Z" fill="#013F69"/>
<path d="M19.2311 30.8945C19.5715 29.3223 18.8533 27.8325 17.6269 27.567C16.4006 27.3015 15.1305 28.3608 14.7901 29.9331C14.4498 31.5053 15.168 32.9951 16.3943 33.2606C17.6207 33.5261 18.8907 32.4667 19.2311 30.8945Z" fill="#013F69"/>
<path d="M16.2156 28.8549C16.3393 28.6621 16.3176 28.4274 16.1671 28.3308C16.0165 28.2342 15.7941 28.3122 15.6704 28.5051C15.5466 28.698 15.5683 28.9327 15.7189 29.0293C15.8694 29.1259 16.0918 29.0478 16.2156 28.8549Z" fill="white"/>
<path d="M18.3198 30.5441C18.7218 30.5441 19.0478 30.1725 19.0478 29.7141C19.0478 29.2557 18.7218 28.8842 18.3198 28.8842C17.9177 28.8842 17.5918 29.2557 17.5918 29.7141C17.5918 30.1725 17.9177 30.5441 18.3198 30.5441Z" fill="white"/>
<path d="M15.042 31.2285C15.2075 31.6447 15.4294 32.0514 15.7815 32.3265C16.4883 32.8967 17.4902 32.6671 18.1156 32.0725C18.4395 31.7736 18.6864 31.3894 18.8718 30.9661C18.7967 31.4222 18.5928 31.8686 18.2689 32.2239C17.0983 33.4958 15.2543 32.9865 15.042 31.2285Z" fill="white"/>
<path d="M27.6142 33.5793C28.8406 33.3138 29.5588 31.8241 29.2184 30.2518C28.878 28.6796 27.608 27.6203 26.3816 27.8858C25.1553 28.1513 24.4371 29.6411 24.7774 31.2133C25.1178 32.7855 26.3879 33.8448 27.6142 33.5793Z" fill="#013F69"/>
<path d="M28.2794 29.3512C28.4299 29.2546 28.4516 29.0199 28.3279 28.827C28.2041 28.6341 27.9817 28.5561 27.8312 28.6527C27.6806 28.7493 27.6589 28.9839 27.7827 29.1768C27.9064 29.3697 28.1288 29.4478 28.2794 29.3512Z" fill="white"/>
<path d="M27.7173 30.1901C28.2266 30.1901 28.6396 29.7771 28.6396 29.2677C28.6396 28.7583 28.2266 28.3454 27.7173 28.3454C27.2079 28.3454 26.7949 28.7583 26.7949 29.2677C26.7949 29.7771 27.2079 30.1901 27.7173 30.1901Z" fill="white"/>
<path d="M28.9607 31.5492C28.7484 33.3085 26.903 33.8152 25.7338 32.5453C25.4099 32.1899 25.2059 31.7435 25.1309 31.2875C25.3169 31.7108 25.5632 32.095 25.8871 32.3939C26.5118 32.9885 27.5143 33.2181 28.2211 32.6479C28.5732 32.3721 28.7952 31.9654 28.9607 31.5492Z" fill="white"/>
<path d="M21.2009 35.291C21.0797 35.291 20.9578 35.268 20.8424 35.2211C20.5999 35.123 20.3947 34.9242 20.2786 34.6747C20.2465 34.6054 20.276 34.5233 20.3453 34.4906C20.4145 34.4585 20.4966 34.488 20.5294 34.5573C20.6166 34.7439 20.768 34.8921 20.9463 34.9639C21.1284 35.0377 21.342 35.0274 21.5036 34.9376C21.6935 34.8324 21.8327 34.6157 21.8853 34.3431C21.9359 34.0827 21.9077 33.8049 21.8808 33.5362C21.8731 33.4599 21.9282 33.3925 22.0046 33.3848C22.079 33.3771 22.1482 33.4323 22.1559 33.5086C22.1848 33.7972 22.2149 34.0955 22.1566 34.3957C22.088 34.7491 21.8987 35.0345 21.6377 35.1794C21.5056 35.2538 21.3542 35.291 21.2009 35.291Z" fill="#013F69"/>
<path d="M22.9379 35.2911C22.7846 35.2911 22.6332 35.2539 22.5011 35.1808C22.2394 35.0358 22.0502 34.7498 21.9822 34.397C21.9238 34.0962 21.9552 33.7845 21.9828 33.5099C21.9905 33.4336 22.0585 33.3785 22.1342 33.3862C22.2105 33.3939 22.2657 33.4618 22.258 33.5375C22.231 33.8063 22.2028 34.084 22.2535 34.3444C22.3061 34.617 22.4453 34.8338 22.6351 34.939C22.7968 35.0288 23.011 35.039 23.1931 34.9653C23.3715 34.8934 23.5228 34.7453 23.6101 34.5586C23.6421 34.4894 23.7249 34.4592 23.7941 34.4913C23.8634 34.5234 23.8936 34.6061 23.8615 34.6754C23.7454 34.9249 23.5395 35.1237 23.2977 35.2218C23.181 35.268 23.0584 35.2911 22.9379 35.2911Z" fill="#013F69"/>
<path d="M32.8727 23.2206C32.797 23.7003 32.2846 23.7459 31.7137 23.4515C31.4341 23.3072 30.9107 23.2559 30.6002 23.1988C30.2404 23.1327 29.8857 23.0474 29.5208 23.0468C29.3469 23.0468 29.0641 22.9865 28.9506 22.9089C18.3399 23.871 16.154 23.3906 16.154 23.3906C15.9609 23.3309 15.739 23.2719 15.4934 23.2135C15.3786 23.4579 15.0931 23.6029 14.7647 23.6381C13.9527 23.7254 13.1375 23.7837 12.3338 23.9197C12.3114 23.9236 12.2896 23.9255 12.2684 23.928C11.9663 24.0813 11.5757 24.0403 11.3076 23.8338C10.9965 23.5939 11.0158 23.1449 11.3076 22.9018C11.3268 22.8858 11.3454 22.8704 11.3647 22.8543C11.3788 22.8114 11.3935 22.7684 11.4121 22.7261C11.4282 22.6908 11.4442 22.6594 11.4609 22.6298C8.56497 22.4175 5.50806 22.6209 4.97313 23.8793C4.57739 24.8106 6.86269 25.7445 10.359 26.2935C11.4423 26.3904 12.5263 26.4699 13.6147 26.4904C14.5569 26.5084 15.5011 26.5065 16.4414 26.5783C17.0904 26.6277 17.7691 26.7079 18.4169 26.6008C18.4643 26.5135 18.549 26.4455 18.6715 26.4333C20.1243 26.2897 21.5854 26.2762 23.0414 26.1723C25.573 25.9914 27.9442 25.1262 30.4155 24.6265C32.9208 24.1198 35.4524 24.6631 37.977 24.5662C38.0482 24.5637 38.1065 24.581 38.1521 24.6111C38.3759 24.6227 38.5998 24.6445 38.823 24.6823C38.9365 24.7016 39.0032 24.7651 39.0321 24.8433C39.2489 24.8895 39.3547 24.9229 39.3547 24.9229C39.3547 24.9229 40.0179 23.0128 32.8727 23.2206Z" fill="#A1BCD5"/>
<path d="M38.5492 24.3308C37.7763 24.2032 37.0041 24.1268 36.2087 24.1037C34.5289 24.0556 32.8131 24.0774 31.1449 24.2269C29.535 24.3712 27.9712 24.7034 26.3966 24.9587C24.8444 25.2102 23.2775 25.4244 21.6951 25.5687C19.9698 25.7258 18.2482 25.8105 16.5107 25.874C14.9252 25.9324 13.3223 25.9959 11.7374 25.8894C10.2718 25.7906 8.86778 25.5636 7.45799 25.2865C6.57157 25.112 5.62294 24.8542 5.00977 24.3776C6.05974 26.2608 17.1611 27.8643 25.8187 25.8618C34.1768 23.9293 38.1547 24.6881 38.9424 24.8824C39.0848 24.9177 39.238 24.8856 39.3439 24.7836C39.4061 24.724 39.4292 24.6528 39.4055 24.5431C39.1277 24.4565 38.8449 24.3795 38.5492 24.3308Z" fill="#013F69"/>
<path d="M16.1145 22.6594C15.8682 22.8268 15.5777 22.8294 15.4661 22.6652C15.3538 22.5003 15.4629 22.2316 15.7085 22.0635C15.9548 21.8961 16.2454 21.8936 16.357 22.0578C16.4699 22.2226 16.3608 22.492 16.1145 22.6594Z" fill="white"/>
<path d="M16.1531 23.5484C16.3334 22.1097 13.8069 20.9096 13.0879 20.7416C13.2386 20.4504 13.3483 20.2637 13.3592 20.2432C13.9121 20.2856 17.3583 21.8326 16.1531 23.5484Z" fill="#013F69"/>
<path d="M16.2069 23.6959C14.6207 23.4669 13.4662 23.7928 11.4746 24.202C11.5901 22.3612 12.7452 21.3997 13.0884 20.7416C13.8074 20.9097 16.3871 22.2573 16.2069 23.6959Z" fill="white"/>
<path d="M27.708 23.5484C27.5278 22.1097 30.0543 20.9096 30.7733 20.7416C30.6225 20.4504 30.5129 20.2637 30.502 20.2432C29.9491 20.2856 26.5028 21.8326 27.708 23.5484Z" fill="#013F69"/>
<path d="M28.78 23.0802C30.4066 22.9545 30.6137 23.1366 31.801 23.6081C31.6759 22.5927 31.116 21.3997 30.7728 20.7416C30.0538 20.9097 28.5997 21.6415 28.78 23.0802Z" fill="white"/>
<path d="M30.4575 24.1775C30.4575 24.1775 27.1492 25.071 21.6235 25.071C16.0979 25.071 14.7125 24.048 14.7125 24.048C14.7016 24.0229 14.6939 23.9979 14.6887 23.971C14.6887 23.9665 14.6875 23.9614 14.6855 23.9556C14.6842 23.9319 14.6842 23.9088 14.6855 23.8838C14.6868 23.8761 14.6887 23.8664 14.69 23.8587C14.6932 23.8382 14.6977 23.8196 14.7041 23.7991C14.7086 23.7837 14.715 23.7696 14.7215 23.7536C14.7259 23.7427 14.7311 23.733 14.7356 23.7221C14.751 23.6926 14.7683 23.6612 14.7888 23.6298C14.7888 23.6298 15.4501 23.6195 15.4514 23.6195C15.4873 23.5663 15.2865 23.6266 15.334 23.5759C15.5521 23.3392 15.4392 23.039 15.5226 22.9852C15.5367 22.9775 15.5444 22.9723 15.5444 22.9723C15.4501 22.4066 16.2056 21.592 16.4596 21.3361C18.5326 17.9656 21.8538 3.84387 21.9648 3.65594C24.0096 11.1392 27.6719 22.143 27.3743 21.1418C28.0401 21.3906 28.3435 22.032 28.5289 22.4861C28.584 22.6144 28.6802 22.6568 28.7084 22.7587C28.7636 22.9518 28.7803 23.0782 28.7803 23.0782C28.7771 23.0794 28.7675 23.1096 28.7533 23.1532C28.711 23.2866 28.634 23.5464 28.6283 23.5464C28.9605 23.8972 29.6346 23.758 30.0182 23.9601C30.2747 24.0961 30.4575 24.1775 30.4575 24.1775Z" fill="#A1BCD5"/>
<path d="M19.195 30.8655C19.5354 29.2932 18.8171 27.8035 17.5908 27.538C16.3645 27.2725 15.0944 28.3318 14.754 29.904C14.4136 31.4763 15.1318 32.966 16.3582 33.2315C17.5845 33.497 18.8546 32.4377 19.195 30.8655Z" fill="#013F69"/>
<path d="M17.2583 30.5152C17.6603 30.5152 17.9862 30.1436 17.9862 29.6853C17.9862 29.2269 17.6603 28.8553 17.2583 28.8553C16.8562 28.8553 16.5303 29.2269 16.5303 29.6853C16.5303 30.1436 16.8562 30.5152 17.2583 30.5152Z" fill="white"/>
<path d="M27.5781 33.5505C28.8044 33.285 29.5227 31.7952 29.1823 30.223C28.8419 28.6507 27.5718 27.5914 26.3455 27.8569C25.1191 28.1224 24.4009 29.6122 24.7413 31.1844C25.0817 32.7566 26.3518 33.816 27.5781 33.5505Z" fill="#013F69"/>
<path d="M26.7378 30.5152C27.1398 30.5152 27.4657 30.1436 27.4657 29.6853C27.4657 29.2269 27.1398 28.8553 26.7378 28.8553C26.3357 28.8553 26.0098 29.2269 26.0098 29.6853C26.0098 30.1436 26.3357 30.5152 26.7378 30.5152Z" fill="white"/>
<path d="M11.5962 24.6837C11.4332 24.6837 11.2729 24.6285 11.144 24.524C10.9644 24.3784 10.8656 24.1539 10.8804 23.923C10.9105 23.4374 10.9541 23.2283 11.049 22.7704C11.0664 22.6883 11.085 22.5978 11.1061 22.4946L11.8412 22.644C11.82 22.7479 11.8008 22.8396 11.7841 22.9224C11.6943 23.3534 11.659 23.5247 11.6327 23.9223C11.7937 23.8774 11.9656 23.8293 12.1439 23.7793C13.3581 23.4381 14.8686 23.0135 15.5414 22.9724L15.5876 23.7209C14.9943 23.7575 13.4639 24.1872 12.3466 24.5015C12.1503 24.5567 11.9624 24.6093 11.7879 24.658C11.7244 24.6753 11.6597 24.6837 11.5962 24.6837Z" fill="#013F69"/>
<path d="M32.316 23.9813C32.2602 23.9813 32.2038 23.9736 32.1486 23.9589C31.2083 23.7004 29.2501 23.1616 28.5888 23.202L28.5439 22.4535C29.2405 22.4118 30.7658 22.8031 32.18 23.1898C32.1595 23.0314 32.1377 22.9256 32.1133 22.8076L32.0979 22.7319L32.833 22.5818L32.8477 22.6543C32.883 22.8249 32.917 22.9859 32.9459 23.2886C32.9658 23.4958 32.8824 23.6985 32.7233 23.8325C32.6072 23.9294 32.4629 23.9813 32.316 23.9813Z" fill="#013F69"/>
<path d="M28.5974 23.1115C28.5942 23.1128 28.6526 23.1647 28.6385 23.2084C25.6515 24.7112 22.5355 24.9786 20.3387 24.9812H20.3169C18.0412 24.9812 16.2723 24.4873 14.917 23.472C15.1351 23.2353 15.4404 23.0378 15.5238 22.9845C16.727 23.8247 18.2991 24.232 20.3176 24.232H20.3381C22.4727 24.2288 25.7117 23.8761 28.5871 22.4092C28.6423 22.5375 28.6814 22.6568 28.7096 22.7587C28.7635 22.9524 28.5974 23.1115 28.5974 23.1115Z" fill="#013F69"/>
<path d="M39.4888 24.597C39.2681 24.658 39.0866 24.6047 38.8852 24.5181C38.8724 24.513 38.8602 24.5072 38.8474 24.5015C38.8333 24.5181 38.8147 24.531 38.7877 24.5355C38.7293 24.5451 38.6524 24.5233 38.5741 24.5175C38.5151 24.513 38.4381 24.5342 38.4375 24.5932C38.4369 24.6368 38.4786 24.6682 38.5158 24.69C38.6915 24.7939 38.882 24.8728 39.0802 24.9229C39.1873 24.9504 39.3124 24.9658 39.4002 24.8985C39.4875 24.8311 39.517 24.749 39.5144 24.5938C39.5131 24.5945 39.4894 24.597 39.4888 24.597Z" fill="#013F69"/>
<path d="M9.91615 26.3653L10.7141 26.4455C10.7141 26.4455 9.89114 25.9824 9.86035 25.9946" fill="#013F69"/>
<path d="M38.6055 24.3392C38.7447 24.3674 38.9788 24.4284 39.0487 24.4014C39.1071 24.379 39.1161 24.1692 38.6261 23.8999C38.4035 23.7774 38.2354 23.5362 37.9814 23.5394C38.2791 23.4862 38.6216 23.5522 38.8698 23.7241C39.118 23.896 39.2944 24.1692 39.3489 24.4662C39.363 24.5438 39.3656 24.6343 39.3098 24.6901C39.2521 24.7478 39.1591 24.7433 39.0782 24.7343C38.9153 24.717 38.7293 24.6856 38.6447 24.5457" fill="#013F69"/>
<path d="M16.756 19.0897L15.0137 23.4467L15.6539 23.7027L17.3962 19.3458L16.756 19.0897Z" fill="#013F69"/>
<path d="M28.3657 23.2854C27.5344 21.8166 27.0457 20.3414 26.6416 18.9662L27.3029 18.7719C27.6954 20.1079 28.1688 21.5376 28.9654 22.9461L28.3657 23.2854Z" fill="#013F69"/>
</svg>
