<svg width="813" height="784" viewBox="0 0 813 784" fill="none" xmlns="http://www.w3.org/2000/svg">
<path d="M470.66 190.5C427.08 177.4 386.24 186.76 349.24 218.33C318.89 244.44 296.93 279.53 283.98 322.62C268.92 372.75 264.42 416.62 270.62 453.22C279.42 503.12 307.97 535.66 355.47 549.93C399.66 563.21 438.7 555.51 471.47 527.03C502.73 499.9 528.53 453.03 548.17 387.65C560.67 346.07 561.75 307.25 551.4 272.24C539 230.36 511.81 202.86 470.66 190.5ZM374.54 486.5C353.63 480.22 341.2 466.1 336.54 443.33C331.38 418.24 335.54 382.95 348.91 338.45C356.91 311.83 370.09 289.72 388.09 272.74C408.45 253.55 429.14 247.47 451.34 254.14C471.28 260.14 483.47 272.14 488.59 290.81C494.19 311.26 491.53 339.91 480.7 375.96C470.18 410.96 457.11 438.76 441.84 458.61C421.61 484.88 399.6 494 374.54 486.47V486.5Z" fill="#013F69"/>
<path d="M395.931 557.75C382.048 557.639 368.258 555.489 355.001 551.37C306.911 536.92 278.001 503.98 269.101 453.48C262.861 416.72 267.381 372.55 282.511 322.19C295.511 278.82 317.651 243.49 348.221 217.19C385.631 185.26 426.951 175.8 471.061 189.05C512.721 201.57 540.231 229.41 552.831 271.81C563.261 307.1 562.18 346.21 549.6 388.07C529.92 453.71 504 500.84 472.48 528.16C449.79 547.86 424.151 557.75 395.931 557.75ZM433.241 186.27C403.921 186.27 376.121 197.37 350.241 219.48C320.111 245.39 298.311 280.24 285.441 323.05C270.421 373 265.941 416.67 272.101 453C280.791 502.28 308.981 534.43 355.901 548.53C399.571 561.65 438.131 554.05 470.511 525.93C501.511 498.99 527.211 452.33 546.761 387.25C559.171 345.96 560.261 307.42 549.991 272.7C537.701 231.34 510.861 204.17 470.23 191.96C458.245 188.267 445.782 186.35 433.241 186.27ZM391.091 490.54C385.326 490.502 379.598 489.615 374.091 487.91C352.611 481.45 339.831 466.96 335.031 443.6C329.821 418.26 334.031 382.73 347.441 337.99C355.511 311.12 368.831 288.79 387.021 271.62C407.831 252 429.001 245.83 451.751 252.67C472.231 258.82 484.751 271.16 490.011 290.39C495.691 311.11 493.011 340.04 482.111 376.39C471.541 411.56 458.391 439.52 443.011 459.51C427.001 480.27 409.931 490.53 391.091 490.54ZM434.301 253C418.771 253 403.861 259.88 389.101 273.79C371.291 290.59 358.251 312.48 350.331 338.84C337.001 383.11 332.881 418.15 338.001 443C342.551 465.18 354.651 478.93 375.001 485C399.391 492.33 420.87 483.37 440.66 457.62C455.82 437.92 468.811 410.28 479.271 375.46C490.021 339.68 492.671 311.31 487.151 291.14C482.151 272.99 470.321 261.34 450.921 255.5C445.533 253.856 439.933 253.014 434.301 253Z" fill="#1D1E1B"/>
<path d="M522.2 423.86C521.321 423.86 520.455 423.649 519.674 423.246C518.894 422.842 518.221 422.258 517.713 421.541C517.205 420.824 516.876 419.996 516.753 419.126C516.631 418.256 516.719 417.369 517.01 416.54C539.09 353.54 535.79 310.82 529.14 286.09C521.99 259.52 509.54 247.49 509.42 247.37C508.475 246.348 507.952 245.006 507.957 243.615C507.962 242.223 508.495 240.885 509.447 239.87C510.4 238.856 511.701 238.24 513.09 238.147C514.478 238.054 515.85 238.491 516.93 239.37C517.52 239.92 531.42 253.11 539.5 282.32C546.79 308.66 550.6 353.97 527.39 420.22C527.006 421.288 526.301 422.211 525.372 422.863C524.443 423.514 523.335 423.863 522.2 423.86Z" fill="white"/>
<path d="M339.102 532.781C338.197 532.781 337.307 532.554 336.512 532.121C305.782 515.661 286.812 481.341 281.652 432.881C279.342 410.283 279.796 387.489 283.002 365.001C283.239 363.561 284.039 362.274 285.225 361.423C286.411 360.573 287.887 360.228 289.327 360.466C290.767 360.703 292.054 361.503 292.904 362.689C293.755 363.875 294.099 365.351 293.862 366.791C293.662 367.991 274.982 486.721 341.722 522.471C342.804 523.05 343.662 523.974 344.158 525.097C344.655 526.219 344.761 527.476 344.461 528.666C344.161 529.856 343.472 530.912 342.502 531.665C341.533 532.417 340.339 532.825 339.112 532.821L339.102 532.781Z" fill="white"/>
<path d="M577.939 645.33H577.619C517.949 635.85 477.919 599.13 454.839 570C429.839 538.48 418.839 508.76 418.709 508.46C418.526 507.962 418.548 507.411 418.771 506.929C418.994 506.447 419.4 506.073 419.899 505.89C420.397 505.707 420.948 505.73 421.43 505.953C421.912 506.176 422.286 506.582 422.469 507.08C422.579 507.38 433.469 536.59 458.059 567.61C480.679 596.15 519.899 632.11 578.249 641.38C578.511 641.401 578.767 641.472 579.002 641.592C579.237 641.711 579.446 641.875 579.617 642.076C579.789 642.276 579.919 642.508 580.001 642.758C580.082 643.008 580.114 643.273 580.094 643.535C580.073 643.798 580.001 644.054 579.882 644.289C579.763 644.524 579.598 644.733 579.398 644.904C579.198 645.075 578.966 645.206 578.716 645.287C578.465 645.369 578.201 645.401 577.939 645.38V645.33Z" fill="#1D1D1B"/>
<path d="M574.819 783.701C574.423 783.7 574.037 783.581 573.709 783.361C536.049 758.081 502.999 728.631 475.479 695.831C453.729 669.998 435.206 641.612 420.319 611.301C395.489 560.441 390.779 522.541 390.729 522.161C390.666 521.63 390.817 521.097 391.148 520.678C391.479 520.259 391.963 519.988 392.494 519.926C393.024 519.864 393.558 520.014 393.977 520.345C394.396 520.676 394.666 521.16 394.729 521.691C394.779 522.061 399.439 559.421 424.029 609.691C446.719 656.091 491.489 723.301 575.969 780.021C576.325 780.26 576.594 780.608 576.738 781.012C576.881 781.416 576.891 781.856 576.766 782.266C576.64 782.676 576.386 783.035 576.041 783.29C575.696 783.545 575.278 783.682 574.849 783.681L574.819 783.701Z" fill="#1D1D1B"/>
<path d="M591 304H590.93C590.667 303.991 590.409 303.93 590.17 303.821C589.931 303.712 589.715 303.557 589.536 303.365C589.357 303.173 589.217 302.947 589.125 302.701C589.033 302.455 588.991 302.193 589 301.93C590.62 258.3 580.1 224.19 557.75 200.55C527.14 168.19 484.39 167 484 167C483.47 167 482.961 166.789 482.586 166.414C482.211 166.039 482 165.53 482 165C482 164.47 482.211 163.961 482.586 163.586C482.961 163.211 483.47 163 484 163C484.44 163 528.79 164.18 560.58 197.76C583.72 222.21 594.58 257.31 592.96 302.07C592.942 302.581 592.729 303.066 592.365 303.425C592 303.784 591.512 303.99 591 304Z" fill="#1D1D1B"/>
<path d="M431.54 184.779C430.487 181.877 429.147 179.086 427.54 176.449C414.68 155.099 356.65 139.359 356.65 139.359L277.09 181.999L380.68 197.299C396.472 189.344 413.859 185.064 431.54 184.779Z" fill="#FFCDB2"/>
<path d="M380.999 199.381L380.379 199.291L270.809 183.111L356.369 137.221L357.139 137.431C359.539 138.081 416.079 153.631 429.209 175.431C430.904 178.182 432.317 181.096 433.429 184.131L434.349 186.751H431.569C414.188 187.052 397.099 191.263 381.569 199.071L380.999 199.381ZM283.349 180.911L380.349 195.241C395.394 187.779 411.839 183.562 428.619 182.861C427.783 181.013 426.838 179.216 425.789 177.481C414.259 158.351 363.679 143.481 356.849 141.481L283.349 180.911Z" fill="#1D1E1B"/>
<path d="M278.488 182.94L287.678 193.04C287.678 193.04 281.398 207.58 292.958 242.85C311.238 298.58 351.368 276.12 351.368 276.12C373.368 287.55 388.368 264.05 388.368 264.05C388.368 264.05 420.318 289.55 426.438 243.64C429.938 217.38 406.058 191.08 384.328 172.58" fill="#FFCDB2"/>
<path d="M332.999 282.111C328.584 282.128 324.205 281.318 320.089 279.721C307.479 274.811 297.889 262.561 291.579 243.311C281.449 212.421 284.809 197.171 286.009 193.381L277.379 184.001L279.599 182.001L289.439 192.811L289.059 193.701C288.999 193.841 283.199 208.331 294.389 242.451C300.389 260.781 309.389 272.401 321.099 276.991C336.099 282.831 350.499 274.991 350.639 274.881L351.339 274.491L352.059 274.861C372.649 285.531 386.479 264.231 387.059 263.321L387.959 261.911L389.259 262.911C389.389 263.011 401.749 272.701 411.809 268.651C418.639 265.891 423.049 257.421 424.909 243.471C427.639 223.031 413.639 199.581 383.309 173.751L385.259 171.471C416.409 198.001 430.749 222.351 427.889 243.861C425.889 258.981 420.839 268.251 412.889 271.441C403.149 275.351 392.299 268.761 388.639 266.191C385.779 270.001 376.529 280.771 363.339 280.781C359.164 280.741 355.056 279.731 351.339 277.831C345.617 280.595 339.353 282.057 332.999 282.111Z" fill="#1D1E1B"/>
<path d="M387.761 265.341H387.571C387.177 265.288 386.819 265.082 386.576 264.768C386.333 264.453 386.223 264.055 386.271 263.661C386.271 263.391 389.421 236.841 369.581 213.661C369.355 213.356 369.252 212.977 369.294 212.6C369.336 212.222 369.52 211.875 369.808 211.628C370.096 211.38 370.467 211.252 370.846 211.267C371.225 211.282 371.584 211.441 371.851 211.711C392.591 235.951 389.391 262.921 389.251 264.051C389.201 264.409 389.022 264.737 388.748 264.975C388.474 265.212 388.124 265.342 387.761 265.341Z" fill="#1D1D1B"/>
<path d="M351.74 277.599C351.5 277.601 351.263 277.543 351.05 277.431C350.838 277.32 350.656 277.158 350.52 276.959C349.8 275.959 333 251.859 332.75 223.959C332.747 223.561 332.903 223.177 333.182 222.892C333.461 222.608 333.841 222.445 334.24 222.439C334.636 222.439 335.016 222.596 335.297 222.875C335.578 223.154 335.737 223.533 335.74 223.929C335.98 250.929 352.79 274.929 352.96 275.199C353.116 275.425 353.208 275.689 353.226 275.963C353.243 276.238 353.186 276.511 353.059 276.755C352.933 276.999 352.742 277.204 352.508 277.347C352.274 277.491 352.005 277.567 351.73 277.569L351.74 277.599Z" fill="#1D1D1B"/>
<path d="M316.299 263.6C315.881 263.597 315.469 263.506 315.088 263.334C314.708 263.162 314.367 262.912 314.089 262.6C313.279 261.71 294.329 240.44 295.089 203.28C295.097 202.886 295.182 202.498 295.34 202.137C295.498 201.776 295.726 201.45 296.01 201.177C296.584 200.625 297.353 200.325 298.149 200.34C298.543 200.348 298.931 200.434 299.292 200.592C299.653 200.75 299.979 200.977 300.252 201.262C300.525 201.546 300.74 201.881 300.883 202.248C301.027 202.615 301.097 203.006 301.089 203.4C300.409 238.06 318.379 258.4 318.559 258.56C318.944 258.992 319.197 259.525 319.287 260.097C319.376 260.669 319.298 261.254 319.062 261.782C318.827 262.311 318.443 262.76 317.958 263.075C317.473 263.391 316.907 263.559 316.329 263.56L316.299 263.6Z" fill="white"/>
<path d="M147.5 2.5C157.74 18.74 205.98 125.61 221.16 154.59C236.34 183.57 271.78 175.21 271.78 175.21L282 190.1L359.15 137.66L349.15 112.8C349.15 112.8 372.03 102.11 365.65 67.39C359.27 32.67 345.45 18.5 334.45 2.5" fill="#251D3F"/>
<path d="M281.63 192.179L271.1 176.869C265.1 177.969 233.9 182.149 219.83 155.289C213.2 142.629 200.47 115.569 187 86.9094C169.77 50.2694 152 12.3894 146.23 3.29938L148.77 1.69937C154.6 10.9394 172.45 48.9094 189.77 85.6294C203.22 114.259 215.94 141.299 222.54 153.899C236.99 181.489 270.09 174.079 271.49 173.749L272.49 173.519L282.49 188.019L357.41 137.099L347.28 111.999L348.57 111.399C349.46 110.989 370.31 100.709 364.22 67.6194C358.89 38.6194 348.58 24.4894 338.61 10.7994C336.75 8.23938 334.99 5.79937 333.26 3.30937L335.74 1.60938C337.44 4.08938 339.19 6.48937 341.04 9.02937C350.73 22.3494 361.72 37.4394 367.17 67.0794C372.81 97.7394 355.91 110.469 351.08 113.419L361 138.219L281.63 192.179Z" fill="#1D1D1B"/>
<path d="M346.809 112.109C346.809 112.109 287.859 119.719 272.809 173.569L282.479 188.519L356.479 137.109L346.809 112.109Z" fill="#013F69"/>
<path d="M340.71 65.0495C345.206 65.0495 348.85 61.4051 348.85 56.9095C348.85 52.4139 345.206 48.7695 340.71 48.7695C336.215 48.7695 332.57 52.4139 332.57 56.9095C332.57 61.4051 336.215 65.0495 340.71 65.0495Z" fill="#3B6774"/>
<path d="M238.429 106.819C242.925 106.819 246.569 103.175 246.569 98.6791C246.569 94.1835 242.925 90.5391 238.429 90.5391C233.933 90.5391 230.289 94.1835 230.289 98.6791C230.289 103.175 233.933 106.819 238.429 106.819Z" fill="#3B6774"/>
<path d="M260.788 41.5808C265.284 41.5808 268.928 37.9364 268.928 33.4408C268.928 28.9452 265.284 25.3008 260.788 25.3008C256.293 25.3008 252.648 28.9452 252.648 33.4408C252.648 37.9364 256.293 41.5808 260.788 41.5808Z" fill="#3B6774"/>
<path d="M298.531 106.05C303.026 106.05 306.671 102.405 306.671 97.9095C306.671 93.4139 303.026 89.7695 298.531 89.7695C294.035 89.7695 290.391 93.4139 290.391 97.9095C290.391 102.405 294.035 106.05 298.531 106.05Z" fill="#3B6774"/>
<path d="M254.529 167.91C253.704 167.907 252.881 167.834 252.069 167.69C234.659 164.63 213.409 129.75 190.599 66.8198C190.399 66.0889 190.482 65.3092 190.833 64.6374C191.183 63.9655 191.775 63.4512 192.49 63.1979C193.204 62.9446 193.988 62.9711 194.683 63.2719C195.379 63.5728 195.935 64.1258 196.239 64.8198C226.449 148.16 245.919 160.39 252.889 161.82C256.569 162.56 258.359 160.73 258.549 160.52C259.063 159.918 259.794 159.544 260.582 159.478C261.371 159.413 262.153 159.661 262.759 160.17C263.064 160.424 263.315 160.736 263.498 161.088C263.681 161.44 263.793 161.824 263.826 162.22C263.86 162.615 263.814 163.013 263.693 163.39C263.572 163.768 263.377 164.118 263.119 164.42C262.01 165.568 260.672 166.471 259.193 167.072C257.714 167.673 256.125 167.959 254.529 167.91Z" fill="white"/>
<path d="M757 4H53C52.4696 4 51.9609 3.78929 51.5858 3.41422C51.2107 3.03914 51 2.53043 51 2C51 1.46957 51.2107 0.960858 51.5858 0.585785C51.9609 0.210712 52.4696 0 53 0H757C757.53 0 758.039 0.210712 758.414 0.585785C758.789 0.960858 759 1.46957 759 2C759 2.53043 758.789 3.03914 758.414 3.41422C758.039 3.78929 757.53 4 757 4Z" fill="#1D1D1B"/>
<path d="M139 29H2C1.46957 29 0.960858 28.7893 0.585785 28.4142C0.210712 28.0391 0 27.5304 0 27C0 26.4696 0.210712 25.9609 0.585785 25.5858C0.960858 25.2107 1.46957 25 2 25H139C139.53 25 140.039 25.2107 140.414 25.5858C140.789 25.9609 141 26.4696 141 27C141 27.5304 140.789 28.0391 140.414 28.4142C140.039 28.7893 139.53 29 139 29Z" fill="#1D1D1B"/>
<path d="M811 40H703C702.47 40 701.961 39.7893 701.586 39.4142C701.211 39.0391 701 38.5304 701 38C701 37.4696 701.211 36.9609 701.586 36.5858C701.961 36.2107 702.47 36 703 36H811C811.53 36 812.039 36.2107 812.414 36.5858C812.789 36.9609 813 37.4696 813 38C813 38.5304 812.789 39.0391 812.414 39.4142C812.039 39.7893 811.53 40 811 40Z" fill="#1D1D1B"/>
<path d="M287.41 539.101C278.48 536.781 267.28 537.201 253.24 540.381L212.24 373.001C207.24 352.581 190.85 343.671 168.41 349.171C149.77 353.731 136.35 365.871 128.52 385.241L60.52 565.681L47.63 591.681L47.49 591.981C40.8 606.461 38.64 617.981 40.9 627.231C42.9 635.381 50.2 648.741 76.6 646.711C85.26 646.091 99.41 643.351 119.85 638.351L204.12 619.921L213.52 657.601C213.77 658.601 214.28 661.021 215.32 666.701C216.24 671.771 217.02 675.631 217.73 678.511C227.18 717.091 252.21 715.371 262.53 712.841C282.01 708.071 290.75 693.441 285.91 673.691L269.26 605.691C283.63 602.291 289.16 599.951 292.33 598.241C307.25 590.351 313.62 576.911 309.81 561.371C307 550.001 299.06 542.121 287.41 539.101ZM166.63 467.101L188.22 555.261L131.1 567.851C141.08 541.271 153 507.571 166.63 467.141V467.101Z" fill="#013F69"/>
<path d="M253.151 715.431C240.741 715.431 223.711 709.331 216.231 678.801C215.521 675.911 214.731 672.011 213.801 666.911C212.801 661.251 212.271 658.911 212.031 657.911L203.031 621.651L120.181 639.761C99.6912 644.761 85.4612 647.531 76.7212 648.161C49.2112 650.281 41.5712 636.161 39.4612 627.531C37.1112 617.961 39.3012 606.111 46.1412 591.301L46.2912 590.981L59.1112 565.001L127.111 384.631C135.111 364.751 148.911 352.321 168.041 347.631C179.421 344.841 189.631 345.631 197.571 349.971C205.511 354.311 211.131 362.121 213.691 372.561L254.341 538.561C267.961 535.621 278.911 535.311 287.781 537.561C299.991 540.721 308.311 549.001 311.221 560.871C315.221 577.121 308.551 591.171 292.981 599.411C289.981 601.041 284.741 603.331 271.031 606.651L287.321 673.181C292.381 693.841 283.231 709.181 262.841 714.181C259.672 714.981 256.419 715.4 253.151 715.431ZM205.151 618.091L214.911 657.181C215.161 658.181 215.681 660.641 216.721 666.381C217.641 671.381 218.421 675.251 219.121 678.091C228.241 715.351 252.221 713.751 262.121 711.321C280.681 706.781 289.011 692.821 284.401 673.991L267.401 604.521L268.881 604.171C283.351 600.751 288.611 598.461 291.581 596.861C305.851 589.311 311.941 576.481 308.321 561.671C305.681 550.921 298.131 543.421 287.041 540.551C278.331 538.291 267.381 538.721 253.571 541.851L252.141 542.171L210.781 373.311C208.431 363.711 203.371 356.561 196.151 352.631C188.931 348.701 179.411 347.971 168.761 350.581C150.621 355.021 137.551 366.851 129.911 385.751L61.9112 566.231V566.291L48.9112 592.571C42.3812 606.711 40.2512 617.921 42.4312 626.811C44.3112 634.501 51.2512 647.101 76.5612 645.161C85.1412 644.541 99.2012 641.811 119.561 636.831L205.151 618.091ZM128.691 569.911L129.691 567.321C139.691 540.811 151.591 506.951 165.211 466.661L166.861 461.781L190.001 556.441L128.691 569.911ZM166.371 472.511C153.861 509.401 142.801 540.751 133.441 565.791L186.361 554.171L166.371 472.511Z" fill="#1D1E1B"/>
<path d="M72.56 577.31C71.6646 577.307 70.7835 577.085 69.9929 576.665C69.2024 576.244 68.5262 575.638 68.0229 574.897C67.5197 574.156 67.2045 573.304 67.1047 572.415C67.0048 571.525 67.1234 570.624 67.45 569.79L136.69 394.28C136.924 393.571 137.301 392.917 137.796 392.358C138.292 391.799 138.896 391.346 139.572 391.028C140.248 390.711 140.982 390.534 141.729 390.509C142.475 390.484 143.219 390.611 143.915 390.883C144.611 391.156 145.244 391.566 145.776 392.091C146.307 392.616 146.727 393.244 147.008 393.936C147.289 394.628 147.426 395.37 147.411 396.117C147.396 396.864 147.229 397.6 146.92 398.28L77.68 573.83C77.2745 574.857 76.5693 575.738 75.6561 576.359C74.743 576.98 73.6642 577.311 72.56 577.31Z" fill="white"/>
<path d="M97.0025 416.001C96.7992 416.001 96.5971 415.97 96.4025 415.911C96.1516 415.833 95.9185 415.705 95.7168 415.537C95.5151 415.368 95.3486 415.161 95.2269 414.928C95.1053 414.695 95.0308 414.44 95.0077 414.178C94.9846 413.916 95.0135 413.652 95.0925 413.401C110.893 363.511 131.983 332.581 157.793 321.451C177.983 312.741 193.233 319.891 193.873 320.201C194.335 320.441 194.686 320.851 194.85 321.346C195.015 321.84 194.98 322.379 194.753 322.847C194.526 323.316 194.126 323.678 193.637 323.856C193.147 324.035 192.608 324.015 192.133 323.801C191.993 323.741 177.753 317.141 159.253 325.171C142.313 332.531 118.093 354.011 98.9125 414.601C98.7848 415.008 98.5306 415.363 98.187 415.614C97.8435 415.866 97.4285 416.002 97.0025 416.001Z" fill="#1D1D1B"/>
<path d="M780.433 544.321C773.073 538.751 762.573 534.831 748.433 532.321L774.933 362.001C778.173 341.231 766.473 326.701 743.633 323.141C724.633 320.191 707.633 326.231 692.943 341.141L560.743 481.541L538.853 500.541L538.613 500.761C526.853 511.561 520.433 521.381 518.973 530.761C517.683 539.051 519.273 554.191 544.433 562.471C552.663 565.231 566.773 568.141 587.573 571.391L672.443 586.791L666.633 625.191C666.473 626.191 666.023 628.621 664.793 634.271C663.703 639.271 662.933 643.201 662.473 646.101C656.363 685.341 680.123 693.391 690.633 695.021C710.443 698.111 724.143 687.961 727.273 667.871L738.053 598.701C752.613 601.091 758.623 601.061 762.213 600.701C779.013 599.151 790.063 589.201 792.523 573.391C794.313 561.921 790.003 551.591 780.433 544.321ZM696.603 431.451L682.603 521.131L625.043 510.741C644.513 490.001 668.443 463.511 696.603 431.451Z" fill="#013F69"/>
<path d="M697.492 697.121C695.114 697.114 692.74 696.92 690.392 696.541C684.392 695.611 675.822 692.971 669.212 685.711C661.042 676.711 658.272 663.351 660.992 645.911C661.442 643.001 662.232 639.001 663.322 633.991C664.552 628.371 664.992 625.991 665.152 624.991L670.742 587.991L587.302 572.901C566.462 569.651 552.302 566.721 543.952 563.901C517.752 555.271 516.122 539.291 517.482 530.531C519.002 520.791 525.582 510.691 537.592 499.651L537.852 499.421L559.702 480.421L691.852 340.121C706.912 324.851 724.402 318.671 743.852 321.701C755.422 323.511 764.542 328.181 770.212 335.221C775.882 342.261 778.052 351.651 776.392 362.221L750.102 531.151C763.802 533.671 774.022 537.591 781.332 543.151C791.332 550.761 795.882 561.601 794.002 573.681C791.432 590.211 779.892 600.681 762.352 602.251C758.932 602.591 753.212 602.701 739.302 600.481L728.752 668.161C725.862 686.671 714.382 697.111 697.492 697.121ZM734.492 323.961C719.552 324.001 706.002 330.071 694.002 342.201L561.782 482.621L539.602 501.911C528.132 512.461 521.862 522.001 520.452 531.001C519.232 538.821 520.792 553.121 544.902 561.061C553.052 563.791 567.082 566.681 587.802 569.911L674.142 585.581L668.142 625.421C667.982 626.421 667.532 628.901 666.282 634.601C665.202 639.601 664.432 643.491 663.992 646.341C661.412 662.841 663.932 675.401 671.462 683.661C677.462 690.271 685.352 692.661 690.892 693.551C709.782 696.491 722.832 686.811 725.812 667.651L736.812 596.981L738.302 597.231C752.952 599.641 758.702 599.551 762.072 599.231C778.142 597.751 788.702 588.231 791.072 573.231C792.772 562.301 788.682 552.471 779.552 545.561C772.382 540.121 762.112 536.311 748.162 533.881L746.712 533.631L773.482 361.851C775.002 352.091 773.082 343.541 767.922 337.141C762.762 330.741 754.262 326.391 743.432 324.711C740.469 324.239 737.473 324.001 734.472 324.001L734.492 323.961ZM683.892 522.881L622.112 511.731L624.002 509.731C643.362 489.111 667.412 462.451 695.492 430.471L698.902 426.591L683.892 522.881ZM628.082 509.761L681.402 519.381L694.402 436.311C668.572 465.581 646.302 490.261 628.062 509.761H628.082Z" fill="#1D1E1B"/>
<path d="M735 534.311C734.715 534.31 734.431 534.29 734.15 534.251C732.723 534.014 731.446 533.227 730.595 532.057C729.743 530.888 729.386 529.431 729.6 528.001L756.55 355.091C756.661 354.377 756.912 353.692 757.289 353.075C757.665 352.459 758.159 351.922 758.742 351.496C759.326 351.071 759.988 350.764 760.69 350.594C761.392 350.424 762.121 350.394 762.835 350.506C763.548 350.617 764.233 350.868 764.85 351.245C765.466 351.621 766.003 352.115 766.429 352.698C766.854 353.282 767.161 353.944 767.331 354.646C767.501 355.348 767.531 356.077 767.42 356.791L740.47 529.66C740.266 530.962 739.602 532.148 738.598 533.001C737.594 533.855 736.317 534.319 735 534.311Z" fill="white"/>
<path d="M793.001 389.001C792.887 389.01 792.774 389.01 792.661 389.001C792.138 388.91 791.673 388.616 791.367 388.183C791.062 387.75 790.941 387.213 791.031 386.691C798.211 345.691 791.091 325.241 783.851 315.321C776.611 305.401 767.851 304.021 767.741 304.011C767.216 303.941 766.74 303.666 766.418 303.246C766.095 302.826 765.952 302.296 766.021 301.771C766.09 301.248 766.364 300.774 766.781 300.452C767.199 300.129 767.727 299.985 768.251 300.051C768.671 300.101 778.641 301.491 786.971 312.811C798.261 328.121 800.971 353.211 794.971 387.371C794.884 387.83 794.64 388.244 794.28 388.542C793.92 388.839 793.468 389.002 793.001 389.001Z" fill="#1D1D1B"/>
</svg>
