<svg width="364" height="313" viewBox="0 0 364 313" fill="none" xmlns="http://www.w3.org/2000/svg">
<path d="M197.5 306.2C241.903 306.2 277.9 302.753 277.9 298.5C277.9 294.247 241.903 290.8 197.5 290.8C153.096 290.8 117.1 294.247 117.1 298.5C117.1 302.753 153.096 306.2 197.5 306.2Z" fill="#D1D3D4"/>
<path d="M172.5 273.7H222.5L228.5 249.7H166.5L172.5 273.7Z" fill="white"/>
<path d="M222.5 274.4H172.5C172.2 274.4 171.9 274.2 171.8 273.9L165.8 249.9C165.7 249.7 165.8 249.5 165.9 249.3C166 249.1 166.2 249 166.5 249H228.5C228.7 249 228.9 249.1 229.1 249.3C229.2 249.5 229.3 249.7 229.2 249.9L223.2 273.9C223.1 274.2 222.8 274.4 222.5 274.4ZM173 273H222L227.7 250.4H167.4L173 273Z" fill="#231F20"/>
<path d="M253.6 174.6C253.6 174.6 279.8 191 288.9 218.3C298 245.6 277.3 298.4 277.3 298.4L229.6 246.7L253.6 174.6Z" fill="white"/>
<path d="M277.3 299.2C277.1 299.2 276.9 299.1 276.8 299L229 247.2C228.8 247 228.8 246.7 228.9 246.5L252.9 174.4C253 174 253.4 173.9 253.8 174H253.9C254.2 174.2 280.4 190.8 289.5 218.1C293.3 229.6 292.5 246.6 287.1 268.8C284.6 278.9 281.5 288.9 277.8 298.7C277.7 298.9 277.5 299.1 277.3 299.2ZM230.4 246.6L277 297.2C279.8 289.6 296.5 243.3 288.2 218.6C280.1 194.4 258.2 178.7 253.9 175.8L230.4 246.6Z" fill="#231F20"/>
<path d="M140.2 174.6C140.2 174.6 114 191 104.9 218.3C95.7998 245.6 116.5 298.4 116.5 298.4L164.2 246.7L140.2 174.6Z" fill="white"/>
<path d="M116.5 299.2H116.4C116.2 299.2 116 299 115.9 298.8C112.2 289 109.1 279 106.6 268.9C101.2 246.7 100.4 229.7 104.2 218.2C113.3 191 139.6 174.3 139.8 174.1C140 174 140.2 174 140.4 174C140.6 174.1 140.8 174.2 140.8 174.4L164.8 246.5C164.9 246.7 164.8 247 164.7 247.2L117 299C116.9 299.1 116.7 299.2 116.5 299.2ZM139.8 175.7C135.5 178.6 113.6 194.4 105.5 218.5C97.3001 243.1 113.9 289.5 116.7 297.1L163.4 246.5L139.8 175.7Z" fill="#231F20"/>
<path d="M154.6 258.8C141.6 227.6 133.4 182.4 133.4 132.1C133.4 55.9 175.5 16.2 191.4 3.79995C195 0.999951 199.9 0.999951 203.5 3.79995C219.5 16.1 261.5 55.8 261.5 132.1C261.5 182.4 253.3 227.6 240.3 258.8C240.3 258.8 227.3 265.4 197.4 265.4C167.5 265.4 154.6 258.8 154.6 258.8Z" fill="white"/>
<path d="M197.5 266C167.8 266 154.9 259.6 154.3 259.4C154.1 259.3 154 259.2 154 259C140.5 226.6 132.7 180.3 132.7 132C132.7 56.3 173.5 16.7 191 3.19995C194.8 0.199951 200.2 0.199951 204 3.19995C221.5 16.8 262.3 56.4 262.3 132C262.3 180.3 254.5 226.6 241 259C240.9 259.2 240.8 259.3 240.7 259.4C240.1 259.7 227.2 266 197.5 266ZM155.2 258.2C157.1 259.1 170.3 264.6 197.5 264.6C224.7 264.6 238 259.1 239.8 258.2C253.2 226 260.9 180 260.9 132C260.9 57 220.5 17.7 203.1 4.29996C199.8 1.69996 195.2 1.69996 191.8 4.29996C174.4 17.8 134 57 134 132C134.1 180.1 141.8 226 155.2 258.2Z" fill="#231F20"/>
<path d="M203.6 3.79995C213.8 11.6 234.5 30.5999 248.2 62.8999H146.9C160.6 30.5999 181.3 11.7 191.5 3.79995C195 0.999951 200 0.999951 203.6 3.79995Z" fill="white"/>
<path d="M248.1 63.6H146.9C146.7 63.6 146.4 63.5 146.3 63.3C146.2 63.1 146.1 62.9 146.2 62.6C159.8 30.5 180.1 11.6 191 3.19995C194.8 0.199951 200.2 0.199951 204 3.19995C214.9 11.6 235.2 30.5 248.8 62.6C248.9 62.8 248.9 63.1 248.7 63.3C248.6 63.4 248.4 63.6 248.1 63.6ZM147.9 62.2H247C233.5 31 213.7 12.6 203.1 4.39996C199.8 1.79996 195.2 1.79996 191.8 4.39996C181.2 12.5 161.4 30.9 147.9 62.2Z" fill="#231F20"/>
<path d="M179.3 148.2H210.6V176.1C210.6 178 209.1 179.5 207.2 179.5H182.7C180.8 179.5 179.3 178 179.3 176.1V148.2Z" fill="white"/>
<path d="M205.9 180.3H184.1C181.1 180.3 178.6 177.8 178.6 174.8V148.2C178.6 147.8 178.9 147.5 179.3 147.5H210.6C211 147.5 211.3 147.8 211.3 148.2V174.8C211.4 177.8 208.9 180.3 205.9 180.3ZM180 148.9V174.8C180 177 181.8 178.9 184.1 178.9H205.9C208.1 178.9 210 177.1 210 174.9C210 174.9 210 174.9 210 174.8V148.9H180Z" fill="#231F20"/>
<path d="M195 158.6C216.595 158.6 234.1 141.094 234.1 119.5C234.1 97.9056 216.595 80.3999 195 80.3999C173.406 80.3999 155.9 97.9056 155.9 119.5C155.9 141.094 173.406 158.6 195 158.6Z" fill="white"/>
<path d="M195 159.3C173 159.3 155.2 141.5 155.2 119.5C155.2 97.5 173 79.7 195 79.7C217 79.7 234.8 97.5 234.8 119.5C234.8 141.5 217 159.3 195 159.3ZM195 81.1C173.8 81.1 156.6 98.3 156.6 119.5C156.6 140.7 173.8 157.9 195 157.9C216.2 157.9 233.4 140.7 233.4 119.5C233.4 98.3 216.2 81.2 195 81.1Z" fill="#231F20"/>
<path d="M195 143.6C208.31 143.6 219.1 132.81 219.1 119.5C219.1 106.19 208.31 95.3999 195 95.3999C181.69 95.3999 170.9 106.19 170.9 119.5C170.9 132.81 181.69 143.6 195 143.6Z" fill="#231F20"/>
<path d="M195 144.4C181.3 144.4 170.2 133.3 170.2 119.6C170.2 105.9 181.3 94.7999 195 94.7999C208.7 94.7999 219.8 105.9 219.8 119.6C219.8 133.2 208.7 144.3 195 144.4ZM195 96.0999C182.1 96.0999 171.6 106.6 171.6 119.5C171.6 132.4 182.1 142.9 195 142.9C207.9 142.9 218.4 132.4 218.4 119.5C218.4 106.6 207.9 96.0999 195 96.0999Z" fill="#231F20"/>
<path d="M175.9 118H175.8C175.4 117.9 175.2 117.6 175.2 117.2C177.9 98.6 194.9 99.6 195.1 99.6C195.5 99.6 195.8 99.9 195.8 100.3C195.8 100.7 195.5 101 195.1 101C194.5 100.9 179.2 100.2 176.7 117.4C176.5 117.8 176.2 118 175.9 118Z" fill="white"/>
<path d="M203.5 103.3C203.3 103.3 203.2 103.3 203.1 103.2C202 102.4 200.8 101.9 199.5 101.7C199.1 101.6 198.8 101.3 198.9 100.9C199 100.5 199.3 100.3 199.7 100.3C201.3 100.5 202.7 101.1 204 102.1C204.3 102.3 204.4 102.8 204.1 103.1C203.9 103.2 203.7 103.3 203.5 103.3Z" fill="white"/>
<path d="M159.4 247.9C159.1 247.9 158.8 247.7 158.7 247.4C151.9 225.9 146.4 203.9 142.3 181.8C142.2 181.4 142.5 181.1 142.9 181C143.3 180.9 143.6 181.2 143.7 181.6C147.8 203.7 153.3 225.6 160.1 247.1C160.2 247.5 160 247.9 159.7 248C159.5 247.9 159.5 247.9 159.4 247.9Z" fill="#231F20"/>
<path d="M210.7 171.8C199.6 171.6 181.6 171.3 179.8 171.7C179.4 171.9 179 171.7 178.8 171.4C178.8 171.3 178.7 171.2 178.7 171.1C178.7 170.9 178.8 170.7 178.9 170.6C179.2 170.3 179.7 169.8 210.7 170.4C211.1 170.4 211.4 170.7 211.4 171.1C211.4 171.5 211.1 171.8 210.7 171.8Z" fill="#231F20"/>
<path d="M210.7 164.8C199.6 164.6 181.6 164.3 179.8 164.7C179.4 164.9 179 164.8 178.8 164.4C178.8 164.3 178.7 164.2 178.7 164.1C178.7 163.9 178.8 163.7 178.9 163.6C179.2 163.3 179.7 162.8 210.7 163.4C211.1 163.4 211.4 163.7 211.4 164.1C211.4 164.4 211 164.8 210.7 164.8Z" fill="#231F20"/>
<path d="M182.3 179.2H207.1V180.7C207.1 182.8 205.4 184.5 203.3 184.5H186C183.9 184.5 182.2 182.8 182.2 180.7L182.3 179.2Z" fill="#231F20"/>
<path d="M201.9 185.2H187.6C184.3 185.2 181.6 182.5 181.6 179.2C181.6 178.8 181.9 178.5 182.3 178.5H207.1C207.5 178.5 207.8 178.8 207.8 179.2C207.8 182.5 205.2 185.2 201.9 185.2ZM183.1 179.9C183.4 182.1 185.4 183.8 187.6 183.8H201.9C204.2 183.8 206.1 182.1 206.4 179.9H183.1Z" fill="#231F20"/>
<path d="M18.2998 251.4C19.8998 254.3 22.4998 256.6 25.5998 257.9C28.1998 259 31.0998 258.7 33.8998 259.3C41.6998 260.8 49.4998 259.8 56.9998 257.6C64.6998 255.4 72.6998 251.7 76.4998 244.6C79.4998 238.9 79.3998 232 76.0998 226.5C74.8998 224.5 73.2998 222.7 71.9998 220.8C70.0998 217.6 68.5998 214.2 67.5998 210.6C65.5998 204.2 63.9998 197.2 60.5998 191.4C59.0998 189.2 56.7998 187.6 54.1998 187.1C53.3998 186.9 45.9998 187.2 46.3998 187.7C44.8998 185.7 41.5998 186.3 39.3998 187.4C32.7998 190.7 27.7998 196.5 25.4998 203.5C23.4998 209.6 23.5998 216.2 22.0998 222.5C20.8998 227.4 18.7998 232 17.4998 236.8C16.1998 241.6 15.8998 247 18.2998 251.4Z" fill="white"/>
<path d="M41.3996 260.7C38.7996 260.7 36.1996 260.5 33.6996 259.9C32.6996 259.7 31.5996 259.6 30.5996 259.5C28.7996 259.5 26.9996 259.1 25.2996 258.5C22.0996 257.1 19.3996 254.7 17.6996 251.7C15.4996 247.7 15.1996 242.6 16.7996 236.5C17.3996 234.2 18.1996 231.9 18.9996 229.7C19.8996 227.2 20.6996 224.7 21.2996 222.2C21.8996 219.5 22.2996 216.8 22.5996 214.1C22.8996 210.4 23.5996 206.7 24.6996 203.2C27.0996 196 32.1996 190.1 38.9996 186.7C41.3996 185.5 44.6996 184.9 46.4996 186.7C48.6996 186.1 54.2996 186.3 54.2996 186.3C57.4996 187.1 59.7996 188.7 61.0996 190.9C63.7996 195.4 65.2996 200.7 66.7996 205.8C67.1996 207.3 67.6996 208.8 68.1996 210.3C69.1996 213.8 70.6996 217.2 72.5996 220.4C73.1996 221.3 73.7996 222.1 74.3996 222.9C75.1996 223.9 75.9996 225 76.6996 226.2C80.0996 232 80.2996 239.1 77.0996 245C73.7996 251 67.2996 255.4 57.0996 258.3C52.0996 259.8 46.6996 260.6 41.3996 260.7ZM43.2996 187C41.9996 187.1 40.7996 187.4 39.5996 188C33.1996 191.2 28.2996 196.9 25.9996 203.7C24.9996 207.2 24.2996 210.8 23.9996 214.4C23.6996 217.2 23.2996 219.9 22.6996 222.7C21.9996 225.3 21.1996 227.8 20.2996 230.3C19.4996 232.5 18.6996 234.8 18.0996 237C17.0996 240.9 16.3996 246.6 18.8996 251.2C20.4996 254 22.8996 256.2 25.8996 257.4C27.4996 258 29.0996 258.3 30.7996 258.3C31.8996 258.4 32.9996 258.5 33.9996 258.7C40.6996 260.1 48.1996 259.5 56.7996 257C66.5996 254.2 72.7996 250 75.8996 244.4C78.7996 238.9 78.6996 232.3 75.4996 227C74.7996 225.9 74.0996 224.9 73.2996 223.9C72.6996 223.1 71.9996 222.2 71.3996 221.3C69.3996 218.1 67.8996 214.5 66.8996 210.9C66.3996 209.4 65.9996 207.9 65.4996 206.4C63.9996 201.4 62.4996 196.2 59.8996 191.9C58.7996 190 56.7996 188.7 53.8996 187.9C51.4996 187.8 49.0996 187.9 46.6996 188.3L46.5996 188.4C46.2996 188.6 45.8996 188.6 45.5996 188.3C45.1996 187.3 44.1996 186.9 43.2996 187Z" fill="#231F20"/>
<path d="M79.0992 299.6C80.4992 299.6 90.7992 300.7 95.5992 303.1C100.399 305.5 101.499 305.7 100.499 308.9C99.4992 312.1 90.9992 312.9 84.5992 311.7C80.3992 310.8 76.3992 309.4 72.6992 307.4L79.0992 299.6Z" fill="white"/>
<path d="M90.5 312.9C88.5 312.9 86.4 312.7 84.4 312.4C80.2 311.5 76.1 310.1 72.3 308C72.1 307.9 72 307.7 72 307.6C72 307.4 72 307.2 72.1 307.1L78.6 299.3C78.7 299.2 78.9 299.1 79.1 299.1C80.6 299 91 300.2 95.9 302.7L97 303.2C100.9 305.1 102.2 305.7 101.1 309.2C100.3 311.8 95.4 312.9 90.5 312.9ZM73.7 307.2C77.2 309 80.9 310.3 84.7 311.1C91.6 312.4 99.1 311.2 99.9 308.7C100.7 306.2 100.3 306.1 96.4 304.2L95.3 303.7C90.9 301.5 81.5 300.3 79.4 300.3L73.7 307.2Z" fill="#231F20"/>
<path d="M80.4998 299.5C82.3998 300 83.5998 301.8 83.2998 303.7C82.8998 307.1 75.5998 307.3 75.1998 307.3C74.7998 307.3 80.4998 299.5 80.4998 299.5Z" fill="white"/>
<path d="M75.0999 308C74.8999 308 74.5999 307.9 74.4999 307.6C74.2999 307.2 74.1999 306.9 79.8999 299.1C79.9999 298.9 80.2999 298.8 80.5999 298.9C82.7999 299.4 84.2999 301.6 83.8999 303.8C83.3999 307.6 76.4999 308 75.0999 308ZM80.6999 300.3C78.8999 302.7 77.0999 305.3 76.1999 306.6C78.7999 306.4 82.2999 305.6 82.5999 303.6C82.8999 302.2 82.0999 300.8 80.6999 300.3Z" fill="#231F20"/>
<path d="M26.6998 307.4C26.4998 307.5 24.4998 310.1 15.8998 311.1C7.29982 312.1 4.09981 314 2.19981 309.5C0.299814 305 1.59982 302.1 5.79982 300.8C9.99982 299.5 21.6998 298.4 23.9998 300.6C26.2998 302.8 26.6998 307.4 26.6998 307.4Z" fill="white"/>
<path d="M6.39969 313C4.19969 313 2.59969 312.3 1.59969 309.7C0.599692 307.1 0.39969 305.1 1.19969 303.5C2.09969 301.8 3.79969 300.6 5.69969 300.1C9.79969 298.8 21.8997 297.6 24.4997 300C26.8997 302.3 27.2997 307.1 27.2997 307.3C27.2997 307.5 27.1997 307.8 26.9997 307.9C24.3997 310.3 19.4997 311.3 15.8997 311.7C14.0997 311.9 12.4997 312.2 11.0997 312.4C9.59969 312.7 7.99969 312.9 6.39969 313ZM17.5997 299.9C13.6997 299.9 9.79969 300.4 5.99969 301.3C4.49969 301.6 3.0997 302.6 2.2997 303.9C1.6997 305.2 1.79969 307 2.69969 309.1C3.89969 312.1 5.49969 311.9 10.8997 311.1C12.2997 310.9 13.8997 310.6 15.7997 310.4C19.1997 310 23.5997 309.1 25.9997 307.1C25.8997 306.1 25.2997 302.6 23.5997 301C22.7997 300.2 20.3997 299.9 17.5997 299.9Z" fill="#231F20"/>
<path d="M29.4001 305.6C29.4001 305.6 25.5001 308.9 22.9001 308.5C20.3001 308.1 16.7001 306.7 18.1001 303.9C19.5001 301.1 28.9001 299.4 28.9001 299.4L29.4001 305.6Z" fill="white"/>
<path d="M23.4001 309.1C23.2001 309.1 23.1001 309.1 22.9001 309.1C21.9001 309 18.6001 308.3 17.6001 306.3C17.2001 305.4 17.2001 304.4 17.7001 303.5C19.3001 300.5 27.9001 298.8 28.9001 298.7C29.1001 298.7 29.3001 298.7 29.4001 298.8C29.5001 298.9 29.6001 299.1 29.6001 299.3L30.1001 305.5C30.1001 305.7 30.0001 305.9 29.9001 306C29.7001 306.2 26.2001 309.1 23.4001 309.1ZM28.4001 300.1C25.5001 300.7 19.8001 302.2 18.8001 304.1C18.5001 304.6 18.5001 305.2 18.7001 305.7C19.3001 306.9 21.4001 307.6 23.1001 307.8C24.8001 308 27.6001 306.2 28.9001 305.3L28.4001 300.1Z" fill="#231F20"/>
<path d="M76.2996 278.2C76.2996 278.2 72.1996 294.2 57.1996 297.3C42.1996 300.4 34.3996 299.5 29.0996 289.4C23.7996 279.3 27.2996 273.1 27.2996 273.1L74.6996 272.2L76.2996 278.2Z" fill="#231F20"/>
<path d="M44.7994 299.6C37.3994 299.6 32.2994 297 28.4994 289.8C23.0994 279.4 26.5994 273 26.6994 272.8C26.7994 272.6 26.9994 272.4 27.2994 272.4L74.6994 271.5C74.9994 271.5 75.2994 271.7 75.3994 272L76.9994 278C76.9994 278.1 76.9994 278.2 76.9994 278.4C76.9994 278.6 72.5994 294.9 57.2994 298C53.1994 298.9 48.9994 299.5 44.7994 299.6ZM27.7994 273.8C27.1994 275.2 25.3994 280.8 29.7994 289.1C35.0994 299.2 42.7994 299.6 57.1994 296.6C70.7994 293.8 75.1994 279.9 75.6994 278.2L74.2994 272.9L27.7994 273.8Z" fill="#231F20"/>
<path d="M23.6998 278.3C23.6998 278.3 15.8999 253.2 16.9999 237.5C18.0999 221.8 28.2999 220.6 31.7999 220.3C35.2999 220 54.1999 217.1 61.2999 225.4C68.3999 233.7 80.7999 272.7 80.7999 272.7L23.6998 278.3Z" fill="#3758F9"/>
<path d="M51.7998 220.4L50.5998 228.8C48.8998 231.4 45.4998 232.3 42.6998 230.9C37.3998 228.7 37.2998 224.7 37.2998 224.7L39.7998 209.2C43.6998 205.2 46.4998 200.1 47.6998 194.6C47.6998 194.6 52.3998 202.8 59.1998 204.6C58.9998 208.3 58.3998 212 57.4998 215.6C56.2998 219.6 51.7998 220.3 51.7998 220.4Z" fill="white"/>
<path d="M45.4996 232.2C44.3996 232.2 43.3996 232 42.3996 231.5C36.6996 229.1 36.5996 224.8 36.5996 224.6L38.9996 209C38.9996 208.8 39.0996 208.7 39.1996 208.6C42.9996 204.7 45.6996 199.8 46.9996 194.4C47.0996 194 47.4996 193.8 47.7996 193.9C47.9996 193.9 48.0996 194.1 48.1996 194.2C48.1996 194.3 52.7996 202.1 59.1996 203.9C59.4996 204 59.6996 204.3 59.6996 204.6C59.3996 208.4 58.8996 212.1 57.9996 215.7C57.1996 218.3 54.9996 220.3 52.2996 220.9L51.0996 228.8C51.0996 228.9 50.9996 229 50.9996 229.1C49.8996 231 47.7996 232.2 45.4996 232.2ZM40.3996 209.5L37.8996 224.8C37.8996 224.8 38.0996 228.3 42.8996 230.3C47.1996 232.1 49.4996 229.2 49.8996 228.5L51.0996 220.3C51.0996 220.1 51.2996 219.9 51.3996 219.8C51.4996 219.8 51.5996 219.7 51.6996 219.7C53.1996 219.3 55.8996 218.3 56.7996 215.4C57.5996 212 58.1996 208.6 58.3996 205.1C53.2996 203.5 49.5996 198.7 47.9996 196.3C46.5996 201.2 43.9996 205.8 40.3996 209.5Z" fill="#231F20"/>
<path d="M43 209.4C42.9 208.6 42.6 207.9 42.1 207.3C41.6 206.8 41 206.4 40.3 206.1C40 205.9 39.6 205.8 39.2 205.7C38.9 205.7 38.6 205.8 38.4 205.9C37.8 206.1 37.2 206.5 36.8 207.1C36.6 207.6 36.5 208.1 36.5 208.7C36.5 209.3 36.5 209.9 36.7 210.4C37.3 212.8 39.7 214.2 42 213.6C42 213.6 42 213.6 42.1 213.6" fill="white"/>
<path d="M40.8998 214.3C39.9998 214.3 39.0998 214.1 38.2998 213.6C37.0998 212.9 36.2998 211.8 35.9998 210.4C35.8998 209.8 35.7998 209.1 35.7998 208.5C35.7998 207.8 35.8998 207.2 36.1998 206.6C36.5998 205.9 37.2998 205.4 38.0998 205.1C38.3998 205 38.7998 204.9 39.1998 204.9C39.6998 204.9 40.1998 205.1 40.5998 205.4C41.2998 205.8 41.9998 206.2 42.5998 206.8C43.1998 207.5 43.5998 208.4 43.6998 209.3C43.6998 209.7 43.3998 210 42.9998 210C42.6998 210 42.3998 209.8 42.2998 209.4C42.1998 208.8 41.9998 208.2 41.5998 207.7C41.0998 207.2 40.5998 206.9 39.9998 206.6C39.6998 206.4 39.4998 206.3 39.1998 206.3C38.9998 206.3 38.7998 206.3 38.5998 206.4C38.0998 206.5 37.6998 206.8 37.3998 207.3C37.1998 207.7 37.0998 208.1 37.1998 208.5C37.1998 209 37.1998 209.5 37.2998 210C37.7998 212 39.7998 213.2 41.7998 212.7C42.1998 212.6 42.4998 212.9 42.5998 213.2C42.6998 213.5 42.4998 213.9 42.0998 214C41.8998 214.2 41.3998 214.3 40.8998 214.3Z" fill="#231F20"/>
<path d="M50.5996 207C50.5996 207 52.9996 211.7 52.1996 212.4C51.3996 213.1 49.5996 212.3 49.5996 212.3" fill="white"/>
<path d="M51.1993 213.3C50.4993 213.3 49.8994 213.1 49.2994 212.9C48.8994 212.8 48.7993 212.4 48.8993 212C48.9993 211.6 49.3994 211.5 49.7994 211.6C50.3994 211.9 50.9993 211.9 51.6993 211.8C51.3993 210.2 50.7993 208.7 49.9993 207.3C49.7993 207 49.9994 206.5 50.2994 206.4C50.5994 206.2 51.0993 206.4 51.1993 206.7C53.7993 211.9 52.8993 212.6 52.5993 212.9C52.1993 213.2 51.6993 213.3 51.1993 213.3Z" fill="#231F20"/>
<path d="M47.6661 205.929C47.7109 205.378 47.4349 204.907 47.0496 204.875C46.6643 204.844 46.3156 205.265 46.2707 205.815C46.2258 206.366 46.5018 206.837 46.8871 206.869C47.2724 206.9 47.6212 206.479 47.6661 205.929Z" fill="#231F20"/>
<path d="M55.1051 206.928C55.1461 206.377 54.8669 205.907 54.4814 205.878C54.0958 205.85 53.7501 206.273 53.709 206.824C53.668 207.374 53.9473 207.844 54.3328 207.873C54.7183 207.902 55.0641 207.478 55.1051 206.928Z" fill="#231F20"/>
<path d="M49.9993 217C48.9993 217 47.9993 216.8 47.1993 216.4C45.4993 215.4 44.3993 213.7 44.1993 211.8C44.0993 211.4 44.3993 211.1 44.6993 211C45.0993 210.9 45.3993 211.2 45.4993 211.6C45.5993 213.1 46.3993 214.4 47.6993 215.2C50.0993 216.4 53.4993 214.9 53.4993 214.9C53.8993 214.7 54.2993 214.9 54.3993 215.2C54.4993 215.5 54.3993 216 54.0993 216.1C52.7993 216.7 51.3993 217 49.9993 217Z" fill="#231F20"/>
<path d="M51.7996 220.4C51.7996 220.4 46.3996 220.9 43.5996 218.6C43.5996 218.6 45.9996 226.1 50.9996 226.1L51.7996 220.4Z" fill="#231F20"/>
<path d="M50.8998 226.8C45.4998 226.8 42.9998 219.1 42.8998 218.8C42.7998 218.5 42.8998 218.2 43.1998 218C43.3998 217.8 43.7998 217.8 43.9998 218C46.5998 220 51.6998 219.6 51.6998 219.6C52.0998 219.6 52.3998 219.9 52.4998 220.2C52.4998 220.3 52.4998 220.3 52.4998 220.4L51.6998 226.2C51.5998 226.6 51.2998 226.9 50.8998 226.8ZM44.8998 220.2C45.7998 222.2 47.5998 225 50.2998 225.4L50.8998 221.1C48.8998 221.2 46.8998 220.9 44.8998 220.2Z" fill="#231F20"/>
<path d="M21.7996 224.4C17.4996 225.3 4.1996 267.7 10.2996 272.2C19.7996 279.2 48.6996 269.6 48.6996 269.6L45.7996 257.1C45.7996 257.1 24.8996 258.1 24.4996 253.8C24.0996 249.5 36.1996 229.4 34.4996 226.5C32.7996 223.6 21.7996 224.4 21.7996 224.4Z" fill="#3758F9"/>
<path d="M43.6998 261.3C47.1998 261.4 50.6998 261.2 54.0998 260.6C56.5998 260 59.1998 259.6 61.8998 259.6C65.3998 259.7 68.7998 260.4 71.9998 261.7C72.0998 261.7 72.1998 261.8 72.2998 261.9C72.5998 262.3 71.8998 262.8 71.3998 262.8C69.9998 262.9 68.5998 262.7 67.2998 262.4C70.5998 263.6 73.7998 265.1 76.6998 267.1C76.9998 267.3 77.3998 267.7 77.1998 268.1C76.9998 268.5 76.3998 268.4 75.9998 268.2L68.4998 264.9C70.4998 265.6 72.2998 266.7 73.8998 268C74.0998 268.2 74.3998 268.5 74.2998 268.7C74.1998 269.2 73.3998 269.1 72.9998 268.9C70.6998 267.8 68.4998 266.5 66.3998 265.1L71.0998 268.6C71.1998 269 70.7998 269.3 70.3998 269.3C69.9998 269.3 69.5998 269.2 69.2998 268.9L64.0998 266L67.2998 268.2C67.7998 268.6 68.3998 269.1 68.1998 269.7C67.9998 270.3 66.8998 270.2 66.2998 269.9C63.5998 268.8 60.7998 268 57.9998 267.5C56.9998 267.2 55.9998 267 54.8998 267C53.2998 267.2 51.6998 267.6 50.1998 268.1C47.8998 268.7 45.5998 269.3 43.2998 269.8" fill="white"/>
<path d="M67.1999 270.8C66.6999 270.8 66.2999 270.7 65.7999 270.5C63.1999 269.4 60.3999 268.6 57.5999 268.2C57.1999 268.1 56.8999 268 56.4999 268C55.8999 267.8 55.2999 267.7 54.5999 267.7C53.5999 267.8 52.4999 268 51.4999 268.4C50.9999 268.5 50.4999 268.7 49.9999 268.8C47.6999 269.4 45.3999 269.9 43.0999 270.5C42.7999 270.6 42.3999 270.4 42.2999 270C42.1999 269.7 42.3999 269.3 42.7999 269.2C45.0999 268.6 47.3999 268 49.7999 267.5C50.1999 267.4 50.6999 267.2 51.1999 267.1C52.2999 266.7 53.3999 266.5 54.5999 266.4C55.3999 266.4 56.0999 266.5 56.7999 266.7C57.0999 266.8 57.4999 266.9 57.7999 266.9C60.6999 267.4 63.4999 268.2 66.1999 269.3C66.4999 269.5 66.8999 269.5 67.2999 269.5C67.3999 269.4 67.1999 269.1 66.6999 268.8L63.4999 266.6C63.1999 266.4 63.0999 266 63.2999 265.7C63.4999 265.4 63.8999 265.3 64.1999 265.5L69.3999 268.4L69.7999 268.6L65.7999 265.6C65.4999 265.4 65.3999 265 65.6999 264.7C65.8999 264.4 66.2999 264.3 66.5999 264.5C68.5999 265.9 70.7999 267.2 73.0999 268.3H73.1999C72.0999 267.4 70.9999 266.7 69.7999 266.1L68.0999 265.4C67.7999 265.3 67.5999 264.9 67.7999 264.6C67.8999 264.3 68.2999 264.1 68.5999 264.2C69.1999 264.4 69.7999 264.7 70.2999 265L76.0999 267.5H76.1999C73.3999 265.5 70.2999 264 66.9999 262.9C66.6999 262.8 66.4999 262.4 66.5999 262.1C66.6999 261.8 66.9999 261.6 67.3999 261.7C68.6999 262 69.9999 262.2 71.2999 262.1H71.3999C68.3999 260.9 65.0999 260.3 61.8999 260.2C59.6999 260.2 57.3999 260.5 55.1999 261L54.1999 261.2C50.6999 261.8 47.1999 262.1 43.6999 261.9C43.2999 261.9 43.0999 261.6 43.0999 261.3C43.0999 260.9 43.3999 260.7 43.6999 260.7C47.0999 260.8 50.5999 260.6 53.8999 260L54.8999 259.8C57.1999 259.2 59.4999 258.9 61.7999 258.9C65.2999 259 68.7999 259.7 72.0999 261C72.2999 261.1 72.5999 261.2 72.6999 261.4C72.8999 261.7 72.8999 262.1 72.7999 262.4C72.4999 262.9 71.9999 263.2 71.3999 263.3C73.2999 264.2 75.0999 265.3 76.7999 266.4C77.7999 267.1 77.6999 267.8 77.5999 268.1C77.4999 268.4 77.2999 268.6 76.9999 268.7C76.4999 268.8 75.9999 268.8 75.4999 268.6L74.5999 268.2C74.5999 268.4 74.5999 268.5 74.5999 268.7C74.4999 269 74.2999 269.3 73.9999 269.5C73.4999 269.7 72.8999 269.7 72.3999 269.4L71.3999 268.9C71.3999 269 71.2999 269.2 71.1999 269.3C70.9999 269.6 70.5999 269.8 70.1999 269.8C69.6999 269.8 69.1999 269.6 68.7999 269.4H68.6999C68.6999 269.6 68.6999 269.8 68.5999 269.9C68.4999 270.2 68.1999 270.5 67.8999 270.6C67.7999 270.8 67.4999 270.8 67.1999 270.8Z" fill="#231F20"/>
<path d="M59.0996 229C60.2996 230.1 63.4996 248.5 64.7996 257.1Z" fill="white"/>
<path d="M64.7994 257.8C64.4994 257.8 64.1993 257.6 64.1993 257.3C62.7993 247.7 59.6993 230.8 58.6993 229.5C58.3993 229.3 58.3993 228.9 58.5993 228.6C58.7993 228.3 59.1994 228.3 59.4994 228.5L59.5993 228.6C61.1993 230.1 64.6994 251.7 65.4994 257.1C65.5994 257.4 65.2994 257.8 64.9994 257.8C64.8994 257.8 64.8994 257.8 64.7994 257.8Z" fill="#231F20"/>
<path d="M32.9996 274.4C32.5996 274.4 32.2996 274.1 32.2996 273.7C32.2996 273.4 32.4996 273.1 32.7996 273.1L42.3996 271.2L42.4996 260.3L24.2996 258.8C24.0996 258.8 23.8996 258.7 23.7996 258.5C23.6996 258.3 23.5996 258.1 23.6996 257.9L31.2996 229.5C31.3996 229.1 31.6996 228.9 32.0996 229C32.4996 229.1 32.6996 229.4 32.5996 229.8V229.9L25.1996 257.5L43.1996 259C43.5996 259 43.7996 259.3 43.7996 259.7L43.6996 271.9C43.6996 272.2 43.4996 272.5 43.0996 272.6L32.9996 274.6V274.4Z" fill="#231F20"/>
<path d="M89.2996 277.3L98.0996 253.7L62.1996 254.4L54.0996 281.3L89.2996 277.3Z" fill="white"/>
<path d="M54.0994 282C53.6994 282 53.3994 281.7 53.3994 281.3C53.3994 281.2 53.3994 281.2 53.3994 281.1L61.4994 254.2C61.5994 253.9 61.8994 253.7 62.1994 253.7L98.1994 253C98.3994 253 98.6994 253.1 98.7994 253.3C98.8994 253.5 98.9994 253.7 98.8994 253.9L90.0994 277.5C89.9994 277.7 89.7994 277.9 89.4994 278L54.0994 282ZM62.6994 255.1L55.0994 280.5L88.7994 276.6L97.0994 254.4L62.6994 255.1Z" fill="#231F20"/>
<path d="M87.3992 277.5C87.3992 277.5 97.1992 285.4 93.6992 292.7C90.1992 300 27.9992 308.3 27.9992 308.3L25.1992 298.8C25.1992 298.8 74.0992 273.8 87.3992 277.5Z" fill="#231F20"/>
<path d="M27.9993 309C27.6993 309 27.3993 308.8 27.2993 308.5L24.4993 299C24.3993 298.7 24.5993 298.3 24.7993 298.2C26.7993 297.2 74.0993 273.2 87.5993 276.9C87.6993 276.9 87.7993 277 87.7993 277C88.1993 277.3 97.8993 285.4 94.2993 293C90.7993 300.4 34.4993 308.1 27.9993 309ZM25.9993 299.2L28.4993 307.6C53.3993 304.2 90.6993 297.5 93.0993 292.5C96.0993 286.2 88.0993 279.1 87.0993 278.2C74.6993 275 31.2993 296.5 25.9993 299.2Z" fill="#231F20"/>
<path d="M21.8993 273.9C21.8993 273.9 70.2993 293.5 82.2993 298.6L75.2993 309.4C75.2993 309.4 30.5993 308.5 17.7993 297.3C4.99927 286.1 5.89927 267.4 21.8993 273.9Z" fill="#231F20"/>
<path d="M75.4001 310.1C73.6001 310.1 30.3001 309.1 17.4001 297.8C8.90006 290.4 6.50006 280.1 9.60006 275.1C11.8001 271.5 16.4001 270.8 22.2001 273.2C22.7001 273.4 70.8001 292.8 82.6001 298C82.8001 298.1 82.9001 298.2 83.0001 298.4C83.1001 298.6 83.0001 298.8 82.9001 299L75.9001 309.8C75.8001 310 75.6001 310.1 75.4001 310.1ZM16.0001 273.2C13.9001 273.1 11.9001 274.1 10.8001 275.8C8.00006 280.3 10.4001 289.8 18.3001 296.7C30.1001 307.1 70.6001 308.5 75.0001 308.6L81.3001 298.8C68.3001 293.3 22.1001 274.6 21.6001 274.4C19.9001 273.7 18.0001 273.3 16.0001 273.2Z" fill="#231F20"/>
<path d="M89.5 267.9C89.6 268.2 89.7 268.4 89.9 268.7L90.8 270.1C90.7 269.6 90.1 269.2 89.6 269.3C89.5 269.3 89.5 269.3 89.4 269.4C88.9 269.7 88.5 270.3 88.5 270.9C88.5 271.5 88.7 272.1 88.9 272.7C89.6 274.4 91.1 277 93.3 275.7C94.8 274.8 95.2 271.7 95.4 270.1C95.8 267 94.9 263 90.9 263.6C91 265.1 91.6 266.6 92.5 267.8C91.9 267 89.3 266.1 89.5 267.9Z" fill="white"/>
<path d="M92.0998 276.6C91.7998 276.6 91.4998 276.6 91.2998 276.5C89.6998 276 88.7998 274 88.2998 272.9C87.9998 272.3 87.8998 271.6 87.7998 270.9C87.7998 270 88.2998 269.2 88.9998 268.8C88.7998 268.6 88.6998 268.3 88.6998 268C88.5998 267.4 88.8998 266.7 89.4998 266.4C89.8998 266.2 90.3998 266.2 90.7998 266.3C90.3998 265.4 90.1998 264.5 90.0998 263.6C90.0998 263.3 90.2998 263 90.5998 262.9C91.8998 262.6 93.2998 263 94.2998 263.9C95.7998 265.4 96.0998 268 95.7998 270C95.5998 271.8 95.0998 275 93.3998 276.1C93.0998 276.4 92.5998 276.5 92.0998 276.6ZM89.7998 269.9H89.6998C89.3998 270.1 89.1998 270.4 89.1998 270.8C89.1998 271.3 89.3998 271.8 89.5998 272.3C89.8998 273.5 90.6998 274.5 91.7998 275.2C92.1998 275.3 92.6998 275.3 93.0998 275C94.2998 274.3 94.6998 271.2 94.8998 269.9C95.0998 268.2 94.9998 266 93.7998 264.8C93.2998 264.3 92.4998 264 91.7998 264.1C91.9998 265.3 92.4998 266.4 93.1998 267.3C93.3998 267.6 93.3998 268 93.0998 268.2C92.8998 268.4 92.4998 268.4 92.2998 268.2C91.7998 267.8 91.0998 267.5 90.3998 267.6C90.2998 267.6 90.2998 267.8 90.2998 267.9C90.2998 268.1 90.3998 268.2 90.4998 268.4L90.9998 269.1C91.2998 269.3 91.4998 269.7 91.5998 270.1C91.5998 270.4 91.4998 270.7 91.1998 270.8C90.8998 270.9 90.5998 270.8 90.3998 270.6L90.0998 270.1H89.7998V269.9Z" fill="#231F20"/>
<path d="M75.8997 296.8C75.7997 296.8 75.6998 296.8 75.5998 296.8C74.4998 296.4 49.5998 286.7 43.8998 283.3C43.5998 283.1 43.4998 282.6 43.6998 282.3C43.8998 282 44.3998 281.9 44.6998 282.1C50.1998 285.5 75.8998 295.4 76.1998 295.5C76.5998 295.7 76.6998 296.1 76.5998 296.5C76.4998 296.6 76.1997 296.8 75.8997 296.8Z" fill="white"/>
<path d="M348.601 310.7C347.701 310.7 346.801 310.1 346.601 309.2L278.101 63.4C277.801 62.3 278.401 61.1 279.601 60.8C280.801 60.5 281.901 61.1 282.201 62.3L350.601 308C350.901 309.1 350.301 310.3 349.101 310.6C349.001 310.6 348.801 310.7 348.601 310.7Z" fill="#231F20"/>
<path d="M299.2 310.7C298.3 310.7 297.4 310.1 297.2 309.2L228.7 63.4C228.4 62.3 229 61.1 230.2 60.8C231.4 60.5 232.5 61.1 232.8 62.3L301.2 308C301.5 309.1 300.9 310.3 299.7 310.6C299.6 310.6 299.4 310.7 299.2 310.7Z" fill="#231F20"/>
<path d="M284.401 83.0999H235.901C234.701 83.0999 233.801 82.1999 233.801 80.9999C233.801 79.7999 234.701 78.8999 235.901 78.8999H284.401C285.601 78.8999 286.501 79.7999 286.501 80.9999C286.401 82.1999 285.501 83.0999 284.401 83.0999Z" fill="#231F20"/>
<path d="M291.701 109.5H243.201C242.001 109.5 241.101 108.6 241.101 107.4C241.101 106.2 242.001 105.3 243.201 105.3H291.701C292.901 105.3 293.801 106.2 293.801 107.4C293.801 108.5 292.801 109.5 291.701 109.5Z" fill="#231F20"/>
<path d="M299 135.8H250.5C249.3 135.8 248.4 134.9 248.4 133.7C248.4 132.5 249.3 131.6 250.5 131.6H299C300.2 131.6 301.1 132.5 301.1 133.7C301.1 134.9 300.2 135.8 299 135.8Z" fill="#231F20"/>
<path d="M306.401 162.1H257.901C256.701 162.1 255.801 161.2 255.801 160C255.801 158.8 256.701 157.9 257.901 157.9H306.401C307.601 157.9 308.501 158.8 308.501 160C308.501 161.2 307.501 162.1 306.401 162.1Z" fill="#231F20"/>
<path d="M313.701 188.5H265.201C264.001 188.5 263.101 187.6 263.101 186.4C263.101 185.2 264.001 184.3 265.201 184.3H313.701C314.901 184.3 315.801 185.2 315.801 186.4C315.801 187.6 314.801 188.5 313.701 188.5Z" fill="#231F20"/>
<path d="M321 214.8H272.5C271.3 214.8 270.4 213.9 270.4 212.7C270.4 211.5 271.3 210.6 272.5 210.6H321C322.2 210.6 323.1 211.5 323.1 212.7C323.1 213.9 322.2 214.8 321 214.8Z" fill="#231F20"/>
<path d="M328.401 241.2H279.901C278.701 241.2 277.801 240.3 277.801 239.1C277.801 237.9 278.701 237 279.901 237H328.401C329.601 237 330.501 237.9 330.501 239.1C330.501 240.3 329.501 241.2 328.401 241.2Z" fill="#231F20"/>
<path d="M335.701 267.5H287.201C286.001 267.5 285.101 266.6 285.101 265.4C285.101 264.2 286.001 263.3 287.201 263.3H335.701C336.901 263.3 337.801 264.2 337.801 265.4C337.801 266.6 336.901 267.5 335.701 267.5Z" fill="#231F20"/>
<path d="M343 293.9H294.5C293.3 293.9 292.4 293 292.4 291.8C292.4 290.6 293.3 289.7 294.5 289.7H343C344.2 289.7 345.1 290.6 345.1 291.8C345.1 293 344.2 293.9 343 293.9Z" fill="#231F20"/>
<path d="M313.2 93.2C313.2 93.2 304.899 82.2 308.299 74.9C308.299 74.9 305.199 73.9 308.199 70.1C311.199 66.3 318.599 62.2 327.299 66.4L324.599 67.8C329.499 66.3 334.899 68.4 337.299 73L334.199 74.1L332.399 89.3L313.2 93.2Z" fill="white"/>
<path d="M313.199 93.9C312.999 93.9 312.799 93.8 312.699 93.6C312.399 93.2 304.599 82.7 307.499 75.2C306.999 74.9 306.599 74.4 306.399 73.8C305.999 72.7 306.499 71.3 307.699 69.8C310.799 65.9 318.599 61.6 327.599 66C327.799 66.1 327.999 66.3 327.999 66.6C327.999 66.7 327.999 66.8 327.899 66.9C332.099 66.9 335.899 69.2 337.899 72.9C337.999 73.1 337.999 73.3 337.899 73.5C337.799 73.7 337.699 73.8 337.499 73.9L334.799 74.9L332.999 89.7C332.999 90 332.799 90.2 332.499 90.3L313.399 94.1L313.199 93.9ZM319.899 65.4C315.599 65.4 311.499 67.3 308.699 70.6C307.799 71.8 307.399 72.8 307.599 73.5C307.799 73.9 308.099 74.3 308.499 74.4C308.699 74.5 308.799 74.6 308.899 74.8C308.999 75 308.999 75.2 308.899 75.3C305.999 81.5 312.199 90.8 313.499 92.6L331.799 89.1L333.599 74.3C333.599 74.1 333.799 73.9 333.999 73.8L336.399 72.9C333.999 69 329.199 67.2 324.899 68.6C324.599 68.7 324.199 68.5 324.099 68.2C323.999 67.9 324.099 67.6 324.399 67.5L325.899 66.7C323.899 65.8 321.899 65.4 319.899 65.4Z" fill="#231F20"/>
<path d="M344.399 226.1L342.699 225.8C341.699 225.6 340.999 224.7 341.099 223.7L346.699 187.1C346.899 186.1 347.799 185.4 348.799 185.5L350.499 185.8C351.499 186 352.199 186.9 352.099 187.9L346.499 224.5C346.399 225.6 345.399 226.3 344.399 226.1Z" fill="white"/>
<path d="M344.099 226.7C343.899 226.7 343.799 226.7 343.599 226.7H343.399C341.599 226.4 340.399 224.8 340.699 223L346.099 187.9C346.399 186.1 347.999 184.9 349.799 185.2H349.999C351.799 185.5 352.999 187.1 352.699 188.9L347.299 224C347.199 224.8 346.699 225.6 345.999 226.1C345.399 226.4 344.799 226.7 344.099 226.7ZM343.499 225.3H343.699C344.799 225.5 345.799 224.7 345.899 223.7L351.299 188.6C351.399 188.1 351.199 187.6 350.899 187.1C350.599 186.7 350.099 186.4 349.599 186.3H349.399C348.899 186.2 348.399 186.3 347.899 186.7C347.499 187 347.199 187.5 347.099 188L341.699 223.1C341.699 224.2 342.499 225.2 343.499 225.3Z" fill="#231F20"/>
<path d="M348.6 169C348.6 169 342.2 192.3 345 191.2C348.1 189.9 349.8 182.7 349.8 182.7C349.8 182.7 352.1 186.6 352.1 188.7C352.1 190.8 349.2 198.1 351.5 198.6C353.8 199.1 359.5 186.8 358.9 184C358.3 181.7 357.4 179.5 356.4 177.4L357.5 170.9" fill="white"/>
<path d="M351.499 199.2H351.199C350.799 199.1 350.399 198.9 350.199 198.5C349.399 197.3 349.899 194.9 350.699 191.7C350.999 190.7 351.199 189.7 351.299 188.7C351.099 187.2 350.599 185.7 349.799 184.4C349.099 186.7 347.499 190.7 345.099 191.7C344.799 191.9 344.299 191.8 344.099 191.6C342.399 190.1 345.799 176.7 347.899 168.8C347.999 168.5 348.299 168.3 348.699 168.3C348.999 168.4 349.199 168.7 349.199 169.1C346.699 178.3 344.499 188.4 344.999 190.4C347.199 189.2 348.699 184.3 349.099 182.5C349.199 182.2 349.399 182.1 349.599 182C349.899 182 350.099 182.1 350.199 182.3C350.299 182.5 352.599 186.4 352.599 188.7C352.499 189.8 352.199 190.9 351.899 191.9C351.399 193.9 350.699 196.8 351.199 197.7C351.199 197.8 351.299 197.8 351.399 197.8C351.399 197.8 351.699 197.8 352.299 197.2C354.999 194.4 358.499 185.9 358.099 184C357.499 181.8 356.699 179.6 355.599 177.5C355.499 177.4 355.499 177.2 355.499 177.1L356.599 170.6C356.699 170.2 356.999 170 357.399 170.1C357.799 170.2 357.999 170.5 357.899 170.9L356.899 177.2C357.899 179.3 358.799 181.5 359.399 183.8C359.999 186.5 355.899 195.5 353.299 198.2C352.899 198.9 352.299 199.2 351.499 199.2Z" fill="#231F20"/>
<path d="M291.8 198.6L296.9 211.2C296.9 211.2 282 217 278 217.9C274 218.8 273.9 216.9 279.3 211.9C283.5 208 285.1 207.5 285.1 207.5L282.4 202.6L291.8 198.6Z" fill="white"/>
<path d="M276.399 218.8C275.699 218.9 274.999 218.6 274.599 218C274.199 217.2 274.299 215.7 278.799 211.5C280.399 209.9 282.199 208.5 284.199 207.3L281.799 203C281.699 202.8 281.699 202.6 281.799 202.5C281.899 202.3 281.999 202.2 282.199 202.1L291.699 198.1C291.899 198 291.999 198 292.199 198.1C292.399 198.2 292.499 198.3 292.599 198.5L297.599 211.1C297.699 211.3 297.699 211.4 297.599 211.6C297.499 211.8 297.399 211.9 297.199 211.9C296.599 212.1 282.199 217.8 278.199 218.6C277.599 218.7 276.999 218.7 276.399 218.8ZM283.299 202.9L285.699 207.2C285.799 207.4 285.799 207.6 285.699 207.7C285.599 207.9 285.499 208 285.299 208.1C285.299 208.1 283.699 208.7 279.699 212.4C275.399 216.4 275.699 217.3 275.699 217.3C275.699 217.3 275.999 217.6 277.799 217.2C281.299 216.5 293.199 211.9 295.999 210.8L291.399 199.4L283.299 202.9Z" fill="#231F20"/>
<path d="M316.299 250.7C316.499 253.2 316.299 255.7 315.699 258.2C314.799 261.3 313.899 265.6 314.199 268.3C314.499 271 317.399 274.2 320.299 272.9C323.199 271.6 324.299 263.4 324.199 261.2C324.099 259 323.799 253.2 324.399 250.2L316.299 250.7Z" fill="white"/>
<path d="M318.999 273.9C318.299 273.9 317.599 273.7 316.999 273.3C315.199 272.2 313.999 270.4 313.699 268.4C313.199 264.9 314.699 259.6 315.199 258C315.699 255.6 315.899 253.2 315.699 250.7C315.699 250.5 315.699 250.4 315.899 250.2C315.999 250.1 316.199 250 316.299 250L324.499 249.5C324.699 249.5 324.899 249.6 324.999 249.7C325.099 249.8 325.199 250 325.099 250.2C324.499 253 324.799 258.5 324.899 260.8V261C324.999 262.7 324.099 271.8 320.599 273.4C320.099 273.7 319.599 273.9 318.999 273.9ZM316.999 251.3C317.099 253.7 316.899 256.1 316.399 258.4C315.499 261.5 314.599 265.7 314.999 268.3C315.299 270 316.199 271.4 317.699 272.3C318.499 272.8 319.399 272.8 320.199 272.4C322.599 271.3 323.799 263.7 323.699 261.3V261C323.499 257.6 323.499 254.3 323.799 250.9L316.999 251.3Z" fill="#231F20"/>
<path d="M338.8 142.9C337.3 142 303.7 149.3 303.7 149.3C303.7 149.3 263 156.7 264 166.9C265 177.1 281.7 204.6 281.7 204.6L294.2 201.2L283.2 174.6H308.1C308.1 174.6 316.6 235.3 314.2 253.4L326.4 255.3L338.8 142.9Z" fill="#231F20"/>
<path d="M326.5 256L314.2 254.1C313.9 254 313.6 253.7 313.7 253.4C315.9 236.5 308.5 181.3 307.7 175.3H284.2L294.9 201C295 201.2 295 201.3 294.9 201.5C294.8 201.7 294.7 201.8 294.5 201.8L282 205.2C281.7 205.3 281.4 205.2 281.3 204.9C280.6 203.8 264.6 177.2 263.5 166.9C262.4 156.3 302 149 303.6 148.7C313.8 146.5 337.6 141.4 339.1 142.3C339.3 142.4 339.4 142.7 339.4 142.9L327.1 255.4C327 255.7 326.8 256 326.5 256ZM315 253L326 254.7L338.2 143.5C334.8 143.5 315.8 147.4 303.9 150C292.7 152 263.9 159 264.7 166.9C265.7 176.2 280 200.5 282.1 204L293.5 200.9L282.7 175C282.6 174.8 282.6 174.6 282.8 174.4C282.9 174.2 283.1 174.1 283.3 174.1H308.2C308.5 174.1 308.8 174.3 308.8 174.6C309.1 177 317.1 234.3 315 253Z" fill="#231F20"/>
<path d="M337.6 174.3L291.1 150.5C291.1 150.5 303.5 109.4 309.1 103.3C314.7 97.2 337.8 100.3 341.2 106.3C344.6 112.3 340.7 151.5 337.6 174.3Z" fill="#3758F9"/>
<path d="M316.6 97.1L316.1 105C316.1 105 316.6 109.5 321.5 108.4C324.4 107.7 326.9 105.8 328.3 103.1C328.3 103.1 329.5 84.1 329.9 79.1C326.4 78.7 323 77.5 319.9 75.7C319.4 75.3 318.9 75.1 318.4 74.8C317.4 74.7 317.5 75.2 317.1 76C316.3 77.5 315.1 78.7 313.5 79.5C313.3 79.6 313.1 79.7 313 79.9C312.9 80 312.9 80.2 312.9 80.3C312.4 84.8 311.5 89.3 312.1 93.9C312.6 97.8 316.6 97.1 316.6 97.1Z" fill="white"/>
<path d="M319.999 109.3C318.999 109.3 318.099 109 317.299 108.5C316.199 107.7 315.599 106.5 315.399 105.2L315.899 97.9C314.899 97.9 313.899 97.6 313.099 97.1C312.199 96.4 311.599 95.4 311.499 94.2C311.099 90.6 311.299 86.9 311.899 83.3C311.999 82.3 312.099 81.4 312.299 80.4C312.299 80.2 312.399 79.9 312.499 79.7C312.699 79.4 312.999 79.2 313.299 79.1C314.699 78.4 315.899 77.3 316.599 75.9C316.699 75.7 316.699 75.6 316.799 75.4C316.899 74.6 317.699 74.1 318.499 74.3H318.599C319.099 74.4 319.499 74.6 319.899 75L320.299 75.3C323.299 77.1 326.599 78.2 329.999 78.6C330.199 78.6 330.299 78.7 330.399 78.8C330.499 78.9 330.599 79.1 330.499 79.3C330.099 84.3 328.899 103.1 328.899 103.3C328.899 103.4 328.899 103.5 328.899 103.5C327.499 106.4 324.799 108.5 321.699 109.1C320.999 109.2 320.499 109.3 319.999 109.3ZM316.599 105.1C316.899 107 318.599 108.3 320.499 108.1C320.799 108.1 320.999 108 321.299 107.9C323.999 107.3 326.299 105.5 327.599 103.1C327.699 101.5 328.699 85.3 329.199 79.8C325.799 79.3 322.599 78.1 319.599 76.4C319.499 76.3 319.299 76.2 319.099 76.1C318.899 75.9 318.599 75.8 318.299 75.7C318.099 75.7 317.999 75.7 317.999 75.7C317.999 75.8 317.899 75.9 317.899 76C317.799 76.2 317.699 76.4 317.599 76.6C316.699 78.2 315.399 79.6 313.699 80.3C313.599 80.3 313.499 80.4 313.499 80.4V80.5C313.399 81.5 313.299 82.4 313.099 83.4C312.499 86.9 312.299 90.4 312.699 93.9C312.799 94.7 313.199 95.4 313.799 95.9C314.599 96.4 315.499 96.6 316.499 96.5C316.699 96.5 316.899 96.5 316.999 96.6C317.099 96.7 317.199 96.9 317.199 97.1L316.599 105.1Z" fill="#231F20"/>
<path d="M316.399 101C318.399 101.2 320.299 100.6 321.799 99.3C322.999 98.3 323.799 96.7 323.799 95.1C321.599 96.4 319.099 97 316.599 97.1L316.399 101Z" fill="#231F20"/>
<path d="M316.9 101.7C316.7 101.7 316.5 101.7 316.3 101.7C316 101.7 315.7 101.4 315.8 101.1L316 97.2C316 96.9 316.3 96.6 316.6 96.6C319 96.5 321.4 95.9 323.5 94.7C323.7 94.6 323.9 94.6 324.1 94.7C324.3 94.8 324.4 95 324.4 95.2C324.4 97 323.6 98.7 322.2 99.9C320.7 101.1 318.8 101.7 316.9 101.7ZM317.2 97.8L317.1 100.5C318.7 100.5 320.2 100 321.4 99C322.2 98.3 322.8 97.4 323.1 96.3C321.2 97.1 319.2 97.6 317.2 97.8Z" fill="#231F20"/>
<path d="M320.499 84.7C320.499 84.7 317.699 88.3 318.299 89C318.899 89.7 320.599 89.3999 320.599 89.3999" fill="white"/>
<path d="M319.6 90.1001C318.9 90.2001 318.2 89.9001 317.7 89.4001C317.5 89.1001 316.8 88.3001 319.9 84.3001C320.1 84.0001 320.5 84.0001 320.8 84.2001C321.1 84.4001 321.1 84.8001 320.9 85.1001C320 86.2001 319.3 87.4001 318.7 88.7001C319.2 88.9001 319.8 88.9001 320.3 88.8001C320.6 88.7001 321 89.0001 321 89.3001C321.1 89.6001 320.8 90.0001 320.5 90.0001C320.3 90.1001 320 90.1001 319.6 90.1001Z" fill="#231F20"/>
<path d="M317.618 83.3092C317.663 82.8696 317.522 82.495 317.302 82.4724C317.082 82.4498 316.867 82.7878 316.822 83.2273C316.777 83.6669 316.918 84.0415 317.138 84.0641C317.358 84.0867 317.573 83.7487 317.618 83.3092Z" fill="#231F20"/>
<path d="M324.884 83.5873C324.899 83.1457 324.731 82.7818 324.511 82.7744C324.29 82.7671 324.099 83.119 324.084 83.5606C324.07 84.0022 324.237 84.3661 324.457 84.3734C324.678 84.3808 324.869 84.0288 324.884 83.5873Z" fill="#231F20"/>
<path d="M328.1 86.6C329 85.5 330.5 83.4 332.2 84.2C332.7 84.4 333 84.8 333.3 85.2C334.6 87 334.3 89.1 333.2 90.9C332.3 92.4 329.6 94.7 328 92.6" fill="white"/>
<path d="M329.599 94C328.799 94 327.999 93.6 327.499 92.9C327.199 92.7 327.199 92.2 327.499 92C327.699 91.7 328.199 91.7 328.399 92L328.499 92.1C328.799 92.5 329.199 92.7 329.699 92.7C330.899 92.4 331.999 91.6 332.599 90.5C333.099 89.6 334.199 87.4 332.699 85.5C332.499 85.2 332.199 84.9 331.799 84.7C330.799 84.2 329.799 85.4 328.699 86.7L328.499 87C328.299 87.3 327.899 87.3 327.599 87.1C327.299 86.9 327.299 86.5 327.499 86.2L327.699 85.9C328.699 84.7 330.299 82.7 332.299 83.6C332.899 83.9 333.299 84.3 333.699 84.8C334.999 86.6 334.999 89 333.599 91.2C332.999 92.2 331.399 93.9 329.599 94Z" fill="#231F20"/>
<path d="M319.8 93.9001C318.4 93.8001 317.1 93.2001 316.2 92.1001C316 91.8001 316 91.5001 316.2 91.2001C316.4 90.9001 316.8 91.0001 317.1 91.2001C317.8 92.1001 318.9 92.6001 320 92.6001C322.1 92.5001 323.9 90.3001 323.9 90.2001C324.1 89.9001 324.5 89.9001 324.8 90.1001C325.1 90.3001 325.1 90.7001 324.9 91.0001C324.8 91.1001 322.8 93.7001 320.1 93.9001H319.8Z" fill="#231F20"/>
<path d="M341.3 106.3C341.3 106.3 355.4 115.7 362.4 137.2C365.8 147.7 358.9 175.7 358.9 175.7L345.9 170.4C345.9 170.4 349.4 148.9 348.6 146C347.8 143.1 330.1 123.3 330.1 123.3L341.3 106.3Z" fill="#3758F9"/>
<path d="M269.199 109.2C269.199 109.2 257.299 98.2 256.199 98.5C255.099 98.8 249.899 102.1 250.099 103.1C250.299 104.1 250.299 105.1 250.299 105.1C250.299 105.1 252.499 104.6 252.999 104.9C253.999 106 254.899 107.1 255.699 108.3C256.399 109.1 252.699 110 252.699 110C254.199 110.5 255.699 110.9 257.199 111.1C258.699 111.2 262.599 113 262.599 113L269.199 109.2Z" fill="white"/>
<path d="M262.6 113.6C262.5 113.6 262.4 113.6 262.3 113.5C260.6 112.7 258.9 112 257.1 111.6C255.5 111.4 254 111 252.5 110.5C252.2 110.4 252.1 110.2 252.1 109.9C252.1 109.6 252.3 109.4 252.6 109.3C253.5 109.1 254.3 108.8 255.1 108.4L254.9 108.1C254.2 107.1 253.5 106.2 252.7 105.3C252 105.3 251.2 105.5 250.5 105.6C250.3 105.6 250.1 105.6 250 105.5C249.9 105.4 249.8 105.2 249.8 105C249.8 105 249.7 104 249.6 103.1C249.4 101.4 255.4 98.0001 256.2 97.8001C256.6 97.7001 257.6 97.4001 269.8 108.7C269.9 108.8 270 109 270 109.3C270 109.5 269.9 109.7 269.7 109.8L263 113.6C262.8 113.6 262.7 113.6 262.6 113.6ZM254.9 109.9C255.7 110.1 256.4 110.3 257.2 110.4C259.1 110.8 260.9 111.4 262.6 112.3L268.2 109.1C263.1 104.4 257.4 99.6001 256.3 99.2001C255.1 99.6001 251 102.4 250.7 103.2C250.8 103.6 250.8 104 250.8 104.4C252.7 104 253.1 104.3 253.3 104.4C254.3 105.3 255.1 106.3 255.8 107.5L256.2 108C256.4 108.3 256.5 108.6 256.3 108.9C256 109.4 255.5 109.8 254.9 109.9Z" fill="#231F20"/>
<path d="M311 102.3C311 102.3 288.7 116.2 285.4 115.4C282.1 114.6 267 106.2 267 106.2L260.6 113.6C260.6 113.6 276.1 131.1 283.6 129.2C291.1 127.3 310.8 116 310.8 116L311 102.3Z" fill="#3758F9"/>
<path d="M293.5 143.4H293.3C293 143.3 292.8 142.9 292.9 142.6C297.5 129.8 308.9 105.7 309 105.5C309.2 105.2 309.5 105 309.9 105.2C310.2 105.4 310.4 105.7 310.2 106.1C310.1 106.3 298.7 130.3 294.1 143.1C294 143.3 293.8 143.4 293.5 143.4Z" fill="#231F20"/>
<path d="M348.6 146C348.6 146 335.7 128.9 330.1 123.3Z" fill="white"/>
<path d="M348.599 146.6C348.399 146.6 348.199 146.5 348.099 146.4C347.999 146.2 335.099 129.3 329.699 123.8C329.399 123.6 329.399 123.2 329.599 122.9C329.799 122.6 330.199 122.6 330.499 122.8L330.599 122.9C336.099 128.4 348.599 144.9 349.099 145.6C349.299 145.9 349.199 146.3 348.899 146.5C348.899 146.6 348.699 146.6 348.599 146.6Z" fill="#231F20"/>
<path d="M156.4 233.7C156.4 233.7 174.8 236.2 181.3 235.4L182.4 250C182.4 250 162.3 249.7 157.3 247.2L156.4 233.7Z" fill="white"/>
<path d="M182.4 250.7C181.6 250.7 162.1 250.4 157 247.9C156.8 247.8 156.6 247.5 156.6 247.3L155.8 233.8C155.8 233.6 155.9 233.4 156 233.2C156.2 233 156.4 233 156.6 233C156.8 233 174.9 235.5 181.3 234.7C181.5 234.7 181.7 234.7 181.9 234.9C182.1 235 182.1 235.2 182.2 235.4L183.3 250C183.3 250.2 183.2 250.4 183.1 250.5C182.8 250.6 182.6 250.7 182.4 250.7ZM158 246.7C162.8 248.7 178 249.1 181.6 249.2L180.7 236.2C174.5 236.7 160.8 235 157.2 234.6L158 246.7Z" fill="#D1D3D4"/>
<path d="M135.3 301.1C132 301.2 128.8 300.3 126.2 298.4C122.8 295.9 120.7 291.5 120 285.5C118.8 276 115.5 269.2 110.1 265.2C105.9 262.2 100.8 260.8 95.7002 261.4C95.3002 261.5 95.0002 261.2 94.9002 260.8C94.8002 260.4 95.1002 260.1 95.5002 260C101 259.4 106.5 260.8 111 264.1C116.7 268.4 120.2 275.5 121.4 285.4C122.1 291 124 295 127.1 297.3C131.7 300.7 138 299.7 141.4 299.1C142 299 142.6 298.9 143 298.9C155.4 297.5 157.9 273 160 253.3C160.5 248.6 161 244.2 161.5 240.4C161.5 240 161.9 239.7 162.2 239.7C162.6 239.7 162.9 240.1 162.9 240.4V240.5C162.3 244.3 161.9 248.7 161.4 253.4C159.3 273.6 156.6 298.8 143.2 300.3C142.8 300.3 142.3 300.4 141.7 300.5C139.5 300.9 137.4 301.1 135.3 301.1Z" fill="#231F20"/>
<path d="M172.101 245.4C173.757 245.4 175.101 244.057 175.101 242.4C175.101 240.743 173.757 239.4 172.101 239.4C170.444 239.4 169.101 240.743 169.101 242.4C169.101 244.057 170.444 245.4 172.101 245.4Z" fill="#3758F9"/>
<path d="M118.3 57.6001H6.40039V143H118.3V57.6001Z" fill="white"/>
<path d="M118.3 143.7H6.4002C6.0002 143.7 5.7002 143.4 5.7002 143V57.6C5.7002 57.2 6.0002 56.9 6.4002 56.9H118.3C118.7 56.9 119 57.2 119 57.6V143C119 143.4 118.7 143.7 118.3 143.7ZM7.1002 142.2H117.5V58.3H7.1002V142.2Z" fill="#D1D3D4"/>
<path d="M104.6 128.3H22.9002C22.5002 128.3 22.2002 128 22.2002 127.6V69.6C22.2002 69.2 22.5002 68.9 22.9002 68.9C23.3002 68.9 23.6002 69.2 23.6002 69.6V126.9H104.6C105 126.9 105.3 127.2 105.3 127.6C105.3 128 105.1 128.3 104.6 128.3Z" fill="#D1D3D4"/>
<path d="M22.9002 128.3C22.8002 128.3 22.7002 128.3 22.6002 128.2C22.2002 128 22.1002 127.6 22.3002 127.2C22.8002 126.3 34.0002 104.4 45.1002 108.1C48.0002 109.2 50.6002 110.8 52.8002 112.9C57.1002 116.5 59.7002 118.7 69.4002 109.7C76.8002 102.8 80.4002 94.7 83.2002 88.1C86.0002 81.5 88.4002 76.2 93.4002 74.4C93.8002 74.3 94.2002 74.5 94.3002 74.8C94.4002 75.1 94.2002 75.6 93.9002 75.7C89.5002 77.2 87.3002 82.2 84.6002 88.6C81.7002 95.3 78.1002 103.6 70.4002 110.6C60.3002 120 56.8002 117.9 51.9002 113.8C49.8002 111.8 47.3002 110.3 44.7002 109.3C34.9002 106 23.8002 127.5 23.7002 127.7C23.5002 128.1 23.2002 128.3 22.9002 128.3Z" fill="#D1D3D4"/>
<path d="M147.6 154.5H92V194.2H147.6V154.5Z" fill="white"/>
<path d="M147.7 194.9H91.9998C91.5998 194.9 91.2998 194.6 91.2998 194.2V154.5C91.2998 154.1 91.5998 153.8 91.9998 153.8H147.6C148 153.8 148.3 154.1 148.3 154.5V194.2C148.4 194.6 148 194.9 147.7 194.9ZM92.7998 193.5H147V155.2H92.7998V193.5Z" fill="#D1D3D4"/>
<path d="M112.4 187.6C105 187.6 99.0996 181.6 99.0996 174.3C99.0996 166.9 105.1 161 112.4 161C115.1 161 117.7 161.8 119.9 163.3C120.2 163.5 120.3 164 120.1 164.3L113.7 173.5H125C125.4 173.5 125.7 173.8 125.7 174.2C125.7 181.7 119.8 187.6 112.4 187.6ZM112.4 162.5C105.8 162.5 100.5 167.8 100.5 174.4C100.5 181 105.8 186.3 112.4 186.3C118.7 186.3 123.9 181.4 124.3 175.1H112.5C112.2 175.1 112 175 111.9 174.7C111.8 174.5 111.8 174.2 111.9 174L118.6 164.2C116.7 163 114.6 162.5 112.4 162.5Z" fill="#D1D3D4"/>
<path d="M124.999 162.4L118.399 171H129.499C129.499 171.1 129.699 165.4 124.999 162.4Z" fill="#D1D3D4"/>
<path d="M142.1 178.1H129.5C129.1 178.1 128.8 177.8 128.8 177.4C128.8 177 129.1 176.7 129.5 176.7H142.1C142.5 176.7 142.8 177 142.8 177.4C142.8 177.8 142.5 178.1 142.1 178.1Z" fill="#D1D3D4"/>
<path d="M137.8 183.2H129.5C129.1 183.2 128.8 182.9 128.8 182.5C128.8 182.1 129.1 181.8 129.5 181.8H137.8C138.2 181.8 138.5 182.1 138.5 182.5C138.5 182.9 138.2 183.2 137.8 183.2Z" fill="#D1D3D4"/>
</svg>
